<svg xmlns="http://www.w3.org/2000/svg" width="600" height="120" version="1.0" viewBox="178 48 200 55"><path fill="#1a2740" d="M205.124 94.297q-5.22 0-9.391-2.39-4.159-2.405-6.578-6.907-2.407-4.512-2.406-10.875-.001-6.374 2.406-10.89 2.419-4.531 6.578-6.923c2.781-1.601 5.91-2.406 9.39-2.406 3.477 0 6.602.805 9.376 2.406q4.155 2.392 6.562 6.922 2.42 4.517 2.422 10.891-.001 6.362-2.422 10.89-2.408 4.517-6.562 6.907-4.161 2.377-9.375 2.375m0-7.14q3.059 0 5.343-1.5 2.297-1.5 3.578-4.407 1.28-2.917 1.282-7.125-.002-4.218-1.282-7.14c-.855-1.946-2.046-3.423-3.578-4.423-1.523-1.007-3.304-1.515-5.343-1.515q-3.036.001-5.344 1.531c-1.531 1.012-2.727 2.484-3.578 4.422q-1.283 2.906-1.282 7.125c0 2.805.426 5.172 1.282 7.11.851 1.93 2.047 3.398 3.578 4.406q2.308 1.516 5.344 1.515m23.896 6.594V64.64h7.343l.328 7.094h-.563q.687-2.636 2.016-4.312 1.343-1.669 3.125-2.453a9.2 9.2 0 0 1 3.781-.797q3.153.002 5.203 1.984 2.047 1.97 2.891 5.953h-.906q.61-2.7 2.062-4.453 1.467-1.747 3.485-2.61a10.8 10.8 0 0 1 4.297-.874q2.684 0 4.812 1.172 2.123 1.173 3.344 3.406 1.218 2.22 1.219 5.437V93.75h-7.875V75.687c0-1.664-.45-2.906-1.344-3.718-.899-.82-2.008-1.235-3.328-1.235q-1.502.001-2.594.641a4.3 4.3 0 0 0-1.688 1.812q-.595 1.16-.593 2.735V93.75h-7.625V75.453c0-1.445-.43-2.594-1.282-3.437-.843-.852-1.945-1.282-3.296-1.282q-1.407.001-2.532.641-1.114.629-1.78 1.86-.657 1.218-.657 3V93.75Zm57.176.547q-2.785 0-5-.969-2.219-.966-3.484-2.906-1.266-1.951-1.266-4.813c0-1.632.297-3 .89-4.093a7.3 7.3 0 0 1 2.454-2.641q1.559-.998 3.547-1.516a27 27 0 0 1 4.187-.718q2.561-.263 4.11-.485c1.038-.156 1.796-.39 2.265-.703.477-.32.719-.797.719-1.422v-.14q-.001-1.202-.547-2.063-.533-.855-1.563-1.312-1.032-.47-2.515-.47-1.5 0-2.625.47-1.111.455-1.813 1.234a4.5 4.5 0 0 0-.984 1.75l-7.25-.922q.609-2.637 2.312-4.5 1.716-1.875 4.375-2.86c1.782-.663 3.805-1 6.079-1 1.644 0 3.207.196 4.687.579q2.233.579 3.969 1.797a8.54 8.54 0 0 1 2.734 3.062c.664 1.242 1 2.727 1 4.453V93.75h-7.515v-4.063h-.235a8.5 8.5 0 0 1-1.89 2.422q-1.173 1.034-2.813 1.61-1.628.576-3.828.578m2.219-5.5c1.25 0 2.336-.242 3.265-.735.938-.5 1.664-1.16 2.188-1.984q.797-1.231.797-2.797v-3.078q-.364.205-1.032.422a13 13 0 0 1-1.5.36q-.845.156-1.703.296l-1.562.235q-1.424.203-2.531.671c-.743.313-1.313.731-1.72 1.25q-.608.768-.609 1.922 0 1.114.563 1.875.576.768 1.562 1.172.997.391 2.282.39m28.789 5.501q-2.785 0-5-.969-2.219-.966-3.485-2.906-1.265-1.951-1.265-4.813c0-1.632.297-3 .89-4.093a7.3 7.3 0 0 1 2.453-2.641q1.56-.998 3.547-1.516a27 27 0 0 1 4.188-.718q2.561-.263 4.11-.485c1.038-.156 1.796-.39 2.265-.703.476-.32.719-.797.719-1.422v-.14q-.001-1.202-.547-2.063-.533-.855-1.563-1.312-1.032-.47-2.515-.47-1.5 0-2.625.47c-.743.304-1.344.714-1.813 1.234a4.5 4.5 0 0 0-.984 1.75l-7.25-.922q.608-2.637 2.312-4.5 1.716-1.875 4.375-2.86c1.781-.663 3.805-1 6.078-1 1.645 0 3.207.196 4.688.579q2.233.579 3.969 1.797a8.54 8.54 0 0 1 2.734 3.062c.664 1.242 1 2.727 1 4.453V93.75h-7.516v-4.063h-.234a8.5 8.5 0 0 1-1.89 2.422q-1.173 1.034-2.813 1.61-1.628.576-3.828.578m2.218-5.5c1.25 0 2.336-.242 3.266-.735.938-.5 1.664-1.16 2.188-1.984q.795-1.231.796-2.797v-3.078q-.363.205-1.03.422a13 13 0 0 1-1.5.36c-.563.105-1.134.202-1.704.296l-1.562.235q-1.424.203-2.532.671-1.111.47-1.718 1.25-.61.768-.61 1.922 0 1.114.563 1.875.576.768 1.562 1.172.997.391 2.281.39m31.305 5.454c-2.305 0-4.36-.586-6.172-1.766q-2.72-1.763-4.297-5.109-1.563-3.357-1.562-8.156-.001-4.876 1.61-8.203c1.07-2.227 2.515-3.914 4.327-5.063 1.813-1.156 3.82-1.734 6.032-1.734 1.57 0 2.898.258 3.984.765 1.094.512 1.992 1.157 2.703 1.938q1.077 1.172 1.672 2.437h.219V54.47h7.86v39.28h-7.75v-4.61h-.298q-.61 1.266-1.703 2.438-1.096 1.172-2.719 1.922-1.61.75-3.906.75m2.313-6.328q2.028.001 3.453-1.094 1.419-1.09 2.187-3.047c.508-1.3.766-2.832.766-4.594q0-2.624-.75-4.562-.75-1.935-2.188-3-1.44-1.078-3.468-1.078-2.004 0-3.422 1.078c-.938.719-1.649 1.73-2.125 3.031q-.72 1.956-.719 4.531-.001 2.625.719 4.594c.476 1.305 1.187 2.32 2.125 3.047q1.418 1.094 3.422 1.094m0 0"/></svg>