<svg xmlns="http://www.w3.org/2000/svg" width="800" height="200" version="1.0" viewBox="-0.2 -3.8 384.5 157.7"><defs><clipPath id="a"><path d="M18 3.973h131v143.25H18Zm0 0"/></clipPath><clipPath id="b"><path d="M53.355 35.922h61.5v67.5h-61.5Zm0 0"/></clipPath></defs><path fill="#1a2740" d="M205.124 94.297q-5.22 0-9.391-2.39-4.159-2.405-6.578-6.907-2.407-4.512-2.406-10.875-.001-6.374 2.406-10.89 2.419-4.531 6.578-6.923c2.781-1.601 5.91-2.406 9.39-2.406 3.477 0 6.602.805 9.376 2.406q4.155 2.392 6.562 6.922 2.42 4.517 2.422 10.891-.001 6.362-2.422 10.89-2.408 4.517-6.562 6.907-4.161 2.377-9.375 2.375m0-7.14q3.059 0 5.343-1.5 2.297-1.5 3.578-4.407 1.28-2.917 1.282-7.125-.002-4.218-1.282-7.14c-.855-1.946-2.046-3.423-3.578-4.423-1.523-1.007-3.304-1.515-5.343-1.515q-3.036.001-5.344 1.531c-1.531 1.012-2.727 2.484-3.578 4.422q-1.283 2.906-1.282 7.125c0 2.805.426 5.172 1.282 7.11.851 1.93 2.047 3.398 3.578 4.406q2.308 1.516 5.344 1.515m23.896 6.594V64.64h7.343l.328 7.094h-.563q.687-2.636 2.016-4.312 1.343-1.669 3.125-2.453a9.2 9.2 0 0 1 3.781-.797q3.153.002 5.203 1.984 2.047 1.97 2.891 5.953h-.906q.61-2.7 2.062-4.453 1.467-1.747 3.485-2.61a10.8 10.8 0 0 1 4.297-.874q2.684 0 4.812 1.172 2.123 1.173 3.344 3.406 1.218 2.22 1.219 5.437V93.75h-7.875V75.687c0-1.664-.45-2.906-1.344-3.718-.899-.82-2.008-1.235-3.328-1.235q-1.502.001-2.594.641a4.3 4.3 0 0 0-1.688 1.812q-.595 1.16-.593 2.735V93.75h-7.625V75.453c0-1.445-.43-2.594-1.282-3.437-.843-.852-1.945-1.282-3.296-1.282q-1.407.001-2.532.641-1.114.629-1.78 1.86-.657 1.218-.657 3V93.75Zm57.176.547q-2.785 0-5-.969-2.219-.966-3.484-2.906-1.266-1.951-1.266-4.813c0-1.632.297-3 .89-4.093a7.3 7.3 0 0 1 2.454-2.641q1.559-.998 3.547-1.516a27 27 0 0 1 4.187-.718q2.561-.263 4.11-.485c1.038-.156 1.796-.39 2.265-.703.477-.32.719-.797.719-1.422v-.14q-.001-1.202-.547-2.063-.533-.855-1.563-1.312-1.032-.47-2.515-.47-1.5 0-2.625.47-1.111.455-1.813 1.234a4.5 4.5 0 0 0-.984 1.75l-7.25-.922q.609-2.637 2.312-4.5 1.716-1.875 4.375-2.86c1.782-.663 3.805-1 6.079-1 1.644 0 3.207.196 4.687.579q2.233.579 3.969 1.797a8.54 8.54 0 0 1 2.734 3.062c.664 1.242 1 2.727 1 4.453V93.75h-7.515v-4.063h-.235a8.5 8.5 0 0 1-1.89 2.422q-1.173 1.034-2.813 1.61-1.628.576-3.828.578m2.219-5.5c1.25 0 2.336-.242 3.265-.735.938-.5 1.664-1.16 2.188-1.984q.797-1.231.797-2.797v-3.078q-.364.205-1.032.422a13 13 0 0 1-1.5.36q-.845.156-1.703.296l-1.562.235q-1.424.203-2.531.671c-.743.313-1.313.731-1.72 1.25q-.608.768-.609 1.922 0 1.114.563 1.875.576.768 1.562 1.172.997.391 2.282.39m28.789 5.501q-2.785 0-5-.969-2.219-.966-3.485-2.906-1.265-1.951-1.265-4.813c0-1.632.297-3 .89-4.093a7.3 7.3 0 0 1 2.453-2.641q1.56-.998 3.547-1.516a27 27 0 0 1 4.188-.718q2.561-.263 4.11-.485c1.038-.156 1.796-.39 2.265-.703.476-.32.719-.797.719-1.422v-.14q-.001-1.202-.547-2.063-.533-.855-1.563-1.312-1.032-.47-2.515-.47-1.5 0-2.625.47c-.743.304-1.344.714-1.813 1.234a4.5 4.5 0 0 0-.984 1.75l-7.25-.922q.608-2.637 2.312-4.5 1.716-1.875 4.375-2.86c1.781-.663 3.805-1 6.078-1 1.645 0 3.207.196 4.688.579q2.233.579 3.969 1.797a8.54 8.54 0 0 1 2.734 3.062c.664 1.242 1 2.727 1 4.453V93.75h-7.516v-4.063h-.234a8.5 8.5 0 0 1-1.89 2.422q-1.173 1.034-2.813 1.61-1.628.576-3.828.578m2.218-5.5c1.25 0 2.336-.242 3.266-.735.938-.5 1.664-1.16 2.188-1.984q.795-1.231.796-2.797v-3.078q-.363.205-1.03.422a13 13 0 0 1-1.5.36c-.563.105-1.134.202-1.704.296l-1.562.235q-1.424.203-2.532.671-1.111.47-1.718 1.25-.61.768-.61 1.922 0 1.114.563 1.875.576.768 1.562 1.172.997.391 2.281.39m31.305 5.454c-2.305 0-4.36-.586-6.172-1.766q-2.72-1.763-4.297-5.109-1.563-3.357-1.562-8.156-.001-4.876 1.61-8.203c1.07-2.227 2.515-3.914 4.327-5.063 1.813-1.156 3.82-1.734 6.032-1.734 1.57 0 2.898.258 3.984.765 1.094.512 1.992 1.157 2.703 1.938q1.077 1.172 1.672 2.437h.219V54.47h7.86v39.28h-7.75v-4.61h-.298q-.61 1.266-1.703 2.438-1.096 1.172-2.719 1.922-1.61.75-3.906.75m2.313-6.328q2.028.001 3.453-1.094 1.419-1.09 2.187-3.047c.508-1.3.766-2.832.766-4.594q0-2.624-.75-4.562-.75-1.935-2.188-3-1.44-1.078-3.468-1.078-2.004 0-3.422 1.078c-.938.719-1.649 1.73-2.125 3.031q-.72 1.956-.719 4.531-.001 2.625.719 4.594c.476 1.305 1.187 2.32 2.125 3.047q1.418 1.094 3.422 1.094m-207.415-62.82L83.793 5.898l-61.8 19.204s-15.044 96.418 61.8 120.472c76.875-24.054 61.832-120.472 61.832-120.472m0 0"/><path fill="#1a2740" d="m83.793 145.863-.086-.031c-17.594-5.508-31.805-15.27-42.223-29.078-8.355-11.02-14.297-24.598-17.71-40.387-5.801-26.84-2.126-51.094-2.098-51.324l.031-.172L83.793 5.582l.086.027 62.004 19.262.027.172c.031.23 3.703 24.457-2.094 51.324-3.414 15.79-9.359 29.367-17.71 40.387-10.422 13.781-24.63 23.57-42.227 29.078ZM22.25 25.332c-.316 2.238-3.387 25.402 2.125 50.95 3.387 15.702 9.3 29.222 17.598 40.16 10.332 13.66 24.425 23.363 41.851 28.816 17.422-5.48 31.516-15.184 41.852-28.848 8.293-10.965 14.207-24.484 17.594-40.187 5.511-25.547 2.44-48.711 2.125-50.95L83.793 6.183Zm0 0"/><g clip-path="url(#a)"><path fill="#1a2740" d="M148.61 40.516c-.2-9.446-1.118-15.446-1.176-15.672l-.172-1.121L84.023 4.03l-.199-.058-63.469 19.722-.171 1.117c-.028.258-.946 6.29-1.176 15.676-.203 8.696.23 22.016 3.273 36.196 3.442 16.015 9.5 29.796 17.969 40.992 10.621 14.035 25.086 23.996 43 29.62l.543.173.547-.172c17.91-5.598 32.379-15.559 43-29.621 8.469-11.196 14.523-25.004 17.969-40.992 3.07-14.153 3.472-27.5 3.3-36.168M83.792 7.793 143.96 26.48c.629 5.079 2.785 26.235-2.211 49.43-3.332 15.469-9.156 28.79-17.309 39.555-10.046 13.289-23.71 22.762-40.617 28.16-16.91-5.398-30.543-14.871-40.59-28.133-8.152-10.765-13.98-24.055-17.34-39.527-3.011-13.805-3.414-26.809-3.242-35.305.145-6.863.688-11.914.977-14.152Zm0 0"/></g><g clip-path="url(#b)"><path fill="#1a2740" d="M84.879 35.977c.457.496.437 1.453.3 2.09.157.167 1.145-1.087 1.294-1.196-.024.723-.723 1.207-.996 1.793.261.098 1.062-.332 1.093 0-.683.418-1.293.11-1.941.598-.926.707-2.031 1.87-.992 2.988.218-.48.843-.61 1.144-.945.297-.34.406-.996.746-1.348l-.148 1.098 1.293-.598c-.18.508-.719.707-1.094 1.047l.695.445-1.265-.027c-1.043.676-1.086 1.492-.098 2.207.05 0 .766-.426.817-.484.148-.153.238-.48.398-.7.16-.218.727-.738.637-.457l-.5 1.043 1.793-.695-1.094 1.047.894.347c-.425.278-1.105-.23-1.414-.18-.308.052-.765.43-.824.677-.062.25 1.262 1.035 1.504 1.175.863-1.144 2.836-1.183 2.031-2.996-.578-1.285-1.554-.687-2.382-1.601.5.039.988.285 1.496.097-.09-1.136-1.625-1.234-1.543-2.437.367.328.695.863 1.242.894-.04-.539.25-.906-.008-1.433-.262-.528-1.277-1.196-1.285-2.153.27-.058.168.07.25.2.207.351.367.789.746.996.039-.38-.02-1.043.297-1.293.05.625-.188 1.414.351 1.89l.594-2.09c.063.489.281 1.016.05 1.493.212.172.688-.735.9-.797-.051.41-.29.789-.54 1.098-.25.308-.347.18-.43.367-.078.187-.18 1.047-.117 1.125 1.676-1.293 1.606-.633 1.493-2.79l.449 1.098.945-1.195c-.047.84-.59 1.36-.996 2.09.629-.05 1.246-.426 1.691-.848.45-.418.34-.664.598-.496l-.695 1.246 1.594-.5c-.989 1.344-2.989.637-4.235 1.594-.984.758-.637 1.414.102 2.191.969-1.308.84-.18 1.144-2.18.45-.132-.02 1.153.348.993.371-.156 1.555-1.383 1.644-1.293.07.32-.898 1.066-.898 1.144.25.309.688.051.996.2-.379.457-1.023.12-1.492.3-1.035.582-1.48 1.446-.656 2.32.566-.46 2.398-.84 2.687-1.484.29-.648-.18-1.914.25-2.59l.266 1.575.23.27c.121-.302.567-.68.657-.95.16-.477-.278-1.543.34-2v1.395l.757-1.086.535-.508-.597 1.394 1.246-.496c.148.239-.489.586-.707.684-.219.101-.719.16-.805.242-.09.078-.281.707-.43.863.856-.129 1.473-.547 2.04-1.195l-.348.898 1.097-.25c-.757.797-1.972.579-2.93 1.157-.952.578-.753 1.054-1.253 1.433 1.195.746 1.715-.289 2.687-.746l-.797 1.094 1.344-.398c.07.417-.855.757-1.242.847-1.594.387-2.77-.48-4.23.746-.442.367-.641.817-.997 1.196-.57.605-1.87 1.492-1.625 2.41l.637 1.261c.906-.449 5.184-.164 3.824-1.941-.207-.129-1.105-.27-1.273-.297-.441.07-1.27-.008-1.504-.558l1.094.199c.05-.031-.606-.778-.348-.996.528.707 1.008 1.035 1.942.898-.188-.242-.02-.7-.118-.879-.101-.18-1.035-.625-.879-1.215l.848.797c.18-.008.277-1.285.547-.996-.14.219-.227 1.485.148 1.395.34-.336.461-.657.63-1.075.167-.417-.06-.27.218-.218.07.785-.308 1.363-.766 1.941l.618.844c.129 0 1.043-1.582 1.242-1.84.48-.586 2.133-1.844 2.094-2.578-.04-.738-.528-.988-.301-1.555l.597 1.098.5-1.695c.32.058-.117 1.18 0 1.496.2.218.825-.797 1.094-.649-.09.617-1.066.996-1.265 1.274-.2.28-.16.906-.426 1.164 2.48-.649 1.328-1.215 2.387-2.586l-.2 1.492c.215.309 1.82-1.879 1.793-1.344l-.695 1.145 1.492-.149c-.707.758-1.87.22-2.39 1.043.687-.066 1.433.192 2.093-.047.657-.238.664-.867 1.082-1.046l-.394.894 1.191-.246-1.492.844 1.293.3c-.727.368-1.441-.101-2.04-.148a9.5 9.5 0 0 0-2.937.246c-.18.18 1.653.758 1.891.399v.199c-.887.57-1.96-.149-2.727-.09-.765.062-2.05 1.324-2.043 2.094.391-.14.797-.063 1.196-.14.637-.13 1.164-.587 1.793-.747l-.895.996c.387.11.817.188 1.192 0 .21.266-.774.457-.953.457-.946.02-1.125-.238-2.192.219-1.066.457-.957 1.105-1.574 1.812-2.43 2.352-6.711 1.164-7.715 5.766 3.672-1.54 3.856-2.613 8.215-2.203.527-.078 1.969-1.152 1.941-1.723-.03-.566-.379-1.363-.418-1.422-.12-.191-1.015-.476-.867-1.125l.695.598c.04-.2.079-1.16.301-1.098-.011.47.02 1.028.348 1.395.41-.469.766-.926.797-1.594.75 1.05-1.028 1.977-.098 2.59.406-.438.734-1.004 1.145-1.441.406-.442 1.261-1.016 1.343-1.149.176-1.148.66-2.402 1.594-3.183.168.207-.531 1.234-.45 1.292.747-.039 1.267-.597 1.743-1.093.098.277-.328.843-.547 1.043-.597.558-1.515.46-1.394 1.543 2.508-.657 2.672-.93 3.664-2.965.031-.344-.207-1.52.031-1.91l.297 1.59.945-.997c.25.489-1.543 2.172-1.242 2.493 1.172-.41 1.84-1.325 2.535-2.293-.008.64-.406 1.195-.746 1.695.59-.04 1.078-.398 1.563-.68.488-.277.25-.218.332-.066-.918 1.441-2.899 1.062-3.883 2.437h2.14c.086 0 .844-.277.934-.359.348-.29.668-1.164 1.156-1.434l-.398 1.196 2.14-1.196c.098.34-.937 1.036-.898 1.098l1.895.246c-.618.512-1.895.176-2.489.102-.25.058-.558.449-.898.457.363.543 3.027.215 3.586.3-.559.41-1.434.336-2.094.497l.996.797c-.687.269-1.262-.688-1.562-.778-2.375-.418-7.227-.133-8.79 2.07 2.516.196 2.063.075 4.458-.863.757-.222 1.543-.199 2.21-.379.668-.18.598-.527.997-.55l-.399.699 1.594.297c-.5.37-2.754-.332-2.688.199.508.02 1.305.699 1.743.699h1.492c.02 0 .18-.21.25-.05-.387.41-1.067.456-1.594.448.277.438.895.696 1.395.797-.454.516-1.793-.355-2.09-.75-.39-.246-1.793-.746-2.242-.754-.786-.02-1.602.875-2.329 1.106.422.488 1.434.652 2.04.707.359-.012 1.027-.79 1.644-.707l-.7.695 1.497.301-2.192.2c.56.573 1.465.644 2.192.894.035.226-1.09.05-1.297.097l.3 1.098c-.507-.11-.636-1.117-.796-1.246s-1.227-.676-1.293-.695c-1.543-.09-2.414-1.051-4.035-.946-1.344.098-1.461.418-1.942 1.493.688-.23 1.286.398 1.844.398.559 0 1.024-.41 1.543-.398l-.797.648c0 .227.906.137 1.094.148-.168.309-.707.329-1.043.297-1.187-.09-2.082-.535-3.285 0-.738.328-1.098 1.106-1.844 1.446-1.445.668-2.648-.22-4.281 1.093-.16.13-1.453 1.407-1.293 1.543 3.465-.902 3.57-.633 6.808.211 1.118-.004 4.317-.644 3.786-2.199-.2-.32-1.137-.68-.946-1.395l.746.797.247.098c.082-.059.101-.934.398-.996l.102 1.394c.097.102.875-.23 1.023-.316.988-.55.371-1.148.668-2.074.309.09.074 1.027.348 1.297l.949-1.395c.445.297-.488 1.403-.598 1.793l1.39-.25c-.464.707-1.37.528-1.98.805-.98.582-1.492.773-1.691 1.633 1.883-.098 3.187-1.414 4.879-2.04.36-.828.715-1.195 1.543-1.542l.25-1.297c.363-.27.136.918.199 1.097.465-.058.797-.43 1.094-.746.297-.32.219-.539.277-.12-.308 1.472-2.078 1.195-2.367 2.46.644.13 2.828-.36 3.176-.86.27-.394.367-1.19.855-1.53.258-.02.11.039.07.167-.12.41-.328.797-.418 1.215l1.993-.894c-1.114 1.504-3.418 1.629.148 1.594.09 0 .36-.192.547-.102-1.48 1.285-3.238-.14-3.984.887 1.832.656 2.484.312 4.28.011l-1.19.645 1.39.746c-.695.242-1.59-.516-2.058-.574-.47-.063-1.145.129-1.672.078-1.426-.387-3.22-.758-4.532.25 1.184.328 2.5 1.492 3.782 1.105 1.285-.39.789-.968 1.285-.808l-.598.746 1.793-.496c-.289.508-.914.605-1.394.847l1.593.446c-.836.41-1.773-.188-2.437-.2-.668-.007-.906.231-1.395.2-1.742-.293-3.234-1.5-5.027-.297-.063.238.039.16.129.219.457.316 1.62.894 2.16.734.535-.156.797-.676 1.195-.508l-.597.551 1.394-.102c-.21.34-.75.368-1.097.5-.137.2.789.805.898.993-.926-.04-1.215-1.153-2.191-.895-.051.656.515.977.894 1.395-.805.187-1.285-1.215-1.492-1.344-3.594-1.871-4.504.09-7.766.547-.289.238 1.266.676 1.395.695-.63.617-1.785.559-2.52.18-.418-.207-.816-.817-1.254-.934-1.476-.39-3.714 1.055-4.59 2.2.762 10.136 2.336 25.605 1.813 34.519.836.867 2.098 1.574 3.313 1.664 1.214.09 2.011-.281 3.066.02 1.008.289 1.633 1.222 2.57 1.613 1.531.637 3.703.137 5.078 1.344-1.464-.063-2.976.078-4.43 0-2.757-.153-5.456-1.286-8.214-.7.05.664 3.398.926 4.281 1.743 1.305.898.348.25.258.34-1.942-.348-3.832-.438-5.746-.926-1.274-.329-3.594-1.344-4.809-.965s-.18-.063-.136.199c1.113.687 2.566.805 3.484 1.789-1.106-.187-2.223-.328-3.305-.625-1.086-.3-2.61-1.094-3.219-1.074-.605.02-.585.18-.636.476-.098.637 1.715 1.446 1.472 1.723l-2.546-.894-3.13.894c.34-.707 2.044-1.156 2.254-1.781.575-1.621-7.46 1.492-8.562 1.195-2.562.168-.469.067-.45-.101 1.286-.836 2.747-1.196 4.18-1.692-.02-.14-.136-.172-.246-.191-3.574-.45-7.316 1.062-10.793 1.496-.101-.07 1.332-.79 1.461-.88.13-.089.192.02.13-.218l-7.567.3c.379-.378 1.058-.577 1.574-.769.52-.187 1.852-.703 2.488-.793 1.446-.199 2.621.368 4.035-.25 3.254-2.43 4.211-.136 6.93-1.683-.652-11.805.684-23.754 1.215-35.574-.09-.72-2.371-2.012-3.059-2.121-1.003-.16-1.812.199-2.937-.051-1.125-.246-2.05-1.106-2.527-1.133-.758-.05-1.844 1.133-2.73.617-.888-.52.558-.36.737-.469.25-.148.438-.437.668-.629-.937-.347-2.004-.187-2.988-.308-.23.062-.894.648-1.047.86-.336.445-.406 1.093-1.043 1.292l.399-.996c-.48.258-1.067.25-1.594.149.805-.38 1.863-.457 2.191-1.442-.43.008-.777-.172-1.226-.082-.66.137-1.992 1.563-2.559.879.707-.191 1.254-.687 1.793-1.145l-.855-.351c-.547-.04-1.535.61-1.832 1.047-.301.437-.309 1.047-.899 1.144l.399-.894c-.496.246-1.024.457-1.594.398l1.387-.758.707-.687c-.41-.078-.887-.098-1.098-.547.945.535 3.36-.348 1.414-.766-1.504-.55-1.512.747-2.477 1.344-.968.598-.816.317-1.226.317.566-.375 1.668-.887 1.691-1.582-.816.168-1.632.308-2.468.128s-.516-.078-.516-.218c.316.031 1.871-.098 1.992-.348-.5-.238-1.047-.559-1.195-1.144 2.176 1.21 1.324.875 3.582.695-.531-.543-1.879-1.195-1.84-1.98l1.344.894.297-1.094.09 1.344c.257.184 3.593 2.703 3.374 1.71-.187-1.151-1.203-1.1-1.769-1.91l1.59.548-.2-1.094c.462-.059.54 1.187.68 1.465.149.398.606 1.125.817 1.273.207.149 1.113.227 1.441.25.328.02.66.078.55-.152-.37-.824-1.573-.516-1.694-1.442l.996.496c.058-.07-.387-.886-.149-1.093.309.36.399.984.946 1.093l.347-1.195c.34.52.07 1.098-.039 1.625.488.777 1.285.496 2.02.567.738.07 1.168.14 1.742.199.09-1.434-1.64-.797-1.89-1.992.37.23.737.527 1.195.5l-.2-1.098.739.887.554-.985c.133.457 0 .957-.277 1.344.816.648.527 1.344 1.535 1.82 1.48.707 2.926 0 4.469.11s1.156.261 1.742.3c-.195-.546-2.402-2.55-2.758-2.867-.547-.32-1.672-.379-2.328-.558-1.008-.278-3.226-1.196-4.133-1.145-.906.05-1.254.496-1.922.578-.668.078-1.343.117-1.71-.37.765.062 1.57-.06 2.187-.548-3.086-1.488-3.613.7-6.172.45l1.293-.497c0-.16-1.133-.46-.894-.699.855.348 1.64.457 2.457-.078.816-.539.18.008.132-.219-.578-.05-1.386-.507-1.953-.488-1.035.336-2.062 1.137-3.433.676l1.62-.418.766-.477c-.406.07-1.015-.289-1.343-.289-.684.14-1.508.461-2.239.188.028-.246 1.395-.274 1.692-.399l-.895-.746-.3-.449c.812.441 1.906 1.129 2.788 1.086-.585-.488-1.093-1.016-1.394-1.742.16-.207.168.011.23.082 1.004 1.094.934.972 1.016-.531.918 1.332-1.242 1.898 2.637 2.492.23-.086-2.246-2.094-1.742-2.094l1.246.797c.047-.399-.153-.774-.192-1.153-.039-.378.02-.14.192-.14.508 1.09.148 1.871 1.343 2.488 1.223.887 4.43 1.055 6.043 1.324 1.286.22 2.547.63 3.864.668.039-.039-.13-.996-.211-1.136-.266-.477-2.13-1.106-2.668-1.106-.535 0-1.242.73-1.801.2l1.094-.247c.062-.23-.04-.16-.13-.23-.218-.168-.546-.27-.667-.567.668.149 1.285.508 1.992.399l-.695-1.195c.097-.122 1.195 1.085 1.351 1.183.461.27 1.067.219 1.524.508.492-2.25-2.531-2.688-4.11-2.258-1.324.418-.867.637-1.574 1.512s-.629.707-.894.597c.476-.386.664-.996.894-1.542-.07-.051-1.074.07-1.226.117-.625.531-1.442 1.199-2.36 1.078l1.125-.617.57-.578c-.488-.094-1.535-.153-1.792-.5 1.492-.098 3.363.21 4.578-.793-.399-.012-.926-.43-1.262-.48-.914.066-2.508.683-3.316-.22.855.13 1.652 0 2.488-.199-.278-.207-.996-.785-1.293-.855-.3-.07-1.734.738-2.39.257l1.593-.546c-.61-.168-1.254-.43-1.691-.895l1.789.445c-.317-.457-.774-.894-.797-1.492.68.707 1.297 1.524 2.242 1.89-.066-.35-.8-1.812-.348-1.89.508 1.313 1.094 2.469 2.54 2.887l-.36-1.035-.687-1.106c-.02-.078.101-.058.148-.05.727.23 1.277 1.882 2.14 2.34.868.46 2.97.23 4.192.84-.39-1.036-2.785-1.56-3.285-2.141-.535-.18-1.305.128-1.793-.399l1.195-.05c-.238-.18-.555-.848-.726-.965-.168-.122-.536-.153-.778-.282-.238-.129-1.082-.855-.484-.605.594.246.945.508.984.457l-.398-1.344.199-.05c.316.956.887 1.831 1.742 2.39l-.648-1.89c.261-.063.18.077.261.187.208.258.329.586.586.804l.747-.792c.078.386-.547.914-.56 1.144.165 1.215 1.786 1.703 2.802 2.04.398.12.02-.825-.051-.915s-1.652-1.016-1.395-1.266l1.395.696-.3-1.043.198-.051.75 1.395.645-.899c.129.57-.516 1.195-.496 1.625.05.836.469 1.313.715 1.992.25.676.199 1.184.578 1.762 2.195-.961-.367-2.855 0-4.371l.547 1.195.597-1.496-.148 1.195.996-.597c.18.218-.809 1.027-.984 1.156l.484 1.234c.2.16.809-2.039 1.098-2.09l-.2 1.493c.13.14.825-.36.946-.496.18.644-.977.824-1.196 1.093-.218.27-.347 1.274-.648 1.684.36.039.738.2 1.098.05.359-.152.707-.948.945-1.046.238-.102.187.02.148.148l-.496.946 1.492-.348c-.468.547-1.203.719-1.89.848l1.094.695c-.668.25-1.196-.406-1.641-.488-.68-.13-1.676-.078-1.785.777.23 2.578 3.902 2.406 5.625 3.656.36-.43.668-.937 1.047-1.355s1.164-1.016 1.355-1.336c.348-1.692-3.144-2.266-3.933-3.742-.875-1.227-.368-2.5-1.344-3.535-1.215-1.274-2.27-.926-3.824-1.157-1.555-.226-2.739-.883-4.172-1.203-.508-.121-1.364-.328-1.563-.867.54.32 1.164.488 1.793.5-.3-.379-.789-.856-.648-1.395a3.97 3.97 0 0 0 1.941 1.692c.008-.246-.867-1.41-.406-1.395.844 1.805 2.558 2.075 4.379 1.992-1.149-1.332-3.996-1.148-4.43-3.183.129.176 1.293 1.254 1.442 1.094.148-.27-.442-1.52-.098-1.383l.617 1.672 1.074.316c-.347-.664-.765-1.402-.644-2.187.914 2.546 3.504 3.332 5.523 4.777.149-.926.281-1.402-.496-2.04-.914-1.007-2.656-.382-3.187-1.433.507.239 1.027.356 1.593.297l-.25-.797c.7.938 1.782 1.157 2.688 1.793.39.117-.117-1.183.351-1.097l.297 1.793c.785-.239.657-1.004 1.094-1.493l-.098 1.094.746-.598c-.12 1.899-2.972.086-1.304 5.18.535.942 1.398 1.582 1.445-.05-.05-.715-1.016-1.794-.398-2.438-.012.379.105.96.398 1.191.02-.527.149-1.273.598-1.59l-.2.997c.286.164.833-.758.797-.352l-.789.918.18 1.223c.309.27 1.008-1.133 1.246-1.293l-.348 1.195.993-.3c-.258.648-1.082.55-1.453.886-.368.34-.528.898-.399 1.105.133.211 1.664.649 1.984.809.317.156 1.243.914 1.48.863 2.114-1.09.173-2.515-.874-3.574-3.688-4.023-.64-5.695-6.422-6.121-.785-.172-.738-.309-1.055-.348-.925-.101-1.554.227-2.597-.289-.192-.101-.75-.41-.578-.617.707.484 1.601.527 2.437.496-.387-.516-1.113-.957-1.043-1.691.567.863 1.473 1.394 2.438 1.691l-.797-1.84.199-.05c.957 1.843 1.543 2.277 3.586 2.289-1.149-1.805-2.484-1.485-2.79-2.79.192.141 1.095.946 1.294.797-.137-.379-.399-1.222-.098-1.492.117.735.953 2.371 1.594 2.38l-.2-2.29c.29-.05.16.07.208.227.05.16.27 1.367.437 1.355l.95-1.395c-.31 2.313-2.032 1.528.347 3.883.637-.465.02-1.164-.05-1.84-.071-.68-.079-1.195.3-1.445v1.098c.406 0 .465-.551.793-.7.023.212-.078.399-.176.567-.39.66-.57.41-.12 1.324.089.07.886-.535.995-.644.996-.946.239-.766-.277-1.516-.52-.746-.3-.465-.32-.727l1.046.997.247-.149v-1.433Zm0 0"/></g></svg>