<svg xmlns="http://www.w3.org/2000/svg" width="1024" height="1024" version="1.0" viewBox="194.6 187.1 393.8 393.8"><defs><clipPath id="a"><path d="M229 204.96h325v357.75H229Zm0 0"/></clipPath><clipPath id="b"><path d="M315.527 292.707h147v161.25h-147Zm0 0"/></clipPath></defs><path fill="#c77b3c" d="m545.813 257.68-154.29-47.922-154.218 47.922S199.77 498.285 391.523 558.309c191.825-60.024 154.29-300.63 154.29-300.63m0 0"/><path fill="#c77b3c" d="m391.523 559.027-.214-.07c-43.91-13.754-79.368-38.11-105.368-72.562-20.843-27.508-35.671-61.387-44.195-100.786-14.469-66.972-5.3-127.5-5.23-128.074l.07-.43 154.937-48.132.215.07 154.719 48.062.074.43c.07.574 9.239 61.031-5.23 128.074-8.524 39.399-23.352 73.278-44.196 100.786-26 34.382-61.457 58.808-105.367 72.562ZM237.95 258.254c-.789 5.586-8.453 63.39 5.301 127.14 8.453 39.184 23.207 72.922 43.91 100.211 25.785 34.098 60.957 58.31 104.434 71.918 43.48-13.683 78.652-37.894 104.437-71.988 20.7-27.363 35.457-61.101 43.91-100.281 13.754-63.754 6.086-121.559 5.301-127.145l-153.719-47.632Zm0 0"/><g clip-path="url(#a)"><path fill="#c77b3c" d="M553.262 296.145c-.5-23.567-2.793-38.536-2.934-39.11l-.43-2.793-157.8-49.14-.504-.141-158.371 49.207-.43 2.797c-.074.644-2.367 15.683-2.938 39.11-.503 21.702.57 54.937 8.165 90.323 8.597 39.97 23.71 74.352 44.84 102.29 26.503 35.027 62.605 59.882 107.304 73.921l1.36.43 1.359-.43c44.699-13.968 80.8-38.824 107.305-73.922 21.128-27.937 36.242-62.39 44.84-102.289 7.663-35.312 8.667-68.62 8.234-90.253m-161.739-81.657 150.137 46.63c1.574 12.679 6.95 65.468-5.515 123.347-8.31 38.61-22.852 71.844-43.192 98.707-25.074 33.164-59.168 56.8-101.36 70.27-42.187-13.47-76.214-37.106-101.284-70.2-20.34-26.86-34.883-60.027-43.262-98.633-7.524-34.457-8.524-66.902-8.094-88.105.356-17.121 1.719-29.727 2.434-35.313Zm0 0"/></g><g clip-path="url(#b)"><path fill="#1a2740" d="M390.777 292.836c1.094 1.187 1.047 3.469.715 4.992.38.402 2.73-2.59 3.09-2.851-.055 1.718-1.723 2.878-2.379 4.277.625.23 2.54-.79 2.617 0-1.64.996-3.09.262-4.636 1.426-2.211 1.687-4.848 4.468-2.375 7.129.52-1.141 2.02-1.45 2.73-2.258.715-.809.977-2.375 1.785-3.207l-.36 2.613 3.09-1.426c-.425 1.211-1.71 1.688-2.613 2.496l1.664 1.07-3.02-.07c-2.495 1.614-2.589 3.563-.237 5.274.12 0 1.832-1.02 1.949-1.164.36-.356.57-1.14.953-1.664.379-.524 1.734-1.758 1.52-1.094l-1.188 2.496 4.277-1.664-2.613 2.496 2.14.832c-1.023.668-2.64-.547-3.378-.426-.735.117-1.828 1.02-1.973 1.614-.14.597 3.02 2.472 3.59 2.804 2.07-2.73 6.773-2.828 4.852-7.152-1.38-3.067-3.711-1.64-5.684-3.828 1.191.097 2.355.691 3.566.238-.214-2.71-3.875-2.945-3.683-5.824.879.785 1.664 2.07 2.969 2.14-.094-1.285.597-2.164-.024-3.421-.617-1.262-3.039-2.852-3.066-5.137.644-.14.406.168.597.476.496.832.88 1.88 1.782 2.38.093-.907-.047-2.497.71-3.09.122 1.496-.449 3.375.833 4.515l1.43-4.992c.14 1.164.663 2.426.116 3.566.5.403 1.641-1.761 2.141-1.902-.121.973-.691 1.879-1.285 2.613-.594.739-.832.43-1.024.88-.187.452-.425 2.495-.285 2.687 4.008-3.09 3.832-1.512 3.567-6.657l1.07 2.618 2.258-2.856c-.113 2.004-1.406 3.25-2.38 4.992 1.5-.117 2.974-1.023 4.044-2.02 1.07-1 .808-1.593 1.426-1.187l-1.664 2.97 3.804-1.188c-2.355 3.21-7.132 1.52-10.101 3.804-2.356 1.805-1.524 3.375.234 5.227 2.313-3.117 2.004-.426 2.735-5.203 1.07-.309-.047 2.757.832 2.375.878-.38 3.707-3.305 3.921-3.09.168.762-2.14 2.543-2.14 2.734.597.738 1.64.117 2.379.477-.903 1.094-2.45.285-3.567.71-2.468 1.395-3.535 3.458-1.566 5.54 1.351-1.094 5.726-1.996 6.418-3.543.687-1.543-.43-4.563.594-6.18l.64 3.758.547.64c.285-.714 1.356-1.617 1.567-2.257.382-1.14-.665-3.684.808-4.778v3.329l1.809-2.594 1.28-1.211-1.425 3.328 2.973-1.188c.355.57-1.164 1.403-1.688 1.641-.523.234-1.71.379-1.925.57-.215.188-.665 1.688-1.024 2.067 2.047-.309 3.52-1.309 4.875-2.852l-.832 2.137 2.613-.594c-1.804 1.903-4.707 1.38-6.988 2.758s-1.805 2.52-2.996 3.422c2.855 1.785 4.09-.688 6.418-1.781l-1.899 2.613 3.208-.95c.168 1-2.043 1.805-2.973 2.02-3.8.926-6.606-1.14-10.102 1.785-1.043.88-1.52 1.95-2.375 2.852-1.355 1.45-4.468 3.562-3.875 5.75l1.524 3.02c2.152-1.075 12.367-.391 9.125-4.637-.5-.309-2.637-.64-3.043-.711-1.055.168-3.031-.02-3.59-1.332l2.617.476c.117-.07-1.45-1.855-.832-2.379 1.258 1.688 2.399 2.473 4.633 2.141-.45-.57-.047-1.664-.285-2.09-.239-.43-2.473-1.5-2.09-2.902l2.02 1.902c.43-.023.663-3.066 1.308-2.375-.332.52-.547 3.54.356 3.324.808-.804 1.093-1.566 1.496-2.566.406-.996-.141-.64.523-.523.168 1.879-.734 3.257-1.828 4.636l1.473 2.02c.308 0 2.496-3.777 2.972-4.399 1.14-1.402 5.086-4.394 4.988-6.156-.093-1.758-1.257-2.351-.71-3.707l1.425 2.617 1.188-4.043c.77.141-.277 2.817 0 3.567.476.523 1.973-1.903 2.613-1.547-.21 1.476-2.543 2.379-3.015 3.043-.477.668-.383 2.164-1.024 2.781 5.922-1.55 3.172-2.902 5.703-6.18l-.472 3.567c.503.738 4.343-4.485 4.277-3.211l-1.664 2.734 3.566-.355c-1.687 1.805-4.469.523-5.707 2.496 1.64-.168 3.426.45 4.992-.121 1.57-.57 1.594-2.067 2.59-2.496l-.949 2.14 2.852-.593-3.563 2.02 3.09.714c-1.738.879-3.45-.238-4.875-.36-2.277-.195-5.149.094-7.012.598-.426.426 3.945 1.805 4.516.95v.476c-2.113 1.352-4.68-.36-6.512-.215-1.832.14-4.894 3.16-4.871 4.992.926-.336 1.898-.144 2.852-.336 1.52-.308 2.78-1.402 4.277-1.78l-2.14 2.378c.929.262 1.949.45 2.855 0 .496.64-1.856 1.09-2.285 1.09-2.258.05-2.684-.57-5.227.523-2.543 1.094-2.281 2.641-3.758 4.329-5.804 5.617-16.027 2.78-18.418 13.761 8.766-3.676 9.203-6.238 19.61-5.254 1.257-.191 4.703-2.757 4.632-4.113-.07-1.352-.902-3.254-.996-3.398-.285-.45-2.425-1.141-2.07-2.684l1.664 1.426c.09-.477.184-2.774.715-2.613-.024 1.117.047 2.445.832 3.324.973-1.117 1.828-2.207 1.898-3.801 1.793 2.508-2.449 4.71-.234 6.18.973-1.047 1.758-2.403 2.73-3.446.977-1.047 3.02-2.425 3.211-2.734.426-2.746 1.579-5.742 3.801-7.606.406.497-1.258 2.946-1.066 3.09 1.781-.097 3.015-1.425 4.156-2.617.238.668-.781 2.024-1.305 2.496-1.425 1.332-3.613 1.094-3.328 3.684 5.989-1.57 6.38-2.219 8.746-7.082.078-.82-.488-3.621.07-4.563l.716 3.801 2.257-2.375c.594 1.164-3.683 5.18-2.972 5.941 2.804-.972 4.398-3.16 6.062-5.464-.023 1.52-.976 2.851-1.781 4.039 1.402-.094 2.566-.95 3.73-1.618 1.164-.664.594-.523.786-.164-2.188 3.446-6.918 2.543-9.27 5.825h5.11c.214 0 2.019-.668 2.234-.86.832-.687 1.594-2.777 2.758-3.422l-.954 2.852 5.114-2.852c.234.809-2.235 2.473-2.14 2.618l4.515.593c-1.465 1.215-4.516.418-5.942.239-.593.14-1.332 1.066-2.14 1.09.87 1.3 7.23.511 8.558.714-1.328.98-3.422.805-4.992 1.188l2.375 1.902c-1.637.64-3.016-1.64-3.73-1.855-5.672-1-17.254-.32-20.989 4.945 6.008.465 4.934.172 10.649-2.066 1.808-.524 3.683-.477 5.277-.907 1.594-.425 1.426-1.257 2.375-1.304l-.95 1.664 3.806.71c-1.192.883-6.579-.792-6.418.477 1.21.047 3.113 1.664 4.16 1.664h3.562c.047 0 .43-.5.594-.12-.926.976-2.543 1.093-3.8 1.07.663 1.046 2.14 1.664 3.327 1.902-1.078 1.234-4.285-.848-4.992-1.781-.926-.594-4.277-1.786-5.347-1.809-1.88-.047-3.829 2.094-5.563 2.64 1.008 1.173 3.426 1.563 4.871 1.688.856-.023 2.45-1.879 3.922-1.687l-1.664 1.664 3.566.71-5.226.477c1.328 1.38 3.492 1.543 5.226 2.137.086.543-2.601.125-3.09.238l.715 2.617c-1.214-.261-1.523-2.664-1.902-2.972-.379-.309-2.926-1.617-3.09-1.664-3.676-.215-5.762-2.508-9.625-2.258-3.21.238-3.496 1-4.637 3.566 1.641-.547 3.067.95 4.399.95 1.328 0 2.445-.973 3.683-.95l-1.902 1.543c0 .547 2.164.332 2.613.36-.402.734-1.687.78-2.496.71-2.828-.214-4.965-1.28-7.843 0-1.758.786-2.614 2.641-4.395 3.446-3.445 1.594-6.324-.52-10.223 2.617-.379.309-3.468 3.352-3.09 3.684 8.282-2.16 8.532-1.516 16.258.5 2.664-.008 10.301-1.536 9.036-5.254-.477-.762-2.711-1.617-2.262-3.328l1.785 1.902.594.238c.191-.144.238-2.234.949-2.379l.238 3.328c.238.239 2.094-.546 2.45-.761 2.351-1.305.878-2.73 1.593-4.942.735.211.168 2.45.832 3.09l2.258-3.328c1.066.707-1.16 3.348-1.426 4.277l3.324-.593c-1.117 1.687-3.277 1.261-4.726 1.925-2.344 1.387-3.57 1.84-4.043 3.899 4.492-.238 7.605-3.375 11.648-4.875.856-1.973 1.711-2.852 3.684-3.684l.594-3.09c.875-.648.332 2.192.476 2.618 1.117-.145 1.899-1.024 2.614-1.786.714-.761.523-1.28.664-.285-.735 3.52-4.965 2.852-5.657 5.871 1.547.309 6.75-.855 7.582-2.043.645-.953.88-2.851 2.047-3.66.617-.047.258.094.164.403-.285.976-.785 1.902-.996 2.902l4.754-2.14c-2.652 3.59-8.156 3.886.356 3.804.214 0 .855-.453 1.304-.238-3.531 3.066-7.726-.336-9.504 2.113 4.368 1.57 5.922.746 10.22.023l-2.852 1.547 3.328 1.782c-1.664.57-3.805-1.235-4.922-1.38-1.117-.14-2.735.31-3.992.192-3.399-.922-7.684-1.812-10.817.594 2.828.785 5.969 3.566 9.035 2.637 3.063-.926 1.875-2.305 3.063-1.922l-1.426 1.78 4.281-1.187c-.691 1.211-2.187 1.45-3.328 2.02l3.801 1.07c-1.996.973-4.23-.453-5.82-.476-1.594-.024-2.164.547-3.328.476-4.16-.707-7.715-3.582-12.004-.715-.145.57.093.383.308.524 1.094.762 3.875 2.14 5.156 1.758 1.286-.38 1.903-1.614 2.856-1.211l-1.43 1.308 3.328-.238c-.496.809-1.78.879-2.613 1.188-.332.476 1.879 1.925 2.14 2.378-2.21-.097-2.902-2.757-5.23-2.14-.117 1.566 1.235 2.328 2.14 3.328-1.925.45-3.065-2.902-3.565-3.211-8.579-4.46-10.75.219-18.54 1.309-.691.57 3.02 1.617 3.329 1.664-1.5 1.472-4.258 1.332-6.016.425-.996-.496-1.95-1.949-2.996-2.234-3.516-.926-8.863 2.52-10.957 5.254 1.82 24.2 5.578 61.129 4.328 82.406 1.996 2.07 5.016 3.758 7.914 3.969 2.898.215 4.8-.664 7.32.05 2.403.688 3.899 2.923 6.133 3.848 3.66 1.524 8.844.332 12.121 3.211-3.492-.144-7.105.188-10.574 0-6.586-.359-13.027-3.066-19.61-1.664.126 1.578 8.11 2.211 10.22 4.16 3.113 2.137.831.594.617.809-4.633-.832-9.149-1.047-13.715-2.21-3.043-.786-8.578-3.212-11.48-2.31-2.9.907-.427-.14-.333.477 2.664 1.64 6.133 1.926 8.32 4.277-2.64-.449-5.3-.78-7.89-1.496-2.594-.715-6.227-2.613-7.68-2.566-1.449.047-1.402.426-1.52 1.14-.238 1.52 4.087 3.446 3.516 4.114l-6.082-2.14-7.465 2.14c.809-1.688 4.875-2.758 5.372-4.258 1.378-3.867-17.805 3.566-20.442 2.855-6.105.403-1.117.165-1.066-.238 3.062-1.996 6.558-2.851 9.98-4.043-.047-.332-.332-.402-.594-.449-8.53-1.074-17.46 2.527-25.765 3.563-.238-.165 3.183-1.875 3.496-2.09.308-.215.45.047.308-.524l-18.066.715c.902-.906 2.52-1.379 3.758-1.832 1.234-.45 4.418-1.687 5.941-1.902 3.446-.473 6.25.879 9.625-.594 7.77-5.797 10.063-.324 16.543-4.016-1.554-28.18 1.64-56.707 2.903-84.925-.215-1.711-5.66-4.801-7.297-5.063-2.403-.383-4.328.477-7.016-.121-2.683-.594-4.894-2.637-6.035-2.707-1.805-.121-4.398 2.707-6.512 1.473-2.117-1.235 1.328-.856 1.758-1.118.594-.355 1.047-1.046 1.594-1.496-2.235-.832-4.778-.453-7.133-.738-.547.145-2.137 1.547-2.496 2.043-.809 1.07-.973 2.617-2.496 3.09l.953-2.375c-1.14.617-2.543.594-3.805.355 1.926-.902 4.446-1.093 5.23-3.445-1.023.023-1.855-.406-2.925-.191-1.578.324-4.754 3.726-6.106 2.093 1.688-.453 2.993-1.64 4.278-2.734l-2.043-.832c-1.309-.094-3.66 1.45-4.375 2.496-.711 1.047-.738 2.496-2.14 2.734l.952-2.14c-1.187.594-2.449 1.094-3.804.949l3.304-1.805 1.688-1.64c-.973-.192-2.113-.239-2.613-1.309 2.253 1.281 8.011-.824 3.375-1.828-3.59-1.309-3.614 1.781-5.918 3.207-2.309 1.426-1.95.762-2.926.762 1.347-.903 3.98-2.118 4.043-3.778-1.95.403-3.899.735-5.895.309-2-.43-1.238-.191-1.238-.524.762.07 4.469-.238 4.754-.832-1.188-.57-2.496-1.332-2.852-2.734 5.2 2.89 3.164 2.086 8.559 1.664-1.27-1.297-4.492-2.86-4.399-4.73l3.207 2.14.715-2.617.215 3.211c.617.441 8.57 6.457 8.055 4.086-.45-2.754-2.875-2.637-4.23-4.562l3.804 1.308-.476-2.613c1.101-.14 1.277 2.836 1.617 3.492.355.95 1.449 2.688 1.949 3.043s2.66.547 3.445.594 1.57.191 1.309-.356c-.88-1.972-3.758-1.238-4.043-3.449l2.379 1.191c.14-.168-.926-2.117-.356-2.617.735.856.95 2.356 2.258 2.617l.832-2.855c.805 1.238.164 2.617-.098 3.875 1.165 1.855 3.067 1.191 4.825 1.355 1.761.168 2.781.332 4.16.477.215-3.422-3.922-1.902-4.516-4.754.88.547 1.758 1.258 2.852 1.188l-.473-2.614 1.758 2.114 1.332-2.352c.309 1.094 0 2.281-.668 3.207 1.95 1.547 1.262 3.211 3.66 4.352 3.543 1.687 6.988 0 10.672.261 3.688.262 2.758.618 4.16.711-.469-1.3-5.738-6.09-6.582-6.843-1.308-.762-3.992-.903-5.562-1.332-2.403-.665-7.703-2.852-9.864-2.735-2.164.121-2.996 1.192-4.59 1.379-1.59.191-3.206.285-4.085-.879 1.828.145 3.754-.14 5.226-1.305-7.367-3.554-8.625 1.66-14.734 1.067l3.09-1.188c0-.379-2.711-1.093-2.141-1.664 2.047.832 3.922 1.094 5.871-.187 1.95-1.285.43.023.309-.524-1.38-.12-3.301-1.214-4.657-1.168-2.472.805-4.921 2.72-8.203 1.618l3.875-.997 1.832-1.14c-.976.164-2.425-.692-3.21-.692-1.633.336-3.606 1.102-5.348.454.07-.59 3.328-.653 4.043-.954l-2.14-1.78-.712-1.071c1.934 1.05 4.543 2.691 6.653 2.59-1.403-1.164-2.614-2.422-3.329-4.157.383-.5.407.024.547.188 2.403 2.617 2.235 2.332 2.426-1.258 2.2 3.176-2.96 4.524 6.297 5.942.555-.2-5.363-4.993-4.156-4.993l2.968 1.903c.122-.95-.355-1.856-.449-2.758-.097-.902.047-.332.45-.332 1.214 2.601.359 4.465 3.21 5.941 2.922 2.117 10.575 2.52 14.426 3.16 3.067.524 6.086 1.5 9.223 1.594.094-.094-.309-2.375-.5-2.71-.64-1.141-5.086-2.637-6.367-2.637-1.286 0-2.973 1.734-4.305.476l2.617-.594c.14-.547-.098-.382-.312-.547-.52-.406-1.305-.644-1.59-1.355 1.59.355 3.066 1.21 4.754.95l-1.664-2.852c.238-.286 2.851 2.59 3.23 2.828 1.094.64 2.543.523 3.637 1.21 1.172-5.366-6.04-6.413-9.817-5.394-3.16 1-2.066 1.524-3.753 3.613-1.688 2.094-1.497 1.688-2.141 1.426 1.14-.926 1.594-2.375 2.14-3.683-.167-.118-2.566.168-2.925.285-1.492 1.265-3.442 2.863-5.633 2.566l2.687-1.472 1.356-1.38c-1.164-.222-3.66-.367-4.281-1.187 3.566-.238 8.035.5 10.933-1.902-.949-.024-2.207-1.024-3.015-1.14-2.176.155-5.989 1.628-7.918-.524 2.046.308 3.949 0 5.945-.477-.668-.496-2.379-1.875-3.09-2.043-.715-.168-4.137 1.758-5.707.617l3.805-1.304c-1.45-.407-2.996-1.024-4.043-2.14l4.281 1.07c-.762-1.094-1.855-2.141-1.902-3.567 1.617 1.688 3.09 3.637 5.347 4.516-.16-.844-1.91-4.332-.832-4.516 1.211 3.137 2.614 5.895 6.063 6.895l-.856-2.473-1.64-2.64c-.047-.188.238-.141.355-.118 1.735.547 3.043 4.492 5.11 5.586 2.07 1.094 7.086.547 10.007 1.996-.937-2.469-6.652-3.715-7.843-5.11-1.286-.429-3.114.31-4.278-.952l2.852-.118c-.57-.425-1.332-2.02-1.735-2.304-.406-.285-1.285-.356-1.855-.668-.57-.309-2.59-2.043-1.164-1.45s2.258 1.215 2.351 1.094l-.949-3.207.477-.12c.758 2.28 2.113 4.374 4.156 5.706l-1.543-4.515c.617-.145.43.187.617.449.5.617.785 1.402 1.403 1.926l1.785-1.903c.187.93-1.309 2.188-1.332 2.735.387 2.906 4.258 4.07 6.68 4.87.949.286.046-1.972-.122-2.183-.164-.215-3.945-2.426-3.328-3.02l3.328 1.665-.71-2.496.472-.122 1.785 3.329 1.543-2.137c.309 1.351-1.234 2.851-1.187 3.87.117 2 1.117 3.142 1.71 4.755.594 1.617.477 2.832 1.38 4.207 5.234-2.29-.88-6.817 0-10.434l1.308 2.852 1.426-3.563-.36 2.852 2.38-1.426c.425.524-1.926 2.445-2.352 2.758l1.164 2.945c.473.38 1.926-4.87 2.613-4.992l-.476 3.566c.308.332 1.972-.855 2.257-1.187.43 1.543-2.328 1.973-2.851 2.613s-.832 3.043-1.543 4.016c.855.098 1.758.476 2.613.121.856-.356 1.688-2.258 2.258-2.496s.453.047.356.355l-1.188 2.258 3.566-.832c-1.117 1.309-2.875 1.711-4.515 2.024l2.613 1.66c-1.594.597-2.851-.973-3.922-1.164-1.617-.309-3.992-.188-4.254 1.855.547 6.152 9.317 5.738 13.43 8.723.855-1.024 1.594-2.235 2.496-3.235.902-.996 2.781-2.421 3.23-3.183.833-4.043-7.507-5.41-9.386-8.938-2.094-2.922-.88-5.965-3.211-8.437-2.899-3.043-5.418-2.211-9.125-2.758s-6.54-2.113-9.961-2.875c-1.211-.285-3.254-.785-3.73-2.066a8.7 8.7 0 0 0 4.277 1.187c-.711-.902-1.88-2.043-1.543-3.328 1.094 1.855 2.637 3.207 4.633 4.039.015-.586-2.075-3.363-.973-3.324 2.02 4.3 6.11 4.941 10.457 4.754-2.742-3.18-9.535-2.75-10.578-7.61.309.43 3.09 2.996 3.45 2.618.35-.649-1.063-3.63-.24-3.305l1.474 3.992 2.566.762c-.832-1.594-1.828-3.352-1.543-5.23 2.184 6.085 8.363 7.964 13.191 11.41.356-2.212.664-3.352-1.191-4.872-2.18-2.402-6.336-.91-7.606-3.425 1.215.57 2.45.855 3.805.714l-.594-1.902c1.664 2.234 4.254 2.758 6.418 4.277.926.286-.285-2.828.832-2.613l.711 4.277c1.88-.57 1.57-2.398 2.618-3.562l-.239 2.613 1.782-1.426c-.29 4.532-7.098.204-3.114 12.36 1.274 2.246 3.34 3.781 3.446-.117-.118-1.715-2.422-4.282-.95-5.825-.027.907.25 2.301.95 2.852.046-1.262.355-3.043 1.425-3.805l-.472 2.38c.683.394 1.992-1.81 1.898-.833l-1.875 2.188.426 2.922c.738.64 2.402-2.711 2.973-3.09l-.832 2.851 2.375-.71c-.618 1.542-2.59 1.304-3.47 2.113-.878.808-1.26 2.14-.948 2.64.308.496 3.968 1.543 4.726 1.926.762.379 2.973 2.184 3.543 2.066 5.04-2.605.406-6.007-2.09-8.535-8.804-9.61-1.531-13.601-15.332-14.617-1.879-.402-1.758-.734-2.52-.832-2.21-.238-3.706.547-6.202-.687-.454-.239-1.786-.977-1.38-1.473 1.688 1.164 3.829 1.258 5.825 1.187-.93-1.238-2.664-2.28-2.496-4.043 1.355 2.07 3.515 3.329 5.824 4.043l-1.902-4.398.472-.117c2.285 4.402 3.688 5.441 8.559 5.465-2.738-4.309-5.93-3.54-6.656-6.653.453.332 2.617 2.258 3.09 1.899-.329-.903-.958-2.922-.239-3.563.285 1.754 2.274 5.656 3.805 5.68l-.477-5.469c.692-.117.383.168.5.547.118.383.641 3.258 1.047 3.234l2.258-3.328c-.734 5.516-4.844 3.64.832 9.27 1.52-1.117.047-2.781-.121-4.399-.164-1.613-.188-2.851.715-3.445v2.613c.972 0 1.117-1.304 1.902-1.664.047.5-.191.953-.43 1.356-.925 1.57-1.355.976-.285 3.164.215.164 2.118-1.285 2.38-1.547 2.374-2.258.57-1.832-.669-3.613-1.234-1.782-.71-1.118-.758-1.735l2.493 2.375.597-.355v-3.422Zm0 0"/></g></svg>