<svg xmlns="http://www.w3.org/2000/svg" xmlns:xlink="http://www.w3.org/1999/xlink" width="800" zoomAndPan="magnify" viewBox="-0.2 -3.8 384.5 157.7" height="200" preserveAspectRatio="xMidYMid meet" version="1.0"><defs><g/><clipPath id="d0269e626c"><path d="M 11 9.160156 L 140 9.160156 L 140 150 L 11 150 Z M 11 9.160156 " clip-rule="nonzero"/></clipPath><clipPath id="655730e1b0"><path d="M 45.613281 43.671875 L 103.363281 43.671875 L 103.363281 106.671875 L 45.613281 106.671875 Z M 45.613281 43.671875 " clip-rule="nonzero"/></clipPath></defs><g fill="#faf8f4" fill-opacity="1"><g transform="translate(167.727007, 94.67271)"><g><path d="M 20.671875 0.546875 C 17.191406 0.546875 14.0625 -0.25 11.28125 -1.84375 C 8.507812 -3.445312 6.316406 -5.75 4.703125 -8.75 C 3.097656 -11.757812 2.296875 -15.382812 2.296875 -19.625 C 2.296875 -23.875 3.097656 -27.503906 4.703125 -30.515625 C 6.316406 -33.535156 8.507812 -35.84375 11.28125 -37.4375 C 14.0625 -39.039062 17.191406 -39.84375 20.671875 -39.84375 C 24.148438 -39.84375 27.273438 -39.039062 30.046875 -37.4375 C 32.816406 -35.84375 35.003906 -33.535156 36.609375 -30.515625 C 38.222656 -27.503906 39.03125 -23.875 39.03125 -19.625 C 39.03125 -15.382812 38.222656 -11.753906 36.609375 -8.734375 C 35.003906 -5.722656 32.816406 -3.421875 30.046875 -1.828125 C 27.273438 -0.242188 24.148438 0.546875 20.671875 0.546875 Z M 20.671875 -6.59375 C 22.710938 -6.59375 24.492188 -7.09375 26.015625 -8.09375 C 27.546875 -9.09375 28.738281 -10.5625 29.59375 -12.5 C 30.445312 -14.445312 30.875 -16.820312 30.875 -19.625 C 30.875 -22.4375 30.445312 -24.816406 29.59375 -26.765625 C 28.738281 -28.710938 27.546875 -30.1875 26.015625 -31.1875 C 24.492188 -32.195312 22.710938 -32.703125 20.671875 -32.703125 C 18.648438 -32.703125 16.867188 -32.191406 15.328125 -31.171875 C 13.796875 -30.160156 12.601562 -28.6875 11.75 -26.75 C 10.894531 -24.8125 10.46875 -22.4375 10.46875 -19.625 C 10.46875 -16.820312 10.894531 -14.453125 11.75 -12.515625 C 12.601562 -10.585938 13.796875 -9.117188 15.328125 -8.109375 C 16.867188 -7.097656 18.648438 -6.59375 20.671875 -6.59375 Z M 20.671875 -6.59375 "/></g></g><g transform="translate(209.044388, 94.67271)"><g><path d="M 3.25 0 L 3.25 -29.109375 L 10.59375 -29.109375 L 10.921875 -22.015625 L 10.359375 -22.015625 C 10.816406 -23.773438 11.488281 -25.210938 12.375 -26.328125 C 13.269531 -27.441406 14.3125 -28.257812 15.5 -28.78125 C 16.695312 -29.3125 17.957031 -29.578125 19.28125 -29.578125 C 21.382812 -29.578125 23.117188 -28.914062 24.484375 -27.59375 C 25.847656 -26.28125 26.8125 -24.296875 27.375 -21.640625 L 26.46875 -21.640625 C 26.875 -23.441406 27.5625 -24.925781 28.53125 -26.09375 C 29.507812 -27.257812 30.671875 -28.128906 32.015625 -28.703125 C 33.367188 -29.285156 34.800781 -29.578125 36.3125 -29.578125 C 38.101562 -29.578125 39.707031 -29.1875 41.125 -28.40625 C 42.539062 -27.625 43.65625 -26.488281 44.46875 -25 C 45.28125 -23.519531 45.6875 -21.707031 45.6875 -19.5625 L 45.6875 0 L 37.8125 0 L 37.8125 -18.0625 C 37.8125 -19.726562 37.363281 -20.96875 36.46875 -21.78125 C 35.570312 -22.601562 34.460938 -23.015625 33.140625 -23.015625 C 32.140625 -23.015625 31.273438 -22.800781 30.546875 -22.375 C 29.816406 -21.945312 29.253906 -21.34375 28.859375 -20.5625 C 28.460938 -19.789062 28.265625 -18.878906 28.265625 -17.828125 L 28.265625 0 L 20.640625 0 L 20.640625 -18.296875 C 20.640625 -19.742188 20.210938 -20.890625 19.359375 -21.734375 C 18.515625 -22.585938 17.414062 -23.015625 16.0625 -23.015625 C 15.125 -23.015625 14.28125 -22.800781 13.53125 -22.375 C 12.789062 -21.957031 12.195312 -21.335938 11.75 -20.515625 C 11.3125 -19.703125 11.09375 -18.703125 11.09375 -17.515625 L 11.09375 0 Z M 3.25 0 "/></g></g><g transform="translate(257.955518, 94.67271)"><g><path d="M 11.515625 0.546875 C 9.660156 0.546875 7.992188 0.222656 6.515625 -0.421875 C 5.035156 -1.066406 3.875 -2.035156 3.03125 -3.328125 C 2.1875 -4.628906 1.765625 -6.234375 1.765625 -8.140625 C 1.765625 -9.773438 2.0625 -11.140625 2.65625 -12.234375 C 3.257812 -13.328125 4.078125 -14.207031 5.109375 -14.875 C 6.148438 -15.539062 7.332031 -16.046875 8.65625 -16.390625 C 9.988281 -16.734375 11.382812 -16.972656 12.84375 -17.109375 C 14.550781 -17.285156 15.921875 -17.445312 16.953125 -17.59375 C 17.992188 -17.75 18.75 -17.984375 19.21875 -18.296875 C 19.695312 -18.617188 19.9375 -19.09375 19.9375 -19.71875 L 19.9375 -19.859375 C 19.9375 -20.660156 19.753906 -21.347656 19.390625 -21.921875 C 19.035156 -22.492188 18.515625 -22.929688 17.828125 -23.234375 C 17.140625 -23.546875 16.300781 -23.703125 15.3125 -23.703125 C 14.3125 -23.703125 13.4375 -23.546875 12.6875 -23.234375 C 11.945312 -22.929688 11.34375 -22.519531 10.875 -22 C 10.40625 -21.476562 10.078125 -20.894531 9.890625 -20.25 L 2.640625 -21.171875 C 3.046875 -22.929688 3.816406 -24.429688 4.953125 -25.671875 C 6.097656 -26.921875 7.554688 -27.875 9.328125 -28.53125 C 11.109375 -29.195312 13.132812 -29.53125 15.40625 -29.53125 C 17.050781 -29.53125 18.613281 -29.335938 20.09375 -28.953125 C 21.582031 -28.566406 22.90625 -27.96875 24.0625 -27.15625 C 25.226562 -26.351562 26.140625 -25.332031 26.796875 -24.09375 C 27.460938 -22.851562 27.796875 -21.367188 27.796875 -19.640625 L 27.796875 0 L 20.28125 0 L 20.28125 -4.0625 L 20.046875 -4.0625 C 19.566406 -3.144531 18.9375 -2.335938 18.15625 -1.640625 C 17.375 -0.953125 16.4375 -0.414062 15.34375 -0.03125 C 14.257812 0.351562 12.984375 0.546875 11.515625 0.546875 Z M 13.734375 -4.953125 C 14.984375 -4.953125 16.070312 -5.195312 17 -5.6875 C 17.9375 -6.1875 18.664062 -6.847656 19.1875 -7.671875 C 19.71875 -8.492188 19.984375 -9.425781 19.984375 -10.46875 L 19.984375 -13.546875 C 19.742188 -13.410156 19.398438 -13.269531 18.953125 -13.125 C 18.515625 -12.988281 18.015625 -12.867188 17.453125 -12.765625 C 16.890625 -12.660156 16.320312 -12.5625 15.75 -12.46875 C 15.175781 -12.382812 14.65625 -12.304688 14.1875 -12.234375 C 13.238281 -12.097656 12.394531 -11.875 11.65625 -11.5625 C 10.914062 -11.25 10.34375 -10.832031 9.9375 -10.3125 C 9.53125 -9.800781 9.328125 -9.160156 9.328125 -8.390625 C 9.328125 -7.648438 9.515625 -7.023438 9.890625 -6.515625 C 10.273438 -6.003906 10.796875 -5.613281 11.453125 -5.34375 C 12.117188 -5.082031 12.878906 -4.953125 13.734375 -4.953125 Z M 13.734375 -4.953125 "/></g></g><g transform="translate(288.963328, 94.67271)"><g><path d="M 11.515625 0.546875 C 9.660156 0.546875 7.992188 0.222656 6.515625 -0.421875 C 5.035156 -1.066406 3.875 -2.035156 3.03125 -3.328125 C 2.1875 -4.628906 1.765625 -6.234375 1.765625 -8.140625 C 1.765625 -9.773438 2.0625 -11.140625 2.65625 -12.234375 C 3.257812 -13.328125 4.078125 -14.207031 5.109375 -14.875 C 6.148438 -15.539062 7.332031 -16.046875 8.65625 -16.390625 C 9.988281 -16.734375 11.382812 -16.972656 12.84375 -17.109375 C 14.550781 -17.285156 15.921875 -17.445312 16.953125 -17.59375 C 17.992188 -17.75 18.75 -17.984375 19.21875 -18.296875 C 19.695312 -18.617188 19.9375 -19.09375 19.9375 -19.71875 L 19.9375 -19.859375 C 19.9375 -20.660156 19.753906 -21.347656 19.390625 -21.921875 C 19.035156 -22.492188 18.515625 -22.929688 17.828125 -23.234375 C 17.140625 -23.546875 16.300781 -23.703125 15.3125 -23.703125 C 14.3125 -23.703125 13.4375 -23.546875 12.6875 -23.234375 C 11.945312 -22.929688 11.34375 -22.519531 10.875 -22 C 10.40625 -21.476562 10.078125 -20.894531 9.890625 -20.25 L 2.640625 -21.171875 C 3.046875 -22.929688 3.816406 -24.429688 4.953125 -25.671875 C 6.097656 -26.921875 7.554688 -27.875 9.328125 -28.53125 C 11.109375 -29.195312 13.132812 -29.53125 15.40625 -29.53125 C 17.050781 -29.53125 18.613281 -29.335938 20.09375 -28.953125 C 21.582031 -28.566406 22.90625 -27.96875 24.0625 -27.15625 C 25.226562 -26.351562 26.140625 -25.332031 26.796875 -24.09375 C 27.460938 -22.851562 27.796875 -21.367188 27.796875 -19.640625 L 27.796875 0 L 20.28125 0 L 20.28125 -4.0625 L 20.046875 -4.0625 C 19.566406 -3.144531 18.9375 -2.335938 18.15625 -1.640625 C 17.375 -0.953125 16.4375 -0.414062 15.34375 -0.03125 C 14.257812 0.351562 12.984375 0.546875 11.515625 0.546875 Z M 13.734375 -4.953125 C 14.984375 -4.953125 16.070312 -5.195312 17 -5.6875 C 17.9375 -6.1875 18.664062 -6.847656 19.1875 -7.671875 C 19.71875 -8.492188 19.984375 -9.425781 19.984375 -10.46875 L 19.984375 -13.546875 C 19.742188 -13.410156 19.398438 -13.269531 18.953125 -13.125 C 18.515625 -12.988281 18.015625 -12.867188 17.453125 -12.765625 C 16.890625 -12.660156 16.320312 -12.5625 15.75 -12.46875 C 15.175781 -12.382812 14.65625 -12.304688 14.1875 -12.234375 C 13.238281 -12.097656 12.394531 -11.875 11.65625 -11.5625 C 10.914062 -11.25 10.34375 -10.832031 9.9375 -10.3125 C 9.53125 -9.800781 9.328125 -9.160156 9.328125 -8.390625 C 9.328125 -7.648438 9.515625 -7.023438 9.890625 -6.515625 C 10.273438 -6.003906 10.796875 -5.613281 11.453125 -5.34375 C 12.117188 -5.082031 12.878906 -4.953125 13.734375 -4.953125 Z M 13.734375 -4.953125 "/></g></g><g transform="translate(319.971139, 94.67271)"><g><path d="M 14.03125 0.5 C 11.726562 0.5 9.671875 -0.0859375 7.859375 -1.265625 C 6.046875 -2.441406 4.613281 -4.144531 3.5625 -6.375 C 2.519531 -8.613281 2 -11.332031 2 -14.53125 C 2 -17.78125 2.535156 -20.515625 3.609375 -22.734375 C 4.679688 -24.960938 6.125 -26.648438 7.9375 -27.796875 C 9.75 -28.953125 11.757812 -29.53125 13.96875 -29.53125 C 15.539062 -29.53125 16.867188 -29.273438 17.953125 -28.765625 C 19.046875 -28.253906 19.945312 -27.609375 20.65625 -26.828125 C 21.375 -26.046875 21.929688 -25.234375 22.328125 -24.390625 L 22.546875 -24.390625 L 22.546875 -39.28125 L 30.40625 -39.28125 L 30.40625 0 L 22.65625 0 L 22.65625 -4.609375 L 22.359375 -4.609375 C 21.953125 -3.765625 21.382812 -2.953125 20.65625 -2.171875 C 19.925781 -1.390625 19.019531 -0.75 17.9375 -0.25 C 16.863281 0.25 15.5625 0.5 14.03125 0.5 Z M 16.34375 -5.828125 C 17.695312 -5.828125 18.847656 -6.191406 19.796875 -6.921875 C 20.742188 -7.648438 21.472656 -8.664062 21.984375 -9.96875 C 22.492188 -11.269531 22.75 -12.800781 22.75 -14.5625 C 22.75 -16.3125 22.5 -17.832031 22 -19.125 C 21.5 -20.414062 20.769531 -21.414062 19.8125 -22.125 C 18.851562 -22.84375 17.695312 -23.203125 16.34375 -23.203125 C 15.007812 -23.203125 13.867188 -22.84375 12.921875 -22.125 C 11.984375 -21.40625 11.273438 -20.394531 10.796875 -19.09375 C 10.316406 -17.789062 10.078125 -16.28125 10.078125 -14.5625 C 10.078125 -12.8125 10.316406 -11.28125 10.796875 -9.96875 C 11.273438 -8.664062 11.984375 -7.648438 12.921875 -6.921875 C 13.867188 -6.191406 15.007812 -5.828125 16.34375 -5.828125 Z M 16.34375 -5.828125 "/></g></g></g><g fill="#faf8f4" fill-opacity="1"><g transform="translate(353.621531, 94.67271)"><g/></g></g><path fill="#c77b3c" d="M 136.1875 29.894531 L 75.5 11.046875 L 14.84375 29.894531 C 14.84375 29.894531 0.0820312 124.527344 75.5 148.136719 C 150.949219 124.527344 136.1875 29.894531 136.1875 29.894531 Z M 136.1875 29.894531 " fill-opacity="1" fill-rule="nonzero"/><path fill="#c77b3c" d="M 75.5 148.417969 L 75.417969 148.390625 C 58.148438 142.980469 44.203125 133.402344 33.976562 119.851562 C 25.777344 109.03125 19.945312 95.707031 16.59375 80.210938 C 10.902344 53.871094 14.507812 30.0625 14.535156 29.839844 L 14.5625 29.667969 L 75.5 10.738281 L 75.585938 10.765625 L 136.4375 29.667969 L 136.46875 29.839844 C 136.496094 30.0625 140.101562 53.839844 134.410156 80.210938 C 131.058594 95.707031 125.226562 109.03125 117.027344 119.851562 C 106.800781 133.375 92.855469 142.980469 75.585938 148.390625 Z M 15.097656 30.121094 C 14.789062 32.316406 11.773438 55.054688 17.183594 80.125 C 20.507812 95.539062 26.3125 108.808594 34.453125 119.539062 C 44.597656 132.949219 58.429688 142.472656 75.53125 147.824219 C 92.628906 142.445312 106.464844 132.921875 116.605469 119.511719 C 124.746094 108.75 130.550781 95.480469 133.875 80.070312 C 139.285156 54.996094 136.269531 32.261719 135.960938 30.0625 L 75.5 11.328125 Z M 15.097656 30.121094 " fill-opacity="1" fill-rule="nonzero"/><g clip-path="url(#d0269e626c)"><path fill="#c77b3c" d="M 139.117188 45.023438 C 138.917969 35.753906 138.015625 29.867188 137.960938 29.640625 L 137.792969 28.542969 L 75.726562 9.214844 L 75.53125 9.160156 L 13.238281 28.515625 L 13.070312 29.613281 C 13.042969 29.867188 12.140625 35.78125 11.914062 44.996094 C 11.71875 53.53125 12.140625 66.605469 15.128906 80.519531 C 18.507812 96.242188 24.453125 109.765625 32.761719 120.753906 C 43.1875 134.527344 57.386719 144.304688 74.964844 149.828125 L 75.5 149.996094 L 76.035156 149.828125 C 93.617188 144.332031 107.816406 134.558594 118.238281 120.753906 C 126.550781 109.765625 132.496094 96.214844 135.875 80.519531 C 138.890625 66.632812 139.285156 53.53125 139.117188 45.023438 Z M 75.5 12.90625 L 134.550781 31.246094 C 135.171875 36.234375 137.285156 56.996094 132.382812 79.761719 C 129.113281 94.945312 123.394531 108.019531 115.394531 118.582031 C 105.535156 131.625 92.125 140.921875 75.53125 146.21875 C 58.9375 140.921875 45.554688 131.625 35.691406 118.609375 C 27.691406 108.046875 21.972656 95.003906 18.675781 79.816406 C 15.71875 66.265625 15.324219 53.503906 15.492188 45.164062 C 15.632812 38.429688 16.167969 33.472656 16.453125 31.273438 Z M 75.5 12.90625 " fill-opacity="1" fill-rule="nonzero"/></g><g clip-path="url(#655730e1b0)"><path fill="#1a2740" d="M 75.210938 43.71875 C 75.640625 44.1875 75.621094 45.085938 75.492188 45.683594 C 75.640625 45.84375 76.566406 44.664062 76.707031 44.5625 C 76.6875 45.238281 76.03125 45.695312 75.773438 46.246094 C 76.019531 46.335938 76.769531 45.933594 76.800781 46.246094 C 76.15625 46.636719 75.585938 46.347656 74.976562 46.804688 C 74.109375 47.46875 73.070312 48.5625 74.042969 49.609375 C 74.246094 49.160156 74.835938 49.039062 75.117188 48.722656 C 75.398438 48.402344 75.5 47.785156 75.820312 47.460938 L 75.679688 48.488281 L 76.894531 47.925781 C 76.726562 48.402344 76.21875 48.589844 75.867188 48.910156 L 76.519531 49.328125 L 75.332031 49.300781 C 74.351562 49.9375 74.3125 50.703125 75.238281 51.375 C 75.285156 51.375 75.957031 50.976562 76.003906 50.917969 C 76.144531 50.777344 76.230469 50.46875 76.378906 50.265625 C 76.527344 50.058594 77.0625 49.574219 76.976562 49.835938 L 76.511719 50.816406 L 78.191406 50.160156 L 77.164062 51.144531 L 78.007812 51.46875 C 77.605469 51.730469 76.96875 51.253906 76.679688 51.300781 C 76.390625 51.347656 75.957031 51.703125 75.902344 51.9375 C 75.847656 52.171875 77.089844 52.910156 77.3125 53.039062 C 78.128906 51.964844 79.980469 51.929688 79.222656 50.226562 C 78.679688 49.019531 77.761719 49.582031 76.988281 48.722656 C 77.453125 48.757812 77.914062 48.992188 78.390625 48.816406 C 78.304688 47.75 76.867188 47.65625 76.941406 46.523438 C 77.285156 46.832031 77.59375 47.339844 78.109375 47.367188 C 78.070312 46.859375 78.34375 46.515625 78.101562 46.019531 C 77.855469 45.523438 76.902344 44.898438 76.894531 44 C 77.144531 43.945312 77.050781 44.066406 77.128906 44.1875 C 77.324219 44.515625 77.472656 44.925781 77.828125 45.121094 C 77.867188 44.765625 77.808594 44.140625 78.109375 43.90625 C 78.15625 44.496094 77.929688 45.234375 78.4375 45.683594 L 78.996094 43.71875 C 79.054688 44.179688 79.257812 44.671875 79.042969 45.121094 C 79.242188 45.28125 79.6875 44.429688 79.886719 44.375 C 79.839844 44.757812 79.613281 45.113281 79.378906 45.402344 C 79.148438 45.691406 79.054688 45.570312 78.976562 45.75 C 78.902344 45.925781 78.808594 46.730469 78.867188 46.804688 C 80.441406 45.589844 80.375 46.210938 80.269531 44.1875 L 80.6875 45.214844 L 81.578125 44.09375 C 81.535156 44.882812 81.023438 45.371094 80.640625 46.058594 C 81.230469 46.011719 81.8125 45.65625 82.230469 45.261719 C 82.652344 44.871094 82.550781 44.636719 82.792969 44.796875 L 82.136719 45.964844 L 83.632812 45.496094 C 82.707031 46.757812 80.828125 46.09375 79.660156 46.992188 C 78.734375 47.703125 79.0625 48.320312 79.753906 49.050781 C 80.664062 47.824219 80.542969 48.878906 80.828125 47 C 81.25 46.878906 80.8125 48.085938 81.15625 47.9375 C 81.503906 47.785156 82.613281 46.636719 82.699219 46.722656 C 82.765625 47.019531 81.859375 47.722656 81.859375 47.796875 C 82.089844 48.085938 82.503906 47.84375 82.792969 47.984375 C 82.4375 48.414062 81.828125 48.09375 81.390625 48.261719 C 80.417969 48.8125 80 49.625 80.773438 50.441406 C 81.304688 50.011719 83.027344 49.65625 83.296875 49.050781 C 83.570312 48.441406 83.128906 47.253906 83.53125 46.617188 L 83.785156 48.09375 L 84 48.347656 C 84.109375 48.066406 84.53125 47.710938 84.617188 47.460938 C 84.765625 47.011719 84.355469 46.011719 84.933594 45.582031 L 84.933594 46.890625 L 85.644531 45.871094 L 86.148438 45.394531 L 85.589844 46.703125 L 86.757812 46.234375 C 86.898438 46.460938 86.296875 46.785156 86.09375 46.878906 C 85.886719 46.972656 85.417969 47.03125 85.335938 47.105469 C 85.25 47.179688 85.074219 47.769531 84.933594 47.917969 C 85.738281 47.796875 86.316406 47.402344 86.851562 46.796875 L 86.523438 47.636719 L 87.550781 47.402344 C 86.839844 48.152344 85.699219 47.945312 84.804688 48.488281 C 83.90625 49.03125 84.09375 49.480469 83.625 49.835938 C 84.746094 50.535156 85.234375 49.5625 86.148438 49.132812 L 85.402344 50.160156 L 86.664062 49.789062 C 86.730469 50.179688 85.859375 50.496094 85.496094 50.582031 C 84 50.945312 82.894531 50.132812 81.519531 51.285156 C 81.109375 51.628906 80.921875 52.050781 80.585938 52.40625 C 80.054688 52.976562 78.828125 53.808594 79.0625 54.667969 L 79.660156 55.855469 C 80.507812 55.433594 84.527344 55.699219 83.25 54.03125 C 83.054688 53.910156 82.214844 53.78125 82.054688 53.75 C 81.640625 53.816406 80.863281 53.742188 80.640625 53.226562 L 81.671875 53.414062 C 81.71875 53.386719 81.101562 52.6875 81.34375 52.480469 C 81.839844 53.144531 82.289062 53.453125 83.167969 53.320312 C 82.988281 53.097656 83.148438 52.667969 83.054688 52.5 C 82.960938 52.332031 82.082031 51.910156 82.230469 51.359375 L 83.027344 52.105469 C 83.195312 52.097656 83.289062 50.898438 83.539062 51.171875 C 83.410156 51.375 83.324219 52.5625 83.679688 52.480469 C 84 52.160156 84.109375 51.863281 84.269531 51.46875 C 84.429688 51.078125 84.214844 51.21875 84.476562 51.265625 C 84.542969 52.003906 84.1875 52.546875 83.753906 53.085938 L 84.335938 53.882812 C 84.457031 53.882812 85.316406 52.394531 85.503906 52.152344 C 85.953125 51.601562 87.503906 50.421875 87.46875 49.730469 C 87.429688 49.039062 86.972656 48.804688 87.1875 48.273438 L 87.746094 49.300781 L 88.214844 47.710938 C 88.515625 47.765625 88.105469 48.820312 88.214844 49.113281 C 88.402344 49.320312 88.992188 48.367188 89.242188 48.507812 C 89.160156 49.085938 88.242188 49.441406 88.054688 49.703125 C 87.871094 49.964844 87.90625 50.554688 87.652344 50.796875 C 89.984375 50.1875 88.902344 49.65625 89.898438 48.367188 L 89.710938 49.769531 C 89.910156 50.058594 91.421875 48.003906 91.394531 48.507812 C 91.394531 48.507812 90.738281 49.582031 90.738281 49.582031 L 92.140625 49.441406 C 91.476562 50.152344 90.382812 49.648438 89.898438 50.421875 C 90.542969 50.359375 91.246094 50.601562 91.859375 50.375 C 92.476562 50.152344 92.488281 49.5625 92.878906 49.394531 L 92.507812 50.234375 L 93.628906 50.003906 L 92.226562 50.796875 L 93.441406 51.078125 C 92.757812 51.421875 92.085938 50.984375 91.523438 50.9375 C 90.628906 50.859375 89.5 50.972656 88.765625 51.171875 C 88.597656 51.339844 90.320312 51.882812 90.542969 51.546875 L 90.542969 51.730469 C 89.710938 52.265625 88.703125 51.59375 87.980469 51.648438 C 87.261719 51.703125 86.054688 52.890625 86.066406 53.609375 C 86.429688 53.480469 86.8125 53.554688 87.1875 53.480469 C 87.785156 53.359375 88.28125 52.929688 88.871094 52.777344 L 88.027344 53.714844 C 88.394531 53.816406 88.792969 53.890625 89.148438 53.714844 C 89.347656 53.964844 88.421875 54.144531 88.253906 54.144531 C 87.363281 54.164062 87.195312 53.917969 86.195312 54.351562 C 85.195312 54.78125 85.296875 55.386719 84.71875 56.050781 C 82.433594 58.261719 78.414062 57.144531 77.472656 61.464844 C 80.921875 60.019531 81.09375 59.011719 85.1875 59.398438 C 85.679688 59.324219 87.039062 58.3125 87.007812 57.78125 C 86.980469 57.246094 86.652344 56.5 86.617188 56.445312 C 86.503906 56.265625 85.664062 55.996094 85.804688 55.386719 L 86.457031 55.949219 C 86.492188 55.761719 86.53125 54.859375 86.738281 54.921875 C 86.730469 55.359375 86.757812 55.882812 87.066406 56.230469 C 87.449219 55.789062 87.785156 55.359375 87.8125 54.734375 C 88.519531 55.71875 86.847656 56.585938 87.71875 57.164062 C 88.101562 56.753906 88.410156 56.21875 88.792969 55.808594 C 89.179688 55.398438 89.980469 54.855469 90.058594 54.734375 C 90.222656 53.652344 90.679688 52.476562 91.550781 51.742188 C 91.710938 51.9375 91.058594 52.902344 91.132812 52.957031 C 91.832031 52.917969 92.320312 52.394531 92.769531 51.929688 C 92.863281 52.191406 92.460938 52.722656 92.253906 52.910156 C 91.691406 53.433594 90.832031 53.339844 90.945312 54.359375 C 93.300781 53.738281 93.453125 53.484375 94.386719 51.574219 C 94.414062 51.25 94.191406 50.148438 94.414062 49.777344 L 94.695312 51.273438 L 95.582031 50.339844 C 95.816406 50.796875 94.132812 52.378906 94.414062 52.675781 C 95.515625 52.292969 96.144531 51.433594 96.796875 50.527344 C 96.789062 51.125 96.414062 51.648438 96.097656 52.117188 C 96.648438 52.078125 97.105469 51.742188 97.5625 51.480469 C 98.023438 51.21875 97.796875 51.273438 97.871094 51.414062 C 97.011719 52.769531 95.152344 52.414062 94.226562 53.703125 L 96.238281 53.703125 C 96.320312 53.703125 97.03125 53.441406 97.117188 53.367188 C 97.441406 53.097656 97.742188 52.273438 98.199219 52.023438 L 97.824219 53.144531 L 99.835938 52.023438 C 99.929688 52.339844 98.957031 52.996094 98.996094 53.050781 L 100.769531 53.285156 C 100.195312 53.761719 98.996094 53.449219 98.433594 53.378906 C 98.199219 53.433594 97.910156 53.796875 97.59375 53.808594 C 97.933594 54.316406 100.433594 54.007812 100.957031 54.089844 C 100.4375 54.472656 99.613281 54.402344 98.996094 54.554688 L 99.929688 55.304688 C 99.285156 55.554688 98.742188 54.660156 98.460938 54.574219 C 96.230469 54.179688 91.675781 54.449219 90.207031 56.519531 C 92.570312 56.703125 92.144531 56.585938 94.394531 55.707031 C 95.105469 55.5 95.84375 55.519531 96.46875 55.351562 C 97.097656 55.183594 97.03125 54.855469 97.40625 54.835938 L 97.03125 55.492188 L 98.527344 55.769531 C 98.058594 56.117188 95.941406 55.457031 96.003906 55.957031 C 96.480469 55.976562 97.226562 56.613281 97.640625 56.613281 L 99.042969 56.613281 C 99.058594 56.613281 99.210938 56.414062 99.273438 56.566406 C 98.910156 56.949219 98.273438 56.996094 97.777344 56.984375 C 98.039062 57.398438 98.621094 57.640625 99.089844 57.734375 C 98.664062 58.21875 97.402344 57.402344 97.125 57.03125 C 96.761719 56.800781 95.441406 56.332031 95.019531 56.324219 C 94.28125 56.304688 93.515625 57.144531 92.832031 57.359375 C 93.230469 57.820312 94.179688 57.976562 94.75 58.023438 C 95.085938 58.015625 95.714844 57.285156 96.292969 57.359375 L 95.636719 58.015625 L 97.039062 58.296875 L 94.984375 58.480469 C 95.507812 59.023438 96.359375 59.089844 97.039062 59.324219 C 97.074219 59.535156 96.015625 59.371094 95.824219 59.417969 L 96.105469 60.445312 C 95.628906 60.34375 95.507812 59.398438 95.359375 59.277344 C 95.207031 59.15625 94.207031 58.640625 94.140625 58.621094 C 92.695312 58.539062 91.875 57.636719 90.355469 57.734375 C 89.09375 57.828125 88.980469 58.125 88.53125 59.136719 C 89.179688 58.921875 89.738281 59.511719 90.261719 59.511719 C 90.785156 59.511719 91.226562 59.128906 91.710938 59.136719 L 90.964844 59.742188 C 90.964844 59.960938 91.816406 59.875 91.992188 59.882812 C 91.832031 60.175781 91.328125 60.191406 91.011719 60.164062 C 89.898438 60.082031 89.054688 59.660156 87.925781 60.164062 C 87.234375 60.472656 86.898438 61.203125 86.195312 61.519531 C 84.839844 62.148438 83.710938 61.316406 82.175781 62.546875 C 82.027344 62.671875 80.8125 63.867188 80.960938 63.996094 C 84.214844 63.148438 84.316406 63.402344 87.355469 64.195312 C 88.402344 64.191406 91.40625 63.589844 90.90625 62.128906 C 90.71875 61.828125 89.84375 61.492188 90.019531 60.820312 L 90.71875 61.566406 L 90.953125 61.660156 C 91.027344 61.605469 91.046875 60.78125 91.328125 60.726562 L 91.421875 62.035156 C 91.515625 62.128906 92.246094 61.820312 92.382812 61.734375 C 93.308594 61.222656 92.730469 60.660156 93.011719 59.789062 C 93.300781 59.875 93.078125 60.753906 93.339844 61.007812 L 94.226562 59.699219 C 94.648438 59.976562 93.769531 61.011719 93.664062 61.378906 L 94.972656 61.144531 C 94.535156 61.808594 93.683594 61.640625 93.113281 61.902344 C 92.191406 62.449219 91.710938 62.628906 91.523438 63.4375 C 93.292969 63.34375 94.515625 62.109375 96.105469 61.519531 C 96.441406 60.746094 96.777344 60.398438 97.554688 60.070312 L 97.789062 58.855469 C 98.132812 58.601562 97.917969 59.71875 97.976562 59.882812 C 98.414062 59.828125 98.722656 59.480469 99.003906 59.183594 C 99.285156 58.882812 99.210938 58.679688 99.265625 59.070312 C 98.976562 60.453125 97.3125 60.191406 97.039062 61.378906 C 97.648438 61.5 99.695312 61.042969 100.023438 60.574219 C 100.273438 60.203125 100.367188 59.453125 100.828125 59.136719 C 101.070312 59.117188 100.929688 59.171875 100.890625 59.296875 C 100.78125 59.679688 100.582031 60.042969 100.5 60.4375 L 102.371094 59.59375 C 101.328125 61.007812 99.160156 61.125 102.507812 61.089844 C 102.59375 61.089844 102.847656 60.914062 103.023438 60.996094 C 101.632812 62.203125 99.984375 60.863281 99.285156 61.828125 C 101.003906 62.445312 101.613281 62.121094 103.304688 61.839844 L 102.183594 62.445312 L 103.492188 63.148438 C 102.835938 63.371094 101.996094 62.660156 101.554688 62.605469 C 101.117188 62.546875 100.480469 62.726562 99.984375 62.679688 C 98.648438 62.316406 96.964844 61.96875 95.730469 62.914062 C 96.84375 63.222656 98.078125 64.316406 99.285156 63.949219 C 100.492188 63.585938 100.023438 63.042969 100.492188 63.195312 L 99.929688 63.894531 L 101.613281 63.425781 C 101.339844 63.902344 100.753906 63.996094 100.304688 64.222656 L 101.800781 64.644531 C 101.015625 65.027344 100.136719 64.464844 99.507812 64.457031 C 98.882812 64.445312 98.65625 64.671875 98.199219 64.644531 C 96.566406 64.363281 95.164062 63.234375 93.480469 64.363281 C 93.421875 64.585938 93.515625 64.511719 93.601562 64.566406 C 94.03125 64.867188 95.125 65.410156 95.628906 65.261719 C 96.132812 65.109375 96.375 64.625 96.75 64.78125 L 96.191406 65.296875 L 97.5 65.203125 C 97.300781 65.523438 96.796875 65.550781 96.46875 65.671875 C 96.339844 65.859375 97.207031 66.429688 97.3125 66.605469 C 96.441406 66.570312 96.171875 65.523438 95.253906 65.765625 C 95.207031 66.382812 95.742188 66.679688 96.097656 67.074219 C 95.339844 67.25 94.890625 65.933594 94.695312 65.8125 C 91.320312 64.058594 90.464844 65.898438 87.402344 66.324219 C 87.128906 66.550781 88.589844 66.960938 88.710938 66.980469 C 88.121094 67.558594 87.039062 67.503906 86.34375 67.148438 C 85.953125 66.953125 85.578125 66.382812 85.167969 66.269531 C 83.785156 65.90625 81.679688 67.261719 80.859375 68.335938 C 81.574219 77.855469 83.050781 92.378906 82.558594 100.75 C 83.34375 101.5625 84.53125 102.226562 85.671875 102.308594 C 86.8125 102.394531 87.5625 102.046875 88.550781 102.328125 C 89.496094 102.597656 90.085938 103.476562 90.964844 103.84375 C 92.402344 104.441406 94.441406 103.972656 95.730469 105.105469 C 94.355469 105.046875 92.9375 105.179688 91.570312 105.105469 C 88.980469 104.964844 86.449219 103.898438 83.859375 104.449219 C 83.90625 105.070312 87.046875 105.320312 87.878906 106.085938 C 89.101562 106.929688 88.207031 106.320312 88.121094 106.402344 C 86.296875 106.078125 84.523438 105.992188 82.726562 105.535156 C 81.53125 105.226562 79.351562 104.273438 78.210938 104.628906 C 77.070312 104.984375 78.042969 104.570312 78.082031 104.816406 C 79.128906 105.460938 80.492188 105.570312 81.351562 106.496094 C 80.316406 106.320312 79.269531 106.1875 78.25 105.910156 C 77.230469 105.628906 75.800781 104.878906 75.230469 104.898438 C 74.660156 104.917969 74.679688 105.066406 74.632812 105.347656 C 74.539062 105.945312 76.238281 106.703125 76.015625 106.964844 L 73.621094 106.125 L 70.6875 106.964844 C 71.003906 106.300781 72.601562 105.878906 72.800781 105.292969 C 73.339844 103.769531 65.792969 106.695312 64.757812 106.414062 C 62.355469 106.574219 64.320312 106.480469 64.339844 106.320312 C 65.542969 105.535156 66.917969 105.199219 68.265625 104.730469 C 68.246094 104.601562 68.132812 104.570312 68.03125 104.554688 C 64.675781 104.132812 61.164062 105.546875 57.898438 105.957031 C 57.804688 105.890625 59.148438 105.21875 59.269531 105.132812 C 59.390625 105.046875 59.449219 105.152344 59.390625 104.925781 L 52.289062 105.207031 C 52.644531 104.851562 53.277344 104.664062 53.765625 104.488281 C 54.25 104.308594 55.503906 103.824219 56.101562 103.738281 C 57.457031 103.554688 58.558594 104.085938 59.886719 103.507812 C 62.941406 101.226562 63.84375 103.378906 66.394531 101.925781 C 65.78125 90.84375 67.039062 79.621094 67.535156 68.523438 C 67.453125 67.847656 65.308594 66.632812 64.664062 66.53125 C 63.722656 66.382812 62.964844 66.71875 61.90625 66.484375 C 60.851562 66.25 59.980469 65.445312 59.53125 65.417969 C 58.824219 65.371094 57.804688 66.484375 56.972656 66 C 56.140625 65.511719 57.496094 65.660156 57.664062 65.558594 C 57.898438 65.417969 58.074219 65.148438 58.289062 64.96875 C 57.410156 64.644531 56.410156 64.792969 55.484375 64.679688 C 55.269531 64.738281 54.644531 65.289062 54.503906 65.484375 C 54.183594 65.90625 54.121094 66.511719 53.519531 66.699219 L 53.894531 65.765625 C 53.445312 66.007812 52.894531 66 52.398438 65.90625 C 53.15625 65.550781 54.148438 65.476562 54.457031 64.550781 C 54.054688 64.558594 53.726562 64.390625 53.304688 64.472656 C 52.683594 64.601562 51.4375 65.941406 50.902344 65.296875 C 51.566406 65.121094 52.082031 64.652344 52.585938 64.222656 L 51.78125 63.894531 C 51.269531 63.859375 50.34375 64.464844 50.0625 64.875 C 49.78125 65.289062 49.773438 65.859375 49.222656 65.953125 L 49.59375 65.109375 C 49.128906 65.34375 48.632812 65.539062 48.097656 65.484375 L 49.398438 64.773438 L 50.0625 64.128906 C 49.679688 64.054688 49.230469 64.035156 49.035156 63.613281 C 49.921875 64.117188 52.183594 63.289062 50.363281 62.894531 C 48.949219 62.378906 48.941406 63.597656 48.035156 64.15625 C 47.125 64.71875 47.265625 64.457031 46.882812 64.457031 C 47.414062 64.101562 48.449219 63.625 48.472656 62.96875 C 47.707031 63.128906 46.941406 63.257812 46.15625 63.089844 C 45.371094 62.921875 45.667969 63.015625 45.667969 62.886719 C 45.96875 62.914062 47.425781 62.792969 47.539062 62.558594 C 47.070312 62.332031 46.554688 62.035156 46.417969 61.484375 C 48.460938 62.621094 47.660156 62.304688 49.78125 62.136719 C 49.28125 61.625 48.015625 61.011719 48.050781 60.277344 L 49.316406 61.117188 L 49.59375 60.089844 L 49.679688 61.351562 C 49.921875 61.527344 53.050781 63.890625 52.847656 62.960938 C 52.671875 61.875 51.71875 61.921875 51.183594 61.164062 L 52.679688 61.679688 L 52.492188 60.652344 C 52.925781 60.597656 52.996094 61.765625 53.128906 62.023438 C 53.269531 62.398438 53.699219 63.082031 53.894531 63.222656 C 54.089844 63.363281 54.941406 63.4375 55.25 63.457031 C 55.558594 63.472656 55.867188 63.53125 55.765625 63.316406 C 55.417969 62.539062 54.289062 62.828125 54.175781 61.960938 L 55.109375 62.425781 C 55.167969 62.363281 54.746094 61.59375 54.96875 61.398438 C 55.261719 61.734375 55.34375 62.324219 55.859375 62.425781 L 56.1875 61.304688 C 56.503906 61.792969 56.25 62.332031 56.148438 62.828125 C 56.605469 63.558594 57.355469 63.296875 58.046875 63.363281 C 58.738281 63.425781 59.140625 63.492188 59.683594 63.550781 C 59.765625 62.203125 58.140625 62.800781 57.90625 61.679688 C 58.253906 61.894531 58.597656 62.175781 59.027344 62.148438 L 58.839844 61.117188 L 59.53125 61.949219 L 60.054688 61.023438 C 60.179688 61.453125 60.054688 61.921875 59.792969 62.285156 C 60.5625 62.894531 60.289062 63.550781 61.234375 63.996094 C 62.628906 64.660156 63.984375 63.996094 65.433594 64.101562 C 66.882812 64.203125 66.515625 64.34375 67.066406 64.382812 C 66.882812 63.867188 64.808594 61.984375 64.476562 61.6875 C 63.964844 61.390625 62.90625 61.332031 62.289062 61.164062 C 61.347656 60.902344 59.261719 60.042969 58.410156 60.089844 C 57.558594 60.136719 57.234375 60.558594 56.605469 60.632812 C 55.980469 60.707031 55.34375 60.746094 55 60.285156 C 55.71875 60.34375 56.476562 60.230469 57.054688 59.773438 C 54.15625 58.375 53.664062 60.425781 51.257812 60.191406 L 52.472656 59.726562 C 52.472656 59.574219 51.410156 59.296875 51.632812 59.070312 C 52.4375 59.398438 53.175781 59.5 53.941406 58.996094 C 54.707031 58.492188 54.109375 59.003906 54.0625 58.789062 C 53.519531 58.742188 52.765625 58.3125 52.230469 58.332031 C 51.257812 58.648438 50.296875 59.402344 49.007812 58.96875 L 50.53125 58.574219 L 51.25 58.125 C 50.867188 58.191406 50.296875 57.855469 49.988281 57.855469 C 49.34375 57.988281 48.570312 58.289062 47.882812 58.03125 C 47.910156 57.800781 49.191406 57.777344 49.472656 57.660156 L 48.632812 56.957031 L 48.351562 56.539062 C 49.113281 56.949219 50.140625 57.59375 50.96875 57.554688 C 50.417969 57.097656 49.941406 56.601562 49.660156 55.921875 C 49.808594 55.722656 49.820312 55.929688 49.875 55.996094 C 50.820312 57.023438 50.753906 56.910156 50.828125 55.5 C 51.695312 56.75 49.664062 57.28125 53.304688 57.835938 C 53.523438 57.757812 51.195312 55.871094 51.671875 55.875 C 51.671875 55.875 52.839844 56.621094 52.839844 56.621094 C 52.886719 56.246094 52.699219 55.890625 52.660156 55.535156 C 52.625 55.183594 52.679688 55.40625 52.839844 55.40625 C 53.316406 56.429688 52.980469 57.164062 54.101562 57.742188 C 55.25 58.574219 58.261719 58.734375 59.777344 58.988281 C 60.980469 59.191406 62.167969 59.574219 63.402344 59.613281 C 63.441406 59.574219 63.28125 58.679688 63.207031 58.546875 C 62.953125 58.097656 61.207031 57.507812 60.703125 57.507812 C 60.195312 57.507812 59.53125 58.191406 59.007812 57.695312 L 60.039062 57.464844 C 60.09375 57.246094 60 57.3125 59.917969 57.246094 C 59.710938 57.089844 59.402344 56.996094 59.289062 56.714844 C 59.917969 56.855469 60.496094 57.191406 61.160156 57.089844 L 60.503906 55.96875 C 60.597656 55.855469 61.628906 56.984375 61.777344 57.078125 C 62.207031 57.332031 62.777344 57.285156 63.207031 57.554688 C 63.667969 55.445312 60.832031 55.03125 59.347656 55.433594 C 58.101562 55.828125 58.53125 56.03125 57.867188 56.855469 C 57.203125 57.679688 57.28125 57.519531 57.027344 57.417969 C 57.476562 57.050781 57.652344 56.480469 57.867188 55.96875 C 57.804688 55.921875 56.859375 56.03125 56.71875 56.078125 C 56.132812 56.578125 55.363281 57.203125 54.503906 57.089844 L 55.558594 56.507812 L 56.09375 55.96875 C 55.632812 55.878906 54.652344 55.824219 54.410156 55.5 C 55.8125 55.40625 57.570312 55.695312 58.710938 54.75 C 58.335938 54.742188 57.839844 54.351562 57.523438 54.304688 C 56.667969 54.363281 55.167969 54.945312 54.410156 54.097656 C 55.214844 54.21875 55.960938 54.097656 56.746094 53.910156 C 56.484375 53.714844 55.8125 53.171875 55.53125 53.105469 C 55.25 53.039062 53.90625 53.796875 53.289062 53.347656 L 54.785156 52.835938 C 54.214844 52.675781 53.605469 52.433594 53.195312 51.992188 L 54.878906 52.414062 C 54.578125 51.984375 54.148438 51.574219 54.128906 51.011719 C 54.765625 51.675781 55.34375 52.441406 56.234375 52.789062 C 56.171875 52.457031 55.480469 51.085938 55.90625 51.011719 C 56.382812 52.246094 56.933594 53.332031 58.289062 53.722656 L 57.953125 52.75 L 57.308594 51.714844 C 57.289062 51.636719 57.402344 51.65625 57.449219 51.667969 C 58.128906 51.882812 58.644531 53.433594 59.457031 53.863281 C 60.269531 54.292969 62.242188 54.078125 63.394531 54.648438 C 63.023438 53.675781 60.777344 53.1875 60.308594 52.640625 C 59.804688 52.46875 59.085938 52.761719 58.625 52.265625 L 59.746094 52.21875 C 59.523438 52.050781 59.222656 51.421875 59.066406 51.3125 C 58.90625 51.199219 58.558594 51.171875 58.335938 51.050781 C 58.113281 50.929688 57.316406 50.246094 57.878906 50.480469 C 58.4375 50.714844 58.765625 50.957031 58.804688 50.910156 L 58.429688 49.648438 L 58.617188 49.601562 C 58.914062 50.496094 59.449219 51.320312 60.253906 51.84375 L 59.644531 50.066406 C 59.886719 50.011719 59.8125 50.144531 59.886719 50.246094 C 60.085938 50.488281 60.195312 50.796875 60.441406 51.003906 L 61.140625 50.253906 C 61.214844 50.621094 60.625 51.113281 60.617188 51.328125 C 60.769531 52.472656 62.292969 52.929688 63.246094 53.246094 C 63.617188 53.359375 63.261719 52.46875 63.199219 52.386719 C 63.132812 52.300781 61.644531 51.433594 61.890625 51.199219 L 63.199219 51.855469 L 62.917969 50.871094 L 63.105469 50.824219 L 63.804688 52.132812 L 64.414062 51.292969 C 64.535156 51.824219 63.925781 52.414062 63.945312 52.816406 C 63.992188 53.601562 64.386719 54.050781 64.617188 54.6875 C 64.851562 55.320312 64.804688 55.796875 65.160156 56.339844 C 67.21875 55.441406 64.816406 53.660156 65.160156 52.238281 L 65.675781 53.359375 L 66.234375 51.957031 L 66.097656 53.078125 L 67.03125 52.515625 C 67.199219 52.722656 66.273438 53.480469 66.105469 53.601562 L 66.5625 54.761719 C 66.75 54.910156 67.320312 52.84375 67.589844 52.796875 L 67.40625 54.199219 C 67.527344 54.332031 68.179688 53.863281 68.292969 53.734375 C 68.460938 54.339844 67.375 54.507812 67.171875 54.761719 C 66.964844 55.011719 66.84375 55.957031 66.5625 56.339844 C 66.898438 56.378906 67.253906 56.527344 67.589844 56.386719 C 67.929688 56.246094 68.253906 55.5 68.480469 55.40625 C 68.703125 55.3125 68.65625 55.425781 68.621094 55.546875 L 68.152344 56.433594 L 69.554688 56.105469 C 69.117188 56.621094 68.421875 56.78125 67.777344 56.902344 L 68.808594 57.554688 C 68.179688 57.789062 67.683594 57.171875 67.265625 57.097656 C 66.628906 56.976562 65.695312 57.023438 65.589844 57.828125 C 65.808594 60.246094 69.253906 60.085938 70.871094 61.257812 C 71.210938 60.855469 71.5 60.378906 71.855469 59.988281 C 72.210938 59.59375 72.949219 59.035156 73.125 58.734375 C 73.453125 57.144531 70.171875 56.605469 69.433594 55.21875 C 68.609375 54.070312 69.085938 52.871094 68.171875 51.898438 C 67.03125 50.703125 66.039062 51.03125 64.582031 50.816406 C 63.121094 50.601562 62.011719 49.984375 60.664062 49.683594 C 60.1875 49.574219 59.382812 49.375 59.195312 48.871094 C 59.699219 49.171875 60.289062 49.328125 60.878906 49.339844 C 60.597656 48.984375 60.140625 48.535156 60.269531 48.03125 C 60.703125 48.757812 61.308594 49.292969 62.09375 49.621094 C 62.101562 49.386719 61.277344 48.296875 61.710938 48.308594 C 62.503906 50.003906 64.113281 50.253906 65.824219 50.179688 C 64.746094 48.929688 62.074219 49.097656 61.664062 47.1875 C 61.785156 47.355469 62.878906 48.367188 63.019531 48.21875 C 63.160156 47.960938 62.601562 46.789062 62.925781 46.917969 L 63.507812 48.488281 L 64.515625 48.789062 C 64.1875 48.160156 63.796875 47.46875 63.90625 46.730469 C 64.769531 49.125 67.199219 49.863281 69.097656 51.21875 C 69.238281 50.347656 69.359375 49.898438 68.628906 49.300781 C 67.773438 48.355469 66.136719 48.941406 65.636719 47.957031 C 66.113281 48.179688 66.601562 48.292969 67.132812 48.234375 L 66.898438 47.488281 C 67.554688 48.367188 68.574219 48.570312 69.425781 49.171875 C 69.789062 49.28125 69.3125 48.058594 69.75 48.140625 L 70.03125 49.824219 C 70.769531 49.601562 70.648438 48.878906 71.058594 48.421875 L 70.964844 49.449219 L 71.667969 48.890625 C 71.554688 50.671875 68.875 48.96875 70.441406 53.75 C 70.945312 54.636719 71.757812 55.238281 71.796875 53.703125 C 71.75 53.03125 70.84375 52.023438 71.425781 51.414062 C 71.414062 51.769531 71.523438 52.320312 71.796875 52.535156 C 71.816406 52.039062 71.9375 51.339844 72.359375 51.039062 L 72.171875 51.976562 C 72.441406 52.128906 72.957031 51.265625 72.921875 51.648438 L 72.183594 52.507812 L 72.351562 53.65625 C 72.640625 53.910156 73.292969 52.59375 73.519531 52.441406 L 73.191406 53.5625 L 74.125 53.285156 C 73.882812 53.890625 73.105469 53.796875 72.761719 54.117188 C 72.414062 54.433594 72.265625 54.957031 72.386719 55.152344 C 72.507812 55.351562 73.949219 55.761719 74.246094 55.910156 C 74.546875 56.0625 75.417969 56.769531 75.640625 56.722656 C 77.621094 55.699219 75.800781 54.359375 74.816406 53.367188 C 71.355469 49.585938 74.214844 48.019531 68.789062 47.617188 C 68.050781 47.460938 68.097656 47.328125 67.796875 47.292969 C 66.929688 47.199219 66.339844 47.507812 65.355469 47.019531 C 65.179688 46.925781 64.65625 46.636719 64.816406 46.441406 C 65.480469 46.898438 66.320312 46.9375 67.105469 46.90625 C 66.742188 46.421875 66.058594 46.011719 66.125 45.320312 C 66.65625 46.132812 67.507812 46.628906 68.414062 46.90625 L 67.667969 45.179688 L 67.851562 45.132812 C 68.75 46.863281 69.300781 47.273438 71.21875 47.28125 C 70.140625 45.585938 68.886719 45.890625 68.601562 44.664062 C 68.777344 44.796875 69.628906 45.550781 69.816406 45.414062 C 69.6875 45.058594 69.441406 44.261719 69.722656 44.011719 C 69.835938 44.699219 70.617188 46.234375 71.21875 46.246094 L 71.03125 44.09375 C 71.304688 44.046875 71.179688 44.160156 71.226562 44.308594 C 71.273438 44.457031 71.480469 45.589844 71.640625 45.582031 L 72.527344 44.273438 C 72.238281 46.441406 70.621094 45.703125 72.855469 47.917969 C 73.453125 47.476562 72.875 46.824219 72.808594 46.1875 C 72.742188 45.550781 72.734375 45.066406 73.089844 44.832031 L 73.089844 45.859375 C 73.472656 45.859375 73.527344 45.347656 73.835938 45.207031 C 73.855469 45.402344 73.761719 45.582031 73.667969 45.738281 C 73.304688 46.355469 73.136719 46.121094 73.554688 46.984375 C 73.640625 47.046875 74.386719 46.476562 74.492188 46.375 C 75.425781 45.488281 74.714844 45.65625 74.230469 44.953125 C 73.742188 44.253906 73.949219 44.515625 73.929688 44.273438 L 74.910156 45.207031 L 75.144531 45.066406 L 75.144531 43.71875 Z M 75.210938 43.71875 " fill-opacity="1" fill-rule="nonzero"/></g></svg>