<svg xmlns="http://www.w3.org/2000/svg" width="600" height="120" viewBox="178 48 200 55" preserveAspectRatio="xMidYMid meet" version="1.0">
<g fill="#1a2740" fill-opacity="1"><g transform="translate(184.451742, 93.749997)"><g><path d="M 20.671875 0.546875 C 17.191406 0.546875 14.0625 -0.25 11.28125 -1.84375 C 8.507812 -3.445312 6.316406 -5.75 4.703125 -8.75 C 3.097656 -11.757812 2.296875 -15.382812 2.296875 -19.625 C 2.296875 -23.875 3.097656 -27.503906 4.703125 -30.515625 C 6.316406 -33.535156 8.507812 -35.84375 11.28125 -37.4375 C 14.0625 -39.039062 17.191406 -39.84375 20.671875 -39.84375 C 24.148438 -39.84375 27.273438 -39.039062 30.046875 -37.4375 C 32.816406 -35.84375 35.003906 -33.535156 36.609375 -30.515625 C 38.222656 -27.503906 39.03125 -23.875 39.03125 -19.625 C 39.03125 -15.382812 38.222656 -11.753906 36.609375 -8.734375 C 35.003906 -5.722656 32.816406 -3.421875 30.046875 -1.828125 C 27.273438 -0.242188 24.148438 0.546875 20.671875 0.546875 Z M 20.671875 -6.59375 C 22.710938 -6.59375 24.492188 -7.09375 26.015625 -8.09375 C 27.546875 -9.09375 28.738281 -10.5625 29.59375 -12.5 C 30.445312 -14.445312 30.875 -16.820312 30.875 -19.625 C 30.875 -22.4375 30.445312 -24.816406 29.59375 -26.765625 C 28.738281 -28.710938 27.546875 -30.1875 26.015625 -31.1875 C 24.492188 -32.195312 22.710938 -32.703125 20.671875 -32.703125 C 18.648438 -32.703125 16.867188 -32.191406 15.328125 -31.171875 C 13.796875 -30.160156 12.601562 -28.6875 11.75 -26.75 C 10.894531 -24.8125 10.46875 -22.4375 10.46875 -19.625 C 10.46875 -16.820312 10.894531 -14.453125 11.75 -12.515625 C 12.601562 -10.585938 13.796875 -9.117188 15.328125 -8.109375 C 16.867188 -7.097656 18.648438 -6.59375 20.671875 -6.59375 Z M 20.671875 -6.59375 "/></g></g><g transform="translate(225.769123, 93.749997)"><g><path d="M 3.25 0 L 3.25 -29.109375 L 10.59375 -29.109375 L 10.921875 -22.015625 L 10.359375 -22.015625 C 10.816406 -23.773438 11.488281 -25.210938 12.375 -26.328125 C 13.269531 -27.441406 14.3125 -28.257812 15.5 -28.78125 C 16.695312 -29.3125 17.957031 -29.578125 19.28125 -29.578125 C 21.382812 -29.578125 23.117188 -28.914062 24.484375 -27.59375 C 25.847656 -26.28125 26.8125 -24.296875 27.375 -21.640625 L 26.46875 -21.640625 C 26.875 -23.441406 27.5625 -24.925781 28.53125 -26.09375 C 29.507812 -27.257812 30.671875 -28.128906 32.015625 -28.703125 C 33.367188 -29.285156 34.800781 -29.578125 36.3125 -29.578125 C 38.101562 -29.578125 39.707031 -29.1875 41.125 -28.40625 C 42.539062 -27.625 43.65625 -26.488281 44.46875 -25 C 45.28125 -23.519531 45.6875 -21.707031 45.6875 -19.5625 L 45.6875 0 L 37.8125 0 L 37.8125 -18.0625 C 37.8125 -19.726562 37.363281 -20.96875 36.46875 -21.78125 C 35.570312 -22.601562 34.460938 -23.015625 33.140625 -23.015625 C 32.140625 -23.015625 31.273438 -22.800781 30.546875 -22.375 C 29.816406 -21.945312 29.253906 -21.34375 28.859375 -20.5625 C 28.460938 -19.789062 28.265625 -18.878906 28.265625 -17.828125 L 28.265625 0 L 20.640625 0 L 20.640625 -18.296875 C 20.640625 -19.742188 20.210938 -20.890625 19.359375 -21.734375 C 18.515625 -22.585938 17.414062 -23.015625 16.0625 -23.015625 C 15.125 -23.015625 14.28125 -22.800781 13.53125 -22.375 C 12.789062 -21.957031 12.195312 -21.335938 11.75 -20.515625 C 11.3125 -19.703125 11.09375 -18.703125 11.09375 -17.515625 L 11.09375 0 Z M 3.25 0 "/></g></g><g transform="translate(274.680253, 93.749997)"><g><path d="M 11.515625 0.546875 C 9.660156 0.546875 7.992188 0.222656 6.515625 -0.421875 C 5.035156 -1.066406 3.875 -2.035156 3.03125 -3.328125 C 2.1875 -4.628906 1.765625 -6.234375 1.765625 -8.140625 C 1.765625 -9.773438 2.0625 -11.140625 2.65625 -12.234375 C 3.257812 -13.328125 4.078125 -14.207031 5.109375 -14.875 C 6.148438 -15.539062 7.332031 -16.046875 8.65625 -16.390625 C 9.988281 -16.734375 11.382812 -16.972656 12.84375 -17.109375 C 14.550781 -17.285156 15.921875 -17.445312 16.953125 -17.59375 C 17.992188 -17.75 18.75 -17.984375 19.21875 -18.296875 C 19.695312 -18.617188 19.9375 -19.09375 19.9375 -19.71875 L 19.9375 -19.859375 C 19.9375 -20.660156 19.753906 -21.347656 19.390625 -21.921875 C 19.035156 -22.492188 18.515625 -22.929688 17.828125 -23.234375 C 17.140625 -23.546875 16.300781 -23.703125 15.3125 -23.703125 C 14.3125 -23.703125 13.4375 -23.546875 12.6875 -23.234375 C 11.945312 -22.929688 11.34375 -22.519531 10.875 -22 C 10.40625 -21.476562 10.078125 -20.894531 9.890625 -20.25 L 2.640625 -21.171875 C 3.046875 -22.929688 3.816406 -24.429688 4.953125 -25.671875 C 6.097656 -26.921875 7.554688 -27.875 9.328125 -28.53125 C 11.109375 -29.195312 13.132812 -29.53125 15.40625 -29.53125 C 17.050781 -29.53125 18.613281 -29.335938 20.09375 -28.953125 C 21.582031 -28.566406 22.90625 -27.96875 24.0625 -27.15625 C 25.226562 -26.351562 26.140625 -25.332031 26.796875 -24.09375 C 27.460938 -22.851562 27.796875 -21.367188 27.796875 -19.640625 L 27.796875 0 L 20.28125 0 L 20.28125 -4.0625 L 20.046875 -4.0625 C 19.566406 -3.144531 18.9375 -2.335938 18.15625 -1.640625 C 17.375 -0.953125 16.4375 -0.414062 15.34375 -0.03125 C 14.257812 0.351562 12.984375 0.546875 11.515625 0.546875 Z M 13.734375 -4.953125 C 14.984375 -4.953125 16.070312 -5.195312 17 -5.6875 C 17.9375 -6.1875 18.664062 -6.847656 19.1875 -7.671875 C 19.71875 -8.492188 19.984375 -9.425781 19.984375 -10.46875 L 19.984375 -13.546875 C 19.742188 -13.410156 19.398438 -13.269531 18.953125 -13.125 C 18.515625 -12.988281 18.015625 -12.867188 17.453125 -12.765625 C 16.890625 -12.660156 16.320312 -12.5625 15.75 -12.46875 C 15.175781 -12.382812 14.65625 -12.304688 14.1875 -12.234375 C 13.238281 -12.097656 12.394531 -11.875 11.65625 -11.5625 C 10.914062 -11.25 10.34375 -10.832031 9.9375 -10.3125 C 9.53125 -9.800781 9.328125 -9.160156 9.328125 -8.390625 C 9.328125 -7.648438 9.515625 -7.023438 9.890625 -6.515625 C 10.273438 -6.003906 10.796875 -5.613281 11.453125 -5.34375 C 12.117188 -5.082031 12.878906 -4.953125 13.734375 -4.953125 Z M 13.734375 -4.953125 "/></g></g><g transform="translate(305.688063, 93.749997)"><g><path d="M 11.515625 0.546875 C 9.660156 0.546875 7.992188 0.222656 6.515625 -0.421875 C 5.035156 -1.066406 3.875 -2.035156 3.03125 -3.328125 C 2.1875 -4.628906 1.765625 -6.234375 1.765625 -8.140625 C 1.765625 -9.773438 2.0625 -11.140625 2.65625 -12.234375 C 3.257812 -13.328125 4.078125 -14.207031 5.109375 -14.875 C 6.148438 -15.539062 7.332031 -16.046875 8.65625 -16.390625 C 9.988281 -16.734375 11.382812 -16.972656 12.84375 -17.109375 C 14.550781 -17.285156 15.921875 -17.445312 16.953125 -17.59375 C 17.992188 -17.75 18.75 -17.984375 19.21875 -18.296875 C 19.695312 -18.617188 19.9375 -19.09375 19.9375 -19.71875 L 19.9375 -19.859375 C 19.9375 -20.660156 19.753906 -21.347656 19.390625 -21.921875 C 19.035156 -22.492188 18.515625 -22.929688 17.828125 -23.234375 C 17.140625 -23.546875 16.300781 -23.703125 15.3125 -23.703125 C 14.3125 -23.703125 13.4375 -23.546875 12.6875 -23.234375 C 11.945312 -22.929688 11.34375 -22.519531 10.875 -22 C 10.40625 -21.476562 10.078125 -20.894531 9.890625 -20.25 L 2.640625 -21.171875 C 3.046875 -22.929688 3.816406 -24.429688 4.953125 -25.671875 C 6.097656 -26.921875 7.554688 -27.875 9.328125 -28.53125 C 11.109375 -29.195312 13.132812 -29.53125 15.40625 -29.53125 C 17.050781 -29.53125 18.613281 -29.335938 20.09375 -28.953125 C 21.582031 -28.566406 22.90625 -27.96875 24.0625 -27.15625 C 25.226562 -26.351562 26.140625 -25.332031 26.796875 -24.09375 C 27.460938 -22.851562 27.796875 -21.367188 27.796875 -19.640625 L 27.796875 0 L 20.28125 0 L 20.28125 -4.0625 L 20.046875 -4.0625 C 19.566406 -3.144531 18.9375 -2.335938 18.15625 -1.640625 C 17.375 -0.953125 16.4375 -0.414062 15.34375 -0.03125 C 14.257812 0.351562 12.984375 0.546875 11.515625 0.546875 Z M 13.734375 -4.953125 C 14.984375 -4.953125 16.070312 -5.195312 17 -5.6875 C 17.9375 -6.1875 18.664062 -6.847656 19.1875 -7.671875 C 19.71875 -8.492188 19.984375 -9.425781 19.984375 -10.46875 L 19.984375 -13.546875 C 19.742188 -13.410156 19.398438 -13.269531 18.953125 -13.125 C 18.515625 -12.988281 18.015625 -12.867188 17.453125 -12.765625 C 16.890625 -12.660156 16.320312 -12.5625 15.75 -12.46875 C 15.175781 -12.382812 14.65625 -12.304688 14.1875 -12.234375 C 13.238281 -12.097656 12.394531 -11.875 11.65625 -11.5625 C 10.914062 -11.25 10.34375 -10.832031 9.9375 -10.3125 C 9.53125 -9.800781 9.328125 -9.160156 9.328125 -8.390625 C 9.328125 -7.648438 9.515625 -7.023438 9.890625 -6.515625 C 10.273438 -6.003906 10.796875 -5.613281 11.453125 -5.34375 C 12.117188 -5.082031 12.878906 -4.953125 13.734375 -4.953125 Z M 13.734375 -4.953125 "/></g></g><g transform="translate(336.695874, 93.749997)"><g><path d="M 14.03125 0.5 C 11.726562 0.5 9.671875 -0.0859375 7.859375 -1.265625 C 6.046875 -2.441406 4.613281 -4.144531 3.5625 -6.375 C 2.519531 -8.613281 2 -11.332031 2 -14.53125 C 2 -17.78125 2.535156 -20.515625 3.609375 -22.734375 C 4.679688 -24.960938 6.125 -26.648438 7.9375 -27.796875 C 9.75 -28.953125 11.757812 -29.53125 13.96875 -29.53125 C 15.539062 -29.53125 16.867188 -29.273438 17.953125 -28.765625 C 19.046875 -28.253906 19.945312 -27.609375 20.65625 -26.828125 C 21.375 -26.046875 21.929688 -25.234375 22.328125 -24.390625 L 22.546875 -24.390625 L 22.546875 -39.28125 L 30.40625 -39.28125 L 30.40625 0 L 22.65625 0 L 22.65625 -4.609375 L 22.359375 -4.609375 C 21.953125 -3.765625 21.382812 -2.953125 20.65625 -2.171875 C 19.925781 -1.390625 19.019531 -0.75 17.9375 -0.25 C 16.863281 0.25 15.5625 0.5 14.03125 0.5 Z M 16.34375 -5.828125 C 17.695312 -5.828125 18.847656 -6.191406 19.796875 -6.921875 C 20.742188 -7.648438 21.472656 -8.664062 21.984375 -9.96875 C 22.492188 -11.269531 22.75 -12.800781 22.75 -14.5625 C 22.75 -16.3125 22.5 -17.832031 22 -19.125 C 21.5 -20.414062 20.769531 -21.414062 19.8125 -22.125 C 18.851562 -22.84375 17.695312 -23.203125 16.34375 -23.203125 C 15.007812 -23.203125 13.867188 -22.84375 12.921875 -22.125 C 11.984375 -21.40625 11.273438 -20.394531 10.796875 -19.09375 C 10.316406 -17.789062 10.078125 -16.28125 10.078125 -14.5625 C 10.078125 -12.8125 10.316406 -11.28125 10.796875 -9.96875 C 11.273438 -8.664062 11.984375 -7.648438 12.921875 -6.921875 C 13.867188 -6.191406 15.007812 -5.828125 16.34375 -5.828125 Z M 16.34375 -5.828125 "/></g></g></g><g fill="#1a2740" fill-opacity="1"><g transform="translate(370.346266, 93.749997)"><g/></g></g>
</svg>