<svg xmlns="http://www.w3.org/2000/svg" xmlns:xlink="http://www.w3.org/1999/xlink" width="1024" zoomAndPan="magnify" viewBox="194.6 187.1 393.8 393.8" height="1024" preserveAspectRatio="xMidYMid meet" version="1.0"><defs><clipPath id="0aa89361cf"><path d="M 229 204.960938 L 554 204.960938 L 554 562.710938 L 229 562.710938 Z M 229 204.960938 " clip-rule="nonzero"/></clipPath><clipPath id="1b826e25a0"><path d="M 315.527344 292.707031 L 462.527344 292.707031 L 462.527344 453.957031 L 315.527344 453.957031 Z M 315.527344 292.707031 " clip-rule="nonzero"/></clipPath></defs><path fill="#c77b3c" d="M 545.8125 257.679688 L 391.523438 209.757812 L 237.304688 257.679688 C 237.304688 257.679688 199.769531 498.285156 391.523438 558.308594 C 583.347656 498.285156 545.8125 257.679688 545.8125 257.679688 Z M 545.8125 257.679688 " fill-opacity="1" fill-rule="nonzero"/><path fill="#c77b3c" d="M 391.523438 559.027344 L 391.308594 558.957031 C 347.398438 545.203125 311.941406 520.847656 285.941406 486.394531 C 265.097656 458.886719 250.269531 425.007812 241.746094 385.609375 C 227.277344 318.636719 236.445312 258.109375 236.515625 257.535156 L 236.585938 257.105469 L 391.523438 208.972656 L 391.738281 209.042969 L 546.457031 257.105469 L 546.53125 257.535156 C 546.601562 258.109375 555.769531 318.566406 541.300781 385.609375 C 532.777344 425.007812 517.949219 458.886719 497.105469 486.394531 C 471.105469 520.777344 435.648438 545.203125 391.738281 558.957031 Z M 237.949219 258.253906 C 237.160156 263.839844 229.496094 321.644531 243.25 385.394531 C 251.703125 424.578125 266.457031 458.316406 287.160156 485.605469 C 312.945312 519.703125 348.117188 543.914062 391.59375 557.523438 C 435.074219 543.839844 470.246094 519.628906 496.03125 485.535156 C 516.730469 458.171875 531.488281 424.433594 539.941406 385.253906 C 553.695312 321.5 546.027344 263.695312 545.242188 258.109375 L 391.523438 210.476562 Z M 237.949219 258.253906 " fill-opacity="1" fill-rule="nonzero"/><g clip-path="url(#0aa89361cf)"><path fill="#c77b3c" d="M 553.261719 296.144531 C 552.761719 272.578125 550.46875 257.609375 550.328125 257.035156 L 549.898438 254.242188 L 392.097656 205.101562 L 391.59375 204.960938 L 233.222656 254.167969 L 232.792969 256.964844 C 232.71875 257.609375 230.425781 272.648438 229.855469 296.074219 C 229.351562 317.777344 230.425781 351.011719 238.019531 386.398438 C 246.617188 426.367188 261.730469 460.75 282.859375 488.6875 C 309.363281 523.714844 345.464844 548.570312 390.164062 562.609375 L 391.523438 563.039062 L 392.882812 562.609375 C 437.582031 548.640625 473.683594 523.785156 500.1875 488.6875 C 521.316406 460.75 536.429688 426.296875 545.027344 386.398438 C 552.691406 351.085938 553.695312 317.777344 553.261719 296.144531 Z M 391.523438 214.488281 L 541.660156 261.117188 C 543.234375 273.796875 548.609375 326.585938 536.144531 384.464844 C 527.835938 423.074219 513.292969 456.308594 492.953125 483.171875 C 467.878906 516.335938 433.785156 539.972656 391.59375 553.441406 C 349.40625 539.972656 315.378906 516.335938 290.308594 483.242188 C 269.96875 456.382812 255.425781 423.214844 247.046875 384.609375 C 239.523438 350.152344 238.523438 317.707031 238.953125 296.503906 C 239.308594 279.382812 240.671875 266.777344 241.386719 261.191406 Z M 391.523438 214.488281 " fill-opacity="1" fill-rule="nonzero"/></g><g clip-path="url(#1b826e25a0)"><path fill="#1a2740" d="M 390.777344 292.835938 C 391.871094 294.023438 391.824219 296.304688 391.492188 297.828125 C 391.871094 298.230469 394.222656 295.238281 394.582031 294.976562 C 394.527344 296.695312 392.859375 297.855469 392.203125 299.253906 C 392.828125 299.484375 394.742188 298.464844 394.820312 299.253906 C 393.179688 300.25 391.730469 299.515625 390.183594 300.679688 C 387.972656 302.367188 385.335938 305.148438 387.808594 307.808594 C 388.328125 306.667969 389.828125 306.359375 390.539062 305.550781 C 391.253906 304.742188 391.515625 303.175781 392.324219 302.34375 L 391.964844 304.957031 L 395.054688 303.53125 C 394.628906 304.742188 393.34375 305.21875 392.441406 306.027344 L 394.105469 307.097656 L 391.085938 307.027344 C 388.589844 308.640625 388.496094 310.589844 390.847656 312.300781 C 390.96875 312.300781 392.679688 311.28125 392.796875 311.136719 C 393.15625 310.78125 393.367188 309.996094 393.75 309.472656 C 394.128906 308.949219 395.484375 307.714844 395.269531 308.378906 L 394.082031 310.875 L 398.359375 309.210938 L 395.746094 311.707031 L 397.886719 312.539062 C 396.863281 313.207031 395.246094 311.992188 394.507812 312.113281 C 393.773438 312.230469 392.679688 313.132812 392.535156 313.726562 C 392.394531 314.324219 395.554688 316.199219 396.125 316.53125 C 398.195312 313.800781 402.898438 313.703125 400.976562 309.378906 C 399.597656 306.3125 397.265625 307.738281 395.292969 305.550781 C 396.484375 305.648438 397.648438 306.242188 398.859375 305.789062 C 398.644531 303.078125 394.984375 302.84375 395.175781 299.964844 C 396.054688 300.75 396.839844 302.035156 398.144531 302.105469 C 398.050781 300.820312 398.742188 299.941406 398.121094 298.683594 C 397.503906 297.421875 395.082031 295.832031 395.054688 293.546875 C 395.699219 293.40625 395.460938 293.714844 395.652344 294.023438 C 396.148438 294.855469 396.53125 295.902344 397.433594 296.402344 C 397.527344 295.496094 397.386719 293.90625 398.144531 293.3125 C 398.265625 294.808594 397.695312 296.6875 398.976562 297.828125 L 400.40625 292.835938 C 400.546875 294 401.070312 295.261719 400.523438 296.402344 C 401.023438 296.804688 402.164062 294.640625 402.664062 294.5 C 402.542969 295.472656 401.972656 296.378906 401.378906 297.113281 C 400.785156 297.851562 400.546875 297.542969 400.355469 297.992188 C 400.167969 298.445312 399.929688 300.488281 400.070312 300.679688 C 404.078125 297.589844 403.902344 299.167969 403.636719 294.023438 L 404.707031 296.640625 L 406.964844 293.785156 C 406.851562 295.789062 405.558594 297.035156 404.585938 298.777344 C 406.085938 298.660156 407.558594 297.753906 408.628906 296.757812 C 409.699219 295.757812 409.4375 295.164062 410.054688 295.570312 L 408.390625 298.539062 L 412.195312 297.351562 C 409.839844 300.5625 405.0625 298.871094 402.09375 301.15625 C 399.738281 302.960938 400.570312 304.53125 402.328125 306.382812 C 404.640625 303.265625 404.332031 305.957031 405.0625 301.179688 C 406.132812 300.871094 405.015625 303.9375 405.894531 303.554688 C 406.773438 303.175781 409.601562 300.25 409.816406 300.464844 C 409.984375 301.226562 407.675781 303.007812 407.675781 303.199219 C 408.273438 303.9375 409.316406 303.316406 410.054688 303.675781 C 409.152344 304.769531 407.605469 303.960938 406.488281 304.386719 C 404.019531 305.78125 402.953125 307.84375 404.921875 309.925781 C 406.273438 308.832031 410.648438 307.929688 411.339844 306.382812 C 412.027344 304.839844 410.910156 301.820312 411.933594 300.203125 L 412.574219 303.960938 L 413.121094 304.601562 C 413.40625 303.886719 414.476562 302.984375 414.6875 302.34375 C 415.070312 301.203125 414.023438 298.660156 415.496094 297.566406 L 415.496094 300.894531 L 417.304688 298.300781 L 418.585938 297.089844 L 417.160156 300.417969 L 420.132812 299.230469 C 420.488281 299.800781 418.96875 300.632812 418.445312 300.871094 C 417.921875 301.105469 416.734375 301.25 416.519531 301.441406 C 416.304688 301.628906 415.855469 303.128906 415.496094 303.507812 C 417.542969 303.199219 419.015625 302.199219 420.371094 300.65625 L 419.539062 302.792969 L 422.152344 302.199219 C 420.347656 304.101562 417.445312 303.578125 415.164062 304.957031 C 412.882812 306.335938 413.359375 307.476562 412.167969 308.378906 C 415.023438 310.164062 416.257812 307.691406 418.585938 306.597656 L 416.6875 309.210938 L 419.894531 308.261719 C 420.0625 309.261719 417.851562 310.066406 416.921875 310.28125 C 413.121094 311.207031 410.316406 309.140625 406.820312 312.066406 C 405.777344 312.945312 405.300781 314.015625 404.445312 314.917969 C 403.089844 316.367188 399.976562 318.480469 400.570312 320.667969 L 402.09375 323.6875 C 404.246094 322.613281 414.460938 323.296875 411.21875 319.050781 C 410.71875 318.742188 408.582031 318.410156 408.175781 318.339844 C 407.121094 318.507812 405.144531 318.320312 404.585938 317.007812 L 407.203125 317.484375 C 407.320312 317.414062 405.753906 315.628906 406.371094 315.105469 C 407.628906 316.792969 408.769531 317.578125 411.003906 317.246094 C 410.554688 316.675781 410.957031 315.582031 410.71875 315.15625 C 410.480469 314.726562 408.246094 313.65625 408.628906 312.253906 L 410.648438 314.15625 C 411.078125 314.132812 411.3125 311.089844 411.957031 311.78125 C 411.625 312.300781 411.410156 315.320312 412.3125 315.105469 C 413.121094 314.300781 413.40625 313.539062 413.808594 312.539062 C 414.214844 311.542969 413.667969 311.898438 414.332031 312.015625 C 414.5 313.894531 413.597656 315.273438 412.503906 316.652344 L 413.976562 318.671875 C 414.285156 318.671875 416.472656 314.894531 416.949219 314.273438 C 418.089844 312.871094 422.035156 309.878906 421.9375 308.117188 C 421.84375 306.359375 420.679688 305.765625 421.226562 304.410156 L 422.652344 307.027344 L 423.839844 302.984375 C 424.609375 303.125 423.5625 305.800781 423.839844 306.550781 C 424.316406 307.074219 425.8125 304.648438 426.453125 305.003906 C 426.242188 306.480469 423.910156 307.382812 423.4375 308.046875 C 422.960938 308.714844 423.054688 310.210938 422.414062 310.828125 C 428.335938 309.277344 425.585938 307.925781 428.117188 304.648438 L 427.644531 308.214844 C 428.148438 308.953125 431.988281 303.730469 431.921875 305.003906 C 431.921875 305.003906 430.257812 307.738281 430.257812 307.738281 L 433.824219 307.382812 C 432.136719 309.1875 429.355469 307.90625 428.117188 309.878906 C 429.757812 309.710938 431.542969 310.328125 433.109375 309.757812 C 434.679688 309.1875 434.703125 307.691406 435.699219 307.261719 L 434.75 309.402344 L 437.601562 308.808594 L 434.039062 310.828125 L 437.128906 311.542969 C 435.390625 312.421875 433.679688 311.304688 432.253906 311.183594 C 429.976562 310.988281 427.105469 311.277344 425.242188 311.78125 C 424.816406 312.207031 429.1875 313.585938 429.757812 312.730469 L 429.757812 313.207031 C 427.644531 314.558594 425.078125 312.847656 423.246094 312.992188 C 421.414062 313.132812 418.351562 316.152344 418.375 317.984375 C 419.300781 317.648438 420.273438 317.839844 421.226562 317.648438 C 422.746094 317.339844 424.007812 316.246094 425.503906 315.867188 L 423.363281 318.246094 C 424.292969 318.507812 425.3125 318.695312 426.21875 318.246094 C 426.714844 318.886719 424.363281 319.335938 423.933594 319.335938 C 421.675781 319.386719 421.25 318.765625 418.707031 319.859375 C 416.164062 320.953125 416.425781 322.5 414.949219 324.1875 C 409.144531 329.804688 398.921875 326.96875 396.53125 337.949219 C 405.296875 334.273438 405.734375 331.710938 416.140625 332.695312 C 417.398438 332.503906 420.84375 329.9375 420.773438 328.582031 C 420.703125 327.230469 419.871094 325.328125 419.777344 325.183594 C 419.492188 324.734375 417.351562 324.042969 417.707031 322.5 L 419.371094 323.925781 C 419.460938 323.449219 419.554688 321.152344 420.085938 321.3125 C 420.0625 322.429688 420.132812 323.757812 420.917969 324.636719 C 421.890625 323.519531 422.746094 322.429688 422.816406 320.835938 C 424.609375 323.34375 420.367188 325.546875 422.582031 327.015625 C 423.554688 325.96875 424.339844 324.613281 425.3125 323.570312 C 426.289062 322.523438 428.332031 321.144531 428.523438 320.835938 C 428.949219 318.089844 430.101562 315.09375 432.324219 313.230469 C 432.730469 313.726562 431.066406 316.175781 431.257812 316.320312 C 433.039062 316.222656 434.273438 314.894531 435.414062 313.703125 C 435.652344 314.371094 434.632812 315.726562 434.109375 316.199219 C 432.683594 317.53125 430.496094 317.292969 430.78125 319.882812 C 436.769531 318.3125 437.160156 317.664062 439.527344 312.800781 C 439.605469 311.980469 439.039062 309.179688 439.597656 308.238281 L 440.3125 312.039062 L 442.570312 309.664062 C 443.164062 310.828125 438.886719 314.84375 439.597656 315.605469 C 442.402344 314.632812 443.996094 312.445312 445.660156 310.140625 C 445.636719 311.660156 444.683594 312.992188 443.878906 314.179688 C 445.28125 314.085938 446.445312 313.230469 447.609375 312.5625 C 448.773438 311.898438 448.203125 312.039062 448.394531 312.398438 C 446.207031 315.84375 441.476562 314.941406 439.125 318.222656 L 444.234375 318.222656 C 444.449219 318.222656 446.253906 317.554688 446.46875 317.363281 C 447.300781 316.675781 448.0625 314.585938 449.226562 313.941406 L 448.273438 316.792969 L 453.386719 313.941406 C 453.621094 314.75 451.152344 316.414062 451.246094 316.558594 L 455.761719 317.152344 C 454.296875 318.367188 451.246094 317.570312 449.820312 317.390625 C 449.226562 317.53125 448.488281 318.457031 447.679688 318.480469 C 448.550781 319.78125 454.910156 318.992188 456.238281 319.195312 C 454.910156 320.175781 452.816406 320 451.246094 320.382812 L 453.621094 322.285156 C 451.984375 322.925781 450.605469 320.644531 449.890625 320.429688 C 444.21875 319.429688 432.636719 320.109375 428.902344 325.375 C 434.910156 325.839844 433.835938 325.546875 439.550781 323.308594 C 441.359375 322.785156 443.234375 322.832031 444.828125 322.402344 C 446.421875 321.976562 446.253906 321.144531 447.203125 321.097656 L 446.253906 322.761719 L 450.058594 323.472656 C 448.867188 324.355469 443.480469 322.679688 443.640625 323.949219 C 444.851562 323.996094 446.753906 325.613281 447.800781 325.613281 L 451.363281 325.613281 C 451.410156 325.613281 451.792969 325.113281 451.957031 325.492188 C 451.03125 326.46875 449.414062 326.585938 448.15625 326.5625 C 448.820312 327.609375 450.296875 328.226562 451.484375 328.464844 C 450.40625 329.699219 447.199219 327.617188 446.492188 326.683594 C 445.566406 326.089844 442.214844 324.898438 441.144531 324.875 C 439.265625 324.828125 437.316406 326.96875 435.582031 327.515625 C 436.589844 328.6875 439.007812 329.078125 440.453125 329.203125 C 441.308594 329.179688 442.902344 327.324219 444.375 327.515625 L 442.710938 329.179688 L 446.277344 329.890625 L 441.050781 330.367188 C 442.378906 331.746094 444.542969 331.910156 446.277344 332.503906 C 446.363281 333.046875 443.675781 332.628906 443.1875 332.742188 L 443.902344 335.359375 C 442.6875 335.097656 442.378906 332.695312 442 332.386719 C 441.621094 332.078125 439.074219 330.769531 438.910156 330.722656 C 435.234375 330.507812 433.148438 328.214844 429.285156 328.464844 C 426.074219 328.703125 425.789062 329.464844 424.648438 332.03125 C 426.289062 331.484375 427.714844 332.980469 429.046875 332.980469 C 430.375 332.980469 431.492188 332.007812 432.730469 332.03125 L 430.828125 333.574219 C 430.828125 334.121094 432.992188 333.90625 433.441406 333.933594 C 433.039062 334.667969 431.753906 334.714844 430.945312 334.644531 C 428.117188 334.429688 425.980469 333.363281 423.101562 334.644531 C 421.34375 335.429688 420.488281 337.285156 418.707031 338.089844 C 415.261719 339.683594 412.382812 337.570312 408.484375 340.707031 C 408.105469 341.015625 405.015625 344.058594 405.394531 344.390625 C 413.675781 342.230469 413.925781 342.875 421.652344 344.890625 C 424.316406 344.882812 431.953125 343.355469 430.6875 339.636719 C 430.210938 338.875 427.976562 338.019531 428.425781 336.308594 L 430.210938 338.210938 L 430.804688 338.449219 C 430.996094 338.304688 431.042969 336.214844 431.753906 336.070312 L 431.992188 339.398438 C 432.230469 339.636719 434.085938 338.851562 434.441406 338.636719 C 436.792969 337.332031 435.320312 335.90625 436.035156 333.695312 C 436.769531 333.90625 436.203125 336.144531 436.867188 336.785156 L 439.125 333.457031 C 440.191406 334.164062 437.964844 336.804688 437.699219 337.734375 L 441.023438 337.140625 C 439.90625 338.828125 437.746094 338.402344 436.296875 339.066406 C 433.953125 340.453125 432.726562 340.90625 432.253906 342.964844 C 436.746094 342.726562 439.859375 339.589844 443.902344 338.089844 C 444.757812 336.117188 445.613281 335.238281 447.585938 334.40625 L 448.179688 331.316406 C 449.054688 330.667969 448.511719 333.507812 448.65625 333.933594 C 449.773438 333.789062 450.554688 332.910156 451.269531 332.148438 C 451.984375 331.386719 451.792969 330.867188 451.933594 331.863281 C 451.199219 335.382812 446.96875 334.714844 446.277344 337.734375 C 447.824219 338.042969 453.027344 336.878906 453.859375 335.691406 C 454.503906 334.738281 454.738281 332.839844 455.90625 332.03125 C 456.523438 331.984375 456.164062 332.125 456.070312 332.433594 C 455.785156 333.410156 455.285156 334.335938 455.074219 335.335938 L 459.828125 333.195312 C 457.175781 336.785156 451.671875 337.082031 460.183594 337 C 460.398438 337 461.039062 336.546875 461.488281 336.761719 C 457.957031 339.828125 453.761719 336.425781 451.984375 338.875 C 456.351562 340.445312 457.90625 339.621094 462.203125 338.898438 L 459.351562 340.445312 L 462.679688 342.226562 C 461.015625 342.796875 458.875 340.992188 457.757812 340.847656 C 456.640625 340.707031 455.023438 341.15625 453.765625 341.039062 C 450.367188 340.117188 446.082031 339.226562 442.949219 341.632812 C 445.777344 342.417969 448.917969 345.199219 451.984375 344.269531 C 455.046875 343.34375 453.859375 341.964844 455.046875 342.347656 L 453.621094 344.128906 L 457.902344 342.941406 C 457.210938 344.152344 455.714844 344.390625 454.574219 344.960938 L 458.375 346.03125 C 456.378906 347.003906 454.144531 345.578125 452.554688 345.554688 C 450.960938 345.53125 450.390625 346.101562 449.226562 346.03125 C 445.066406 345.324219 441.511719 342.449219 437.222656 345.316406 C 437.078125 345.886719 437.316406 345.699219 437.53125 345.839844 C 438.625 346.601562 441.40625 347.980469 442.6875 347.597656 C 443.972656 347.21875 444.589844 345.984375 445.542969 346.386719 L 444.113281 347.695312 L 447.441406 347.457031 C 446.945312 348.265625 445.660156 348.335938 444.828125 348.644531 C 444.496094 349.121094 446.707031 350.570312 446.96875 351.023438 C 444.757812 350.925781 444.066406 348.265625 441.738281 348.882812 C 441.621094 350.449219 442.972656 351.210938 443.878906 352.210938 C 441.953125 352.660156 440.8125 349.308594 440.3125 349 C 431.734375 344.539062 429.5625 349.21875 421.773438 350.308594 C 421.082031 350.878906 424.792969 351.925781 425.101562 351.972656 C 423.601562 353.445312 420.84375 353.304688 419.085938 352.398438 C 418.089844 351.902344 417.136719 350.449219 416.089844 350.164062 C 412.574219 349.238281 407.226562 352.683594 405.132812 355.417969 C 406.953125 379.617188 410.710938 416.546875 409.460938 437.824219 C 411.457031 439.894531 414.476562 441.582031 417.375 441.792969 C 420.273438 442.007812 422.175781 441.128906 424.695312 441.84375 C 427.097656 442.53125 428.59375 444.765625 430.828125 445.691406 C 434.488281 447.214844 439.671875 446.023438 442.949219 448.902344 C 439.457031 448.757812 435.84375 449.089844 432.375 448.902344 C 425.789062 448.542969 419.347656 445.835938 412.765625 447.238281 C 412.890625 448.816406 420.875 449.449219 422.984375 451.398438 C 426.097656 453.535156 423.816406 451.992188 423.601562 452.207031 C 418.96875 451.375 414.453125 451.160156 409.886719 449.996094 C 406.84375 449.210938 401.308594 446.785156 398.40625 447.6875 C 395.507812 448.59375 397.980469 447.546875 398.074219 448.164062 C 400.738281 449.804688 404.207031 450.089844 406.394531 452.441406 C 403.753906 451.992188 401.09375 451.660156 398.503906 450.945312 C 395.910156 450.230469 392.277344 448.332031 390.824219 448.378906 C 389.375 448.425781 389.421875 448.804688 389.304688 449.519531 C 389.066406 451.039062 393.390625 452.964844 392.820312 453.632812 L 386.738281 451.492188 L 379.273438 453.632812 C 380.082031 451.945312 384.148438 450.875 384.644531 449.375 C 386.023438 445.507812 366.839844 452.941406 364.203125 452.230469 C 358.097656 452.632812 363.085938 452.394531 363.136719 451.992188 C 366.199219 449.996094 369.695312 449.140625 373.117188 447.949219 C 373.070312 447.617188 372.785156 447.546875 372.523438 447.5 C 363.992188 446.425781 355.0625 450.027344 346.757812 451.0625 C 346.519531 450.898438 349.941406 449.1875 350.253906 448.972656 C 350.5625 448.757812 350.703125 449.019531 350.5625 448.449219 L 332.496094 449.164062 C 333.398438 448.257812 335.015625 447.785156 336.253906 447.332031 C 337.488281 446.882812 340.671875 445.644531 342.195312 445.429688 C 345.640625 444.957031 348.445312 446.308594 351.820312 444.835938 C 359.589844 439.039062 361.882812 444.511719 368.363281 440.820312 C 366.808594 412.640625 370.003906 384.113281 371.265625 355.894531 C 371.050781 354.183594 365.605469 351.09375 363.96875 350.832031 C 361.566406 350.449219 359.640625 351.308594 356.953125 350.710938 C 354.269531 350.117188 352.058594 348.074219 350.917969 348.003906 C 349.113281 347.882812 346.519531 350.710938 344.40625 349.476562 C 342.289062 348.242188 345.734375 348.621094 346.164062 348.359375 C 346.757812 348.003906 347.210938 347.3125 347.757812 346.863281 C 345.523438 346.03125 342.980469 346.410156 340.625 346.125 C 340.078125 346.269531 338.488281 347.671875 338.128906 348.167969 C 337.320312 349.238281 337.15625 350.785156 335.632812 351.257812 L 336.585938 348.882812 C 335.445312 349.5 334.042969 349.476562 332.78125 349.238281 C 334.707031 348.335938 337.226562 348.144531 338.011719 345.792969 C 336.988281 345.816406 336.15625 345.386719 335.085938 345.601562 C 333.507812 345.925781 330.332031 349.328125 328.980469 347.695312 C 330.667969 347.242188 331.972656 346.054688 333.257812 344.960938 L 331.214844 344.128906 C 329.90625 344.035156 327.554688 345.578125 326.839844 346.625 C 326.128906 347.671875 326.101562 349.121094 324.699219 349.359375 L 325.652344 347.21875 C 324.464844 347.8125 323.203125 348.3125 321.847656 348.167969 L 325.152344 346.363281 L 326.839844 344.722656 C 325.867188 344.53125 324.726562 344.484375 324.226562 343.414062 C 326.480469 344.695312 332.238281 342.589844 327.601562 341.585938 C 324.011719 340.277344 323.988281 343.367188 321.683594 344.792969 C 319.375 346.21875 319.734375 345.554688 318.757812 345.554688 C 320.105469 344.652344 322.738281 343.4375 322.800781 341.777344 C 320.851562 342.179688 318.902344 342.511719 316.90625 342.085938 C 314.90625 341.65625 315.667969 341.894531 315.667969 341.5625 C 316.429688 341.632812 320.136719 341.324219 320.421875 340.730469 C 319.234375 340.160156 317.925781 339.398438 317.570312 337.996094 C 322.769531 340.886719 320.734375 340.082031 326.128906 339.660156 C 324.859375 338.363281 321.636719 336.800781 321.730469 334.929688 L 324.9375 337.070312 L 325.652344 334.453125 L 325.867188 337.664062 C 326.484375 338.105469 334.4375 344.121094 333.921875 341.75 C 333.472656 338.996094 331.046875 339.113281 329.691406 337.1875 L 333.496094 338.496094 L 333.019531 335.882812 C 334.121094 335.742188 334.296875 338.71875 334.636719 339.375 C 334.992188 340.324219 336.085938 342.0625 336.585938 342.417969 C 337.085938 342.773438 339.246094 342.964844 340.03125 343.011719 C 340.816406 343.058594 341.601562 343.203125 341.339844 342.65625 C 340.460938 340.683594 337.582031 341.417969 337.296875 339.207031 L 339.675781 340.398438 C 339.816406 340.230469 338.75 338.28125 339.320312 337.78125 C 340.054688 338.636719 340.269531 340.136719 341.578125 340.398438 L 342.410156 337.542969 C 343.214844 338.78125 342.574219 340.160156 342.3125 341.417969 C 343.476562 343.273438 345.378906 342.609375 347.136719 342.773438 C 348.898438 342.941406 349.917969 343.105469 351.296875 343.25 C 351.511719 339.828125 347.375 341.347656 346.78125 338.496094 C 347.660156 339.042969 348.539062 339.753906 349.632812 339.683594 L 349.160156 337.070312 L 350.917969 339.183594 L 352.25 336.832031 C 352.558594 337.925781 352.25 339.113281 351.582031 340.039062 C 353.53125 341.585938 352.84375 343.25 355.242188 344.390625 C 358.785156 346.078125 362.230469 344.390625 365.914062 344.652344 C 369.601562 344.914062 368.671875 345.269531 370.074219 345.363281 C 369.605469 344.0625 364.335938 339.273438 363.492188 338.519531 C 362.183594 337.757812 359.5 337.617188 357.929688 337.1875 C 355.527344 336.523438 350.226562 334.335938 348.066406 334.453125 C 345.902344 334.574219 345.070312 335.644531 343.476562 335.832031 C 341.886719 336.023438 340.269531 336.117188 339.390625 334.953125 C 341.21875 335.097656 343.144531 334.8125 344.617188 333.648438 C 337.25 330.09375 335.992188 335.308594 329.882812 334.714844 L 332.972656 333.527344 C 332.972656 333.148438 330.261719 332.433594 330.832031 331.863281 C 332.878906 332.695312 334.753906 332.957031 336.703125 331.675781 C 338.652344 330.390625 337.132812 331.699219 337.011719 331.152344 C 335.632812 331.03125 333.710938 329.9375 332.355469 329.984375 C 329.882812 330.789062 327.433594 332.703125 324.152344 331.601562 L 328.027344 330.605469 L 329.859375 329.464844 C 328.882812 329.628906 327.433594 328.773438 326.648438 328.773438 C 325.015625 329.109375 323.042969 329.875 321.300781 329.226562 C 321.371094 328.636719 324.628906 328.574219 325.34375 328.273438 L 323.203125 326.492188 L 322.492188 325.421875 C 324.425781 326.472656 327.035156 328.113281 329.144531 328.011719 C 327.742188 326.847656 326.53125 325.589844 325.816406 323.855469 C 326.199219 323.355469 326.222656 323.878906 326.363281 324.042969 C 328.765625 326.660156 328.597656 326.375 328.789062 322.785156 C 330.988281 325.960938 325.828125 327.308594 335.085938 328.726562 C 335.640625 328.527344 329.722656 323.734375 330.929688 323.734375 C 330.929688 323.734375 333.898438 325.636719 333.898438 325.636719 C 334.019531 324.6875 333.542969 323.78125 333.449219 322.878906 C 333.351562 321.976562 333.496094 322.546875 333.898438 322.546875 C 335.113281 325.148438 334.257812 327.011719 337.109375 328.488281 C 340.03125 330.605469 347.683594 331.007812 351.535156 331.648438 C 354.601562 332.171875 357.621094 333.148438 360.757812 333.242188 C 360.851562 333.148438 360.449219 330.867188 360.257812 330.53125 C 359.617188 329.390625 355.171875 327.894531 353.890625 327.894531 C 352.605469 327.894531 350.917969 329.628906 349.585938 328.371094 L 352.203125 327.777344 C 352.34375 327.230469 352.105469 327.394531 351.890625 327.230469 C 351.371094 326.824219 350.585938 326.585938 350.300781 325.875 C 351.890625 326.230469 353.367188 327.085938 355.054688 326.824219 L 353.390625 323.972656 C 353.628906 323.6875 356.242188 326.5625 356.621094 326.800781 C 357.714844 327.441406 359.164062 327.324219 360.257812 328.011719 C 361.429688 322.644531 354.21875 321.597656 350.441406 322.617188 C 347.28125 323.617188 348.375 324.140625 346.6875 326.230469 C 345 328.324219 345.191406 327.917969 344.546875 327.65625 C 345.6875 326.730469 346.140625 325.28125 346.6875 323.972656 C 346.519531 323.855469 344.121094 324.140625 343.761719 324.257812 C 342.269531 325.523438 340.320312 327.121094 338.128906 326.824219 L 340.816406 325.351562 L 342.171875 323.972656 C 341.007812 323.75 338.511719 323.605469 337.890625 322.785156 C 341.457031 322.546875 345.925781 323.285156 348.824219 320.882812 C 347.875 320.859375 346.617188 319.859375 345.808594 319.742188 C 343.632812 319.898438 339.820312 321.371094 337.890625 319.21875 C 339.9375 319.527344 341.839844 319.21875 343.835938 318.742188 C 343.167969 318.246094 341.457031 316.867188 340.746094 316.699219 C 340.03125 316.53125 336.609375 318.457031 335.039062 317.316406 L 338.84375 316.011719 C 337.394531 315.605469 335.847656 314.988281 334.800781 313.871094 L 339.082031 314.941406 C 338.320312 313.847656 337.226562 312.800781 337.179688 311.375 C 338.796875 313.0625 340.269531 315.011719 342.527344 315.890625 C 342.367188 315.046875 340.617188 311.558594 341.695312 311.375 C 342.90625 314.511719 344.308594 317.269531 347.757812 318.269531 L 346.902344 315.796875 L 345.261719 313.15625 C 345.214844 312.96875 345.5 313.015625 345.617188 313.039062 C 347.351562 313.585938 348.660156 317.53125 350.726562 318.625 C 352.796875 319.71875 357.8125 319.171875 360.734375 320.621094 C 359.796875 318.152344 354.082031 316.90625 352.890625 315.511719 C 351.605469 315.082031 349.777344 315.820312 348.613281 314.558594 L 351.464844 314.441406 C 350.894531 314.015625 350.132812 312.421875 349.730469 312.136719 C 349.324219 311.851562 348.445312 311.78125 347.875 311.46875 C 347.304688 311.160156 345.285156 309.425781 346.710938 310.019531 C 348.136719 310.613281 348.96875 311.234375 349.0625 311.113281 L 348.113281 307.90625 L 348.589844 307.785156 C 349.347656 310.066406 350.703125 312.160156 352.746094 313.492188 L 351.203125 308.976562 C 351.820312 308.832031 351.632812 309.164062 351.820312 309.425781 C 352.320312 310.042969 352.605469 310.828125 353.222656 311.351562 L 355.007812 309.449219 C 355.195312 310.378906 353.699219 311.636719 353.675781 312.183594 C 354.0625 315.089844 357.933594 316.253906 360.355469 317.054688 C 361.304688 317.339844 360.402344 315.082031 360.234375 314.871094 C 360.070312 314.65625 356.289062 312.445312 356.90625 311.851562 L 360.234375 313.515625 L 359.523438 311.019531 L 359.996094 310.898438 L 361.78125 314.226562 L 363.324219 312.089844 C 363.632812 313.441406 362.089844 314.941406 362.136719 315.960938 C 362.253906 317.960938 363.253906 319.101562 363.847656 320.714844 C 364.441406 322.332031 364.324219 323.546875 365.226562 324.921875 C 370.460938 322.632812 364.347656 318.105469 365.226562 314.488281 L 366.535156 317.339844 L 367.960938 313.777344 L 367.601562 316.628906 L 369.980469 315.203125 C 370.40625 315.726562 368.054688 317.648438 367.628906 317.960938 L 368.792969 320.90625 C 369.265625 321.285156 370.71875 316.035156 371.40625 315.914062 L 370.929688 319.480469 C 371.238281 319.8125 372.902344 318.625 373.1875 318.292969 C 373.617188 319.835938 370.859375 320.265625 370.335938 320.90625 C 369.8125 321.546875 369.503906 323.949219 368.792969 324.921875 C 369.648438 325.019531 370.550781 325.398438 371.40625 325.042969 C 372.261719 324.6875 373.09375 322.785156 373.664062 322.546875 C 374.234375 322.308594 374.117188 322.59375 374.019531 322.902344 L 372.832031 325.160156 L 376.398438 324.328125 C 375.28125 325.636719 373.523438 326.039062 371.882812 326.351562 L 374.496094 328.011719 C 372.902344 328.609375 371.644531 327.039062 370.574219 326.847656 C 368.957031 326.539062 366.582031 326.660156 366.320312 328.703125 C 366.867188 334.855469 375.636719 334.441406 379.75 337.425781 C 380.605469 336.402344 381.34375 335.191406 382.246094 334.191406 C 383.148438 333.195312 385.027344 331.769531 385.476562 331.007812 C 386.308594 326.964844 377.96875 325.597656 376.089844 322.070312 C 373.996094 319.148438 375.210938 316.105469 372.878906 313.632812 C 369.980469 310.589844 367.460938 311.421875 363.753906 310.875 C 360.046875 310.328125 357.214844 308.761719 353.792969 308 C 352.582031 307.714844 350.539062 307.214844 350.0625 305.933594 C 351.34375 306.691406 352.84375 307.097656 354.339844 307.121094 C 353.628906 306.21875 352.460938 305.078125 352.796875 303.792969 C 353.890625 305.648438 355.433594 307 357.429688 307.832031 C 357.445312 307.246094 355.355469 304.46875 356.457031 304.507812 C 358.476562 308.808594 362.566406 309.449219 366.914062 309.261719 C 364.171875 306.082031 357.378906 306.511719 356.335938 301.652344 C 356.644531 302.082031 359.425781 304.648438 359.785156 304.269531 C 360.136719 303.621094 358.722656 300.640625 359.546875 300.964844 L 361.019531 304.957031 L 363.585938 305.71875 C 362.753906 304.125 361.757812 302.367188 362.042969 300.488281 C 364.226562 306.574219 370.40625 308.453125 375.234375 311.898438 C 375.589844 309.6875 375.898438 308.546875 374.042969 307.027344 C 371.863281 304.625 367.707031 306.117188 366.4375 303.601562 C 367.652344 304.171875 368.886719 304.457031 370.242188 304.316406 L 369.648438 302.414062 C 371.3125 304.648438 373.902344 305.171875 376.066406 306.691406 C 376.992188 306.976562 375.78125 303.863281 376.898438 304.078125 L 377.609375 308.355469 C 379.488281 307.785156 379.179688 305.957031 380.226562 304.792969 L 379.988281 307.40625 L 381.769531 305.980469 C 381.480469 310.511719 374.671875 306.183594 378.65625 318.339844 C 379.929688 320.585938 381.996094 322.121094 382.101562 318.222656 C 381.984375 316.507812 379.679688 313.941406 381.152344 312.398438 C 381.125 313.304688 381.402344 314.699219 382.101562 315.25 C 382.148438 313.988281 382.457031 312.207031 383.527344 311.445312 L 383.054688 313.824219 C 383.738281 314.21875 385.046875 312.015625 384.953125 312.992188 L 383.078125 315.179688 L 383.503906 318.101562 C 384.242188 318.742188 385.90625 315.390625 386.476562 315.011719 L 385.644531 317.863281 L 388.019531 317.152344 C 387.402344 318.695312 385.429688 318.457031 384.550781 319.265625 C 383.671875 320.074219 383.289062 321.40625 383.601562 321.90625 C 383.910156 322.402344 387.570312 323.449219 388.328125 323.832031 C 389.089844 324.210938 391.300781 326.015625 391.871094 325.898438 C 396.910156 323.292969 392.277344 319.890625 389.78125 317.363281 C 380.976562 307.753906 388.25 303.761719 374.449219 302.746094 C 372.570312 302.34375 372.691406 302.011719 371.929688 301.914062 C 369.71875 301.675781 368.222656 302.460938 365.726562 301.226562 C 365.273438 300.988281 363.941406 300.25 364.347656 299.753906 C 366.035156 300.917969 368.175781 301.011719 370.171875 300.941406 C 369.242188 299.703125 367.507812 298.660156 367.675781 296.898438 C 369.03125 298.96875 371.191406 300.226562 373.5 300.941406 L 371.597656 296.542969 L 372.070312 296.425781 C 374.355469 300.828125 375.757812 301.867188 380.628906 301.890625 C 377.890625 297.582031 374.699219 298.351562 373.972656 295.238281 C 374.425781 295.570312 376.589844 297.496094 377.0625 297.136719 C 376.734375 296.234375 376.105469 294.214844 376.824219 293.574219 C 377.109375 295.328125 379.097656 299.230469 380.628906 299.253906 L 380.152344 293.785156 C 380.84375 293.667969 380.535156 293.953125 380.652344 294.332031 C 380.769531 294.714844 381.292969 297.589844 381.699219 297.566406 L 383.957031 294.238281 C 383.222656 299.753906 379.113281 297.878906 384.789062 303.507812 C 386.308594 302.390625 384.835938 300.726562 384.667969 299.109375 C 384.503906 297.496094 384.480469 296.257812 385.382812 295.664062 L 385.382812 298.277344 C 386.355469 298.277344 386.5 296.972656 387.285156 296.613281 C 387.332031 297.113281 387.09375 297.566406 386.855469 297.96875 C 385.929688 299.539062 385.5 298.945312 386.570312 301.132812 C 386.785156 301.296875 388.6875 299.847656 388.949219 299.585938 C 391.324219 297.328125 389.519531 297.753906 388.28125 295.972656 C 387.046875 294.191406 387.570312 294.855469 387.523438 294.238281 L 390.015625 296.613281 L 390.613281 296.257812 L 390.613281 292.835938 Z M 390.777344 292.835938 " fill-opacity="1" fill-rule="nonzero"/></g></svg>