<svg xmlns="http://www.w3.org/2000/svg" xmlns:xlink="http://www.w3.org/1999/xlink" width="800" zoomAndPan="magnify" viewBox="-0.2 -3.8 384.5 157.7" height="200" preserveAspectRatio="xMidYMid meet" version="1.0"><defs><g/><clipPath id="d0d4ff8507"><path d="M 18 3.972656 L 149 3.972656 L 149 147.222656 L 18 147.222656 Z M 18 3.972656 " clip-rule="nonzero"/></clipPath><clipPath id="38aa2f0f10"><path d="M 53.355469 35.921875 L 114.855469 35.921875 L 114.855469 103.421875 L 53.355469 103.421875 Z M 53.355469 35.921875 " clip-rule="nonzero"/></clipPath></defs><g fill="#faf8f4" fill-opacity="1"><g transform="translate(184.451742, 93.749997)"><g><path d="M 20.671875 0.546875 C 17.191406 0.546875 14.0625 -0.25 11.28125 -1.84375 C 8.507812 -3.445312 6.316406 -5.75 4.703125 -8.75 C 3.097656 -11.757812 2.296875 -15.382812 2.296875 -19.625 C 2.296875 -23.875 3.097656 -27.503906 4.703125 -30.515625 C 6.316406 -33.535156 8.507812 -35.84375 11.28125 -37.4375 C 14.0625 -39.039062 17.191406 -39.84375 20.671875 -39.84375 C 24.148438 -39.84375 27.273438 -39.039062 30.046875 -37.4375 C 32.816406 -35.84375 35.003906 -33.535156 36.609375 -30.515625 C 38.222656 -27.503906 39.03125 -23.875 39.03125 -19.625 C 39.03125 -15.382812 38.222656 -11.753906 36.609375 -8.734375 C 35.003906 -5.722656 32.816406 -3.421875 30.046875 -1.828125 C 27.273438 -0.242188 24.148438 0.546875 20.671875 0.546875 Z M 20.671875 -6.59375 C 22.710938 -6.59375 24.492188 -7.09375 26.015625 -8.09375 C 27.546875 -9.09375 28.738281 -10.5625 29.59375 -12.5 C 30.445312 -14.445312 30.875 -16.820312 30.875 -19.625 C 30.875 -22.4375 30.445312 -24.816406 29.59375 -26.765625 C 28.738281 -28.710938 27.546875 -30.1875 26.015625 -31.1875 C 24.492188 -32.195312 22.710938 -32.703125 20.671875 -32.703125 C 18.648438 -32.703125 16.867188 -32.191406 15.328125 -31.171875 C 13.796875 -30.160156 12.601562 -28.6875 11.75 -26.75 C 10.894531 -24.8125 10.46875 -22.4375 10.46875 -19.625 C 10.46875 -16.820312 10.894531 -14.453125 11.75 -12.515625 C 12.601562 -10.585938 13.796875 -9.117188 15.328125 -8.109375 C 16.867188 -7.097656 18.648438 -6.59375 20.671875 -6.59375 Z M 20.671875 -6.59375 "/></g></g><g transform="translate(225.769123, 93.749997)"><g><path d="M 3.25 0 L 3.25 -29.109375 L 10.59375 -29.109375 L 10.921875 -22.015625 L 10.359375 -22.015625 C 10.816406 -23.773438 11.488281 -25.210938 12.375 -26.328125 C 13.269531 -27.441406 14.3125 -28.257812 15.5 -28.78125 C 16.695312 -29.3125 17.957031 -29.578125 19.28125 -29.578125 C 21.382812 -29.578125 23.117188 -28.914062 24.484375 -27.59375 C 25.847656 -26.28125 26.8125 -24.296875 27.375 -21.640625 L 26.46875 -21.640625 C 26.875 -23.441406 27.5625 -24.925781 28.53125 -26.09375 C 29.507812 -27.257812 30.671875 -28.128906 32.015625 -28.703125 C 33.367188 -29.285156 34.800781 -29.578125 36.3125 -29.578125 C 38.101562 -29.578125 39.707031 -29.1875 41.125 -28.40625 C 42.539062 -27.625 43.65625 -26.488281 44.46875 -25 C 45.28125 -23.519531 45.6875 -21.707031 45.6875 -19.5625 L 45.6875 0 L 37.8125 0 L 37.8125 -18.0625 C 37.8125 -19.726562 37.363281 -20.96875 36.46875 -21.78125 C 35.570312 -22.601562 34.460938 -23.015625 33.140625 -23.015625 C 32.140625 -23.015625 31.273438 -22.800781 30.546875 -22.375 C 29.816406 -21.945312 29.253906 -21.34375 28.859375 -20.5625 C 28.460938 -19.789062 28.265625 -18.878906 28.265625 -17.828125 L 28.265625 0 L 20.640625 0 L 20.640625 -18.296875 C 20.640625 -19.742188 20.210938 -20.890625 19.359375 -21.734375 C 18.515625 -22.585938 17.414062 -23.015625 16.0625 -23.015625 C 15.125 -23.015625 14.28125 -22.800781 13.53125 -22.375 C 12.789062 -21.957031 12.195312 -21.335938 11.75 -20.515625 C 11.3125 -19.703125 11.09375 -18.703125 11.09375 -17.515625 L 11.09375 0 Z M 3.25 0 "/></g></g><g transform="translate(274.680253, 93.749997)"><g><path d="M 11.515625 0.546875 C 9.660156 0.546875 7.992188 0.222656 6.515625 -0.421875 C 5.035156 -1.066406 3.875 -2.035156 3.03125 -3.328125 C 2.1875 -4.628906 1.765625 -6.234375 1.765625 -8.140625 C 1.765625 -9.773438 2.0625 -11.140625 2.65625 -12.234375 C 3.257812 -13.328125 4.078125 -14.207031 5.109375 -14.875 C 6.148438 -15.539062 7.332031 -16.046875 8.65625 -16.390625 C 9.988281 -16.734375 11.382812 -16.972656 12.84375 -17.109375 C 14.550781 -17.285156 15.921875 -17.445312 16.953125 -17.59375 C 17.992188 -17.75 18.75 -17.984375 19.21875 -18.296875 C 19.695312 -18.617188 19.9375 -19.09375 19.9375 -19.71875 L 19.9375 -19.859375 C 19.9375 -20.660156 19.753906 -21.347656 19.390625 -21.921875 C 19.035156 -22.492188 18.515625 -22.929688 17.828125 -23.234375 C 17.140625 -23.546875 16.300781 -23.703125 15.3125 -23.703125 C 14.3125 -23.703125 13.4375 -23.546875 12.6875 -23.234375 C 11.945312 -22.929688 11.34375 -22.519531 10.875 -22 C 10.40625 -21.476562 10.078125 -20.894531 9.890625 -20.25 L 2.640625 -21.171875 C 3.046875 -22.929688 3.816406 -24.429688 4.953125 -25.671875 C 6.097656 -26.921875 7.554688 -27.875 9.328125 -28.53125 C 11.109375 -29.195312 13.132812 -29.53125 15.40625 -29.53125 C 17.050781 -29.53125 18.613281 -29.335938 20.09375 -28.953125 C 21.582031 -28.566406 22.90625 -27.96875 24.0625 -27.15625 C 25.226562 -26.351562 26.140625 -25.332031 26.796875 -24.09375 C 27.460938 -22.851562 27.796875 -21.367188 27.796875 -19.640625 L 27.796875 0 L 20.28125 0 L 20.28125 -4.0625 L 20.046875 -4.0625 C 19.566406 -3.144531 18.9375 -2.335938 18.15625 -1.640625 C 17.375 -0.953125 16.4375 -0.414062 15.34375 -0.03125 C 14.257812 0.351562 12.984375 0.546875 11.515625 0.546875 Z M 13.734375 -4.953125 C 14.984375 -4.953125 16.070312 -5.195312 17 -5.6875 C 17.9375 -6.1875 18.664062 -6.847656 19.1875 -7.671875 C 19.71875 -8.492188 19.984375 -9.425781 19.984375 -10.46875 L 19.984375 -13.546875 C 19.742188 -13.410156 19.398438 -13.269531 18.953125 -13.125 C 18.515625 -12.988281 18.015625 -12.867188 17.453125 -12.765625 C 16.890625 -12.660156 16.320312 -12.5625 15.75 -12.46875 C 15.175781 -12.382812 14.65625 -12.304688 14.1875 -12.234375 C 13.238281 -12.097656 12.394531 -11.875 11.65625 -11.5625 C 10.914062 -11.25 10.34375 -10.832031 9.9375 -10.3125 C 9.53125 -9.800781 9.328125 -9.160156 9.328125 -8.390625 C 9.328125 -7.648438 9.515625 -7.023438 9.890625 -6.515625 C 10.273438 -6.003906 10.796875 -5.613281 11.453125 -5.34375 C 12.117188 -5.082031 12.878906 -4.953125 13.734375 -4.953125 Z M 13.734375 -4.953125 "/></g></g><g transform="translate(305.688063, 93.749997)"><g><path d="M 11.515625 0.546875 C 9.660156 0.546875 7.992188 0.222656 6.515625 -0.421875 C 5.035156 -1.066406 3.875 -2.035156 3.03125 -3.328125 C 2.1875 -4.628906 1.765625 -6.234375 1.765625 -8.140625 C 1.765625 -9.773438 2.0625 -11.140625 2.65625 -12.234375 C 3.257812 -13.328125 4.078125 -14.207031 5.109375 -14.875 C 6.148438 -15.539062 7.332031 -16.046875 8.65625 -16.390625 C 9.988281 -16.734375 11.382812 -16.972656 12.84375 -17.109375 C 14.550781 -17.285156 15.921875 -17.445312 16.953125 -17.59375 C 17.992188 -17.75 18.75 -17.984375 19.21875 -18.296875 C 19.695312 -18.617188 19.9375 -19.09375 19.9375 -19.71875 L 19.9375 -19.859375 C 19.9375 -20.660156 19.753906 -21.347656 19.390625 -21.921875 C 19.035156 -22.492188 18.515625 -22.929688 17.828125 -23.234375 C 17.140625 -23.546875 16.300781 -23.703125 15.3125 -23.703125 C 14.3125 -23.703125 13.4375 -23.546875 12.6875 -23.234375 C 11.945312 -22.929688 11.34375 -22.519531 10.875 -22 C 10.40625 -21.476562 10.078125 -20.894531 9.890625 -20.25 L 2.640625 -21.171875 C 3.046875 -22.929688 3.816406 -24.429688 4.953125 -25.671875 C 6.097656 -26.921875 7.554688 -27.875 9.328125 -28.53125 C 11.109375 -29.195312 13.132812 -29.53125 15.40625 -29.53125 C 17.050781 -29.53125 18.613281 -29.335938 20.09375 -28.953125 C 21.582031 -28.566406 22.90625 -27.96875 24.0625 -27.15625 C 25.226562 -26.351562 26.140625 -25.332031 26.796875 -24.09375 C 27.460938 -22.851562 27.796875 -21.367188 27.796875 -19.640625 L 27.796875 0 L 20.28125 0 L 20.28125 -4.0625 L 20.046875 -4.0625 C 19.566406 -3.144531 18.9375 -2.335938 18.15625 -1.640625 C 17.375 -0.953125 16.4375 -0.414062 15.34375 -0.03125 C 14.257812 0.351562 12.984375 0.546875 11.515625 0.546875 Z M 13.734375 -4.953125 C 14.984375 -4.953125 16.070312 -5.195312 17 -5.6875 C 17.9375 -6.1875 18.664062 -6.847656 19.1875 -7.671875 C 19.71875 -8.492188 19.984375 -9.425781 19.984375 -10.46875 L 19.984375 -13.546875 C 19.742188 -13.410156 19.398438 -13.269531 18.953125 -13.125 C 18.515625 -12.988281 18.015625 -12.867188 17.453125 -12.765625 C 16.890625 -12.660156 16.320312 -12.5625 15.75 -12.46875 C 15.175781 -12.382812 14.65625 -12.304688 14.1875 -12.234375 C 13.238281 -12.097656 12.394531 -11.875 11.65625 -11.5625 C 10.914062 -11.25 10.34375 -10.832031 9.9375 -10.3125 C 9.53125 -9.800781 9.328125 -9.160156 9.328125 -8.390625 C 9.328125 -7.648438 9.515625 -7.023438 9.890625 -6.515625 C 10.273438 -6.003906 10.796875 -5.613281 11.453125 -5.34375 C 12.117188 -5.082031 12.878906 -4.953125 13.734375 -4.953125 Z M 13.734375 -4.953125 "/></g></g><g transform="translate(336.695874, 93.749997)"><g><path d="M 14.03125 0.5 C 11.726562 0.5 9.671875 -0.0859375 7.859375 -1.265625 C 6.046875 -2.441406 4.613281 -4.144531 3.5625 -6.375 C 2.519531 -8.613281 2 -11.332031 2 -14.53125 C 2 -17.78125 2.535156 -20.515625 3.609375 -22.734375 C 4.679688 -24.960938 6.125 -26.648438 7.9375 -27.796875 C 9.75 -28.953125 11.757812 -29.53125 13.96875 -29.53125 C 15.539062 -29.53125 16.867188 -29.273438 17.953125 -28.765625 C 19.046875 -28.253906 19.945312 -27.609375 20.65625 -26.828125 C 21.375 -26.046875 21.929688 -25.234375 22.328125 -24.390625 L 22.546875 -24.390625 L 22.546875 -39.28125 L 30.40625 -39.28125 L 30.40625 0 L 22.65625 0 L 22.65625 -4.609375 L 22.359375 -4.609375 C 21.953125 -3.765625 21.382812 -2.953125 20.65625 -2.171875 C 19.925781 -1.390625 19.019531 -0.75 17.9375 -0.25 C 16.863281 0.25 15.5625 0.5 14.03125 0.5 Z M 16.34375 -5.828125 C 17.695312 -5.828125 18.847656 -6.191406 19.796875 -6.921875 C 20.742188 -7.648438 21.472656 -8.664062 21.984375 -9.96875 C 22.492188 -11.269531 22.75 -12.800781 22.75 -14.5625 C 22.75 -16.3125 22.5 -17.832031 22 -19.125 C 21.5 -20.414062 20.769531 -21.414062 19.8125 -22.125 C 18.851562 -22.84375 17.695312 -23.203125 16.34375 -23.203125 C 15.007812 -23.203125 13.867188 -22.84375 12.921875 -22.125 C 11.984375 -21.40625 11.273438 -20.394531 10.796875 -19.09375 C 10.316406 -17.789062 10.078125 -16.28125 10.078125 -14.5625 C 10.078125 -12.8125 10.316406 -11.28125 10.796875 -9.96875 C 11.273438 -8.664062 11.984375 -7.648438 12.921875 -6.921875 C 13.867188 -6.191406 15.007812 -5.828125 16.34375 -5.828125 Z M 16.34375 -5.828125 "/></g></g></g><g fill="#faf8f4" fill-opacity="1"><g transform="translate(370.346266, 93.749997)"><g/></g></g><path fill="#faf8f4" d="M 145.625 25.101562 L 83.792969 5.898438 L 21.992188 25.101562 C 21.992188 25.101562 6.949219 121.519531 83.792969 145.574219 C 160.667969 121.519531 145.625 25.101562 145.625 25.101562 Z M 145.625 25.101562 " fill-opacity="1" fill-rule="nonzero"/><path fill="#faf8f4" d="M 83.792969 145.863281 L 83.707031 145.832031 C 66.113281 140.324219 51.902344 130.5625 41.484375 116.753906 C 33.128906 105.734375 27.1875 92.15625 23.773438 76.367188 C 17.972656 49.527344 21.648438 25.273438 21.675781 25.042969 L 21.707031 24.871094 L 83.792969 5.582031 L 83.878906 5.609375 L 145.882812 24.871094 L 145.910156 25.042969 C 145.941406 25.273438 149.613281 49.5 143.816406 76.367188 C 140.402344 92.15625 134.457031 105.734375 126.105469 116.753906 C 115.683594 130.535156 101.476562 140.324219 83.878906 145.832031 Z M 22.25 25.332031 C 21.933594 27.570312 18.863281 50.734375 24.375 76.28125 C 27.761719 91.984375 33.675781 105.503906 41.972656 116.441406 C 52.304688 130.101562 66.398438 139.804688 83.824219 145.257812 C 101.246094 139.777344 115.339844 130.074219 125.675781 116.410156 C 133.96875 105.445312 139.882812 91.925781 143.269531 76.222656 C 148.78125 50.675781 145.710938 27.511719 145.394531 25.273438 L 83.792969 6.183594 Z M 22.25 25.332031 " fill-opacity="1" fill-rule="nonzero"/><g clip-path="url(#d0d4ff8507)"><path fill="#faf8f4" d="M 148.609375 40.515625 C 148.410156 31.070312 147.492188 25.070312 147.433594 24.84375 L 147.261719 23.722656 L 84.023438 4.03125 L 83.824219 3.972656 L 20.355469 23.695312 L 20.183594 24.8125 C 20.15625 25.070312 19.238281 31.101562 19.007812 40.488281 C 18.804688 49.183594 19.238281 62.503906 22.28125 76.683594 C 25.722656 92.699219 31.78125 106.480469 40.25 117.675781 C 50.871094 131.710938 65.335938 141.671875 83.25 147.296875 L 83.792969 147.46875 L 84.339844 147.296875 C 102.25 141.699219 116.71875 131.738281 127.339844 117.675781 C 135.808594 106.480469 141.863281 92.671875 145.308594 76.683594 C 148.378906 62.53125 148.78125 49.183594 148.609375 40.515625 Z M 83.792969 7.792969 L 143.960938 26.480469 C 144.589844 31.558594 146.746094 52.714844 141.75 75.910156 C 138.417969 91.378906 132.59375 104.699219 124.441406 115.464844 C 114.394531 128.753906 100.730469 138.226562 83.824219 143.625 C 66.914062 138.226562 53.28125 128.753906 43.234375 115.492188 C 35.082031 104.726562 29.253906 91.4375 25.894531 75.964844 C 22.882812 62.160156 22.480469 49.15625 22.652344 40.660156 C 22.796875 33.796875 23.339844 28.746094 23.628906 26.507812 Z M 83.792969 7.792969 " fill-opacity="1" fill-rule="nonzero"/></g><g clip-path="url(#38aa2f0f10)"><path fill="#faf8f4" d="M 84.878906 35.976562 C 85.335938 36.472656 85.316406 37.429688 85.179688 38.066406 C 85.335938 38.234375 86.324219 36.980469 86.472656 36.871094 C 86.449219 37.59375 85.75 38.078125 85.476562 38.664062 C 85.738281 38.761719 86.539062 38.332031 86.570312 38.664062 C 85.886719 39.082031 85.277344 38.773438 84.628906 39.261719 C 83.703125 39.96875 82.597656 41.132812 83.636719 42.25 C 83.855469 41.769531 84.480469 41.640625 84.78125 41.304688 C 85.078125 40.964844 85.1875 40.308594 85.527344 39.957031 L 85.378906 41.054688 L 86.671875 40.457031 C 86.492188 40.964844 85.953125 41.164062 85.578125 41.503906 L 86.273438 41.949219 L 85.007812 41.921875 C 83.964844 42.597656 83.921875 43.414062 84.910156 44.128906 C 84.960938 44.128906 85.675781 43.703125 85.726562 43.644531 C 85.875 43.492188 85.964844 43.164062 86.125 42.945312 C 86.285156 42.726562 86.851562 42.207031 86.761719 42.488281 L 86.261719 43.53125 L 88.054688 42.835938 L 86.960938 43.882812 L 87.855469 44.230469 C 87.429688 44.507812 86.75 44 86.441406 44.050781 C 86.132812 44.101562 85.675781 44.480469 85.617188 44.726562 C 85.554688 44.976562 86.878906 45.761719 87.121094 45.902344 C 87.984375 44.757812 89.957031 44.71875 89.152344 42.90625 C 88.574219 41.621094 87.597656 42.21875 86.769531 41.304688 C 87.269531 41.34375 87.757812 41.589844 88.265625 41.402344 C 88.175781 40.265625 86.640625 40.167969 86.722656 38.964844 C 87.089844 39.292969 87.417969 39.828125 87.964844 39.859375 C 87.925781 39.320312 88.214844 38.953125 87.957031 38.425781 C 87.695312 37.898438 86.679688 37.230469 86.671875 36.273438 C 86.941406 36.214844 86.839844 36.34375 86.921875 36.472656 C 87.128906 36.824219 87.289062 37.261719 87.667969 37.46875 C 87.707031 37.089844 87.648438 36.425781 87.964844 36.175781 C 88.015625 36.800781 87.777344 37.589844 88.316406 38.066406 L 88.910156 35.976562 C 88.972656 36.464844 89.191406 36.992188 88.960938 37.46875 C 89.171875 37.640625 89.648438 36.734375 89.859375 36.671875 C 89.808594 37.082031 89.570312 37.460938 89.320312 37.769531 C 89.070312 38.078125 88.972656 37.949219 88.890625 38.136719 C 88.8125 38.324219 88.710938 39.183594 88.773438 39.261719 C 90.449219 37.96875 90.378906 38.628906 90.265625 36.472656 L 90.714844 37.570312 L 91.660156 36.375 C 91.613281 37.214844 91.070312 37.734375 90.664062 38.464844 C 91.292969 38.414062 91.910156 38.039062 92.355469 37.617188 C 92.804688 37.199219 92.695312 36.953125 92.953125 37.121094 L 92.257812 38.367188 L 93.851562 37.867188 C 92.863281 39.210938 90.863281 38.503906 89.617188 39.460938 C 88.632812 40.21875 88.980469 40.875 89.71875 41.652344 C 90.6875 40.34375 90.558594 41.472656 90.863281 39.472656 C 91.3125 39.339844 90.84375 40.625 91.210938 40.464844 C 91.582031 40.308594 92.765625 39.082031 92.855469 39.171875 C 92.925781 39.492188 91.957031 40.238281 91.957031 40.316406 C 92.207031 40.625 92.644531 40.367188 92.953125 40.515625 C 92.574219 40.972656 91.929688 40.636719 91.460938 40.816406 C 90.425781 41.398438 89.980469 42.261719 90.804688 43.136719 C 91.371094 42.675781 93.203125 42.296875 93.492188 41.652344 C 93.78125 41.003906 93.3125 39.738281 93.742188 39.0625 L 94.007812 40.636719 L 94.238281 40.90625 C 94.359375 40.605469 94.804688 40.226562 94.894531 39.957031 C 95.054688 39.480469 94.617188 38.414062 95.234375 37.957031 L 95.234375 39.351562 L 95.992188 38.265625 L 96.527344 37.757812 L 95.929688 39.152344 L 97.175781 38.65625 C 97.324219 38.894531 96.6875 39.242188 96.46875 39.339844 C 96.25 39.441406 95.75 39.5 95.664062 39.582031 C 95.574219 39.660156 95.382812 40.289062 95.234375 40.445312 C 96.089844 40.316406 96.707031 39.898438 97.273438 39.25 L 96.925781 40.148438 L 98.023438 39.898438 C 97.265625 40.695312 96.050781 40.476562 95.09375 41.054688 C 94.140625 41.632812 94.339844 42.109375 93.839844 42.488281 C 95.035156 43.234375 95.554688 42.199219 96.527344 41.742188 L 95.730469 42.835938 L 97.074219 42.4375 C 97.144531 42.855469 96.21875 43.195312 95.832031 43.285156 C 94.238281 43.671875 93.0625 42.804688 91.601562 44.03125 C 91.160156 44.398438 90.960938 44.847656 90.605469 45.226562 C 90.035156 45.832031 88.734375 46.71875 88.980469 47.636719 L 89.617188 48.898438 C 90.523438 48.449219 94.800781 48.734375 93.441406 46.957031 C 93.234375 46.828125 92.335938 46.6875 92.167969 46.660156 C 91.726562 46.730469 90.898438 46.652344 90.664062 46.101562 L 91.757812 46.300781 C 91.808594 46.269531 91.152344 45.523438 91.410156 45.304688 C 91.9375 46.011719 92.417969 46.339844 93.351562 46.203125 C 93.164062 45.960938 93.332031 45.503906 93.234375 45.324219 C 93.132812 45.144531 92.199219 44.699219 92.355469 44.109375 L 93.203125 44.90625 C 93.382812 44.898438 93.480469 43.621094 93.75 43.910156 C 93.609375 44.128906 93.523438 45.394531 93.898438 45.304688 C 94.238281 44.96875 94.359375 44.648438 94.527344 44.230469 C 94.695312 43.8125 94.46875 43.960938 94.746094 44.011719 C 94.816406 44.796875 94.4375 45.375 93.980469 45.953125 L 94.597656 46.796875 C 94.726562 46.796875 95.640625 45.214844 95.839844 44.957031 C 96.320312 44.371094 97.972656 43.113281 97.933594 42.378906 C 97.894531 41.640625 97.40625 41.390625 97.632812 40.824219 L 98.230469 41.921875 L 98.730469 40.226562 C 99.050781 40.285156 98.613281 41.40625 98.730469 41.722656 C 98.929688 41.941406 99.554688 40.925781 99.824219 41.074219 C 99.734375 41.691406 98.757812 42.070312 98.558594 42.347656 C 98.359375 42.628906 98.398438 43.253906 98.132812 43.511719 C 100.613281 42.863281 99.460938 42.296875 100.519531 40.925781 L 100.320312 42.417969 C 100.535156 42.726562 102.140625 40.539062 102.113281 41.074219 C 102.113281 41.074219 101.417969 42.21875 101.417969 42.21875 L 102.910156 42.070312 C 102.203125 42.828125 101.039062 42.289062 100.519531 43.113281 C 101.207031 43.046875 101.953125 43.304688 102.613281 43.066406 C 103.269531 42.828125 103.277344 42.199219 103.695312 42.019531 L 103.300781 42.914062 L 104.492188 42.667969 L 103 43.511719 L 104.292969 43.8125 C 103.566406 44.179688 102.851562 43.710938 102.253906 43.664062 C 101.296875 43.578125 100.097656 43.703125 99.316406 43.910156 C 99.136719 44.089844 100.96875 44.667969 101.207031 44.308594 L 101.207031 44.507812 C 100.320312 45.078125 99.246094 44.359375 98.480469 44.417969 C 97.714844 44.480469 96.429688 45.742188 96.4375 46.511719 C 96.828125 46.371094 97.234375 46.449219 97.632812 46.371094 C 98.269531 46.242188 98.796875 45.785156 99.425781 45.625 L 98.53125 46.621094 C 98.917969 46.730469 99.347656 46.808594 99.722656 46.621094 C 99.933594 46.886719 98.949219 47.078125 98.769531 47.078125 C 97.824219 47.097656 97.644531 46.839844 96.578125 47.296875 C 95.511719 47.753906 95.621094 48.402344 95.003906 49.109375 C 92.574219 51.460938 88.292969 50.273438 87.289062 54.875 C 90.960938 53.335938 91.144531 52.261719 95.503906 52.671875 C 96.03125 52.59375 97.472656 51.519531 97.445312 50.949219 C 97.414062 50.382812 97.066406 49.585938 97.027344 49.527344 C 96.90625 49.335938 96.011719 49.050781 96.160156 48.402344 L 96.855469 49 C 96.894531 48.800781 96.933594 47.839844 97.15625 47.902344 C 97.144531 48.371094 97.175781 48.929688 97.503906 49.296875 C 97.914062 48.828125 98.269531 48.371094 98.300781 47.703125 C 99.050781 48.753906 97.273438 49.679688 98.203125 50.292969 C 98.609375 49.855469 98.9375 49.289062 99.347656 48.851562 C 99.753906 48.410156 100.609375 47.835938 100.691406 47.703125 C 100.867188 46.554688 101.351562 45.300781 102.285156 44.519531 C 102.453125 44.726562 101.753906 45.753906 101.835938 45.8125 C 102.582031 45.773438 103.101562 45.214844 103.578125 44.71875 C 103.675781 44.996094 103.25 45.5625 103.03125 45.761719 C 102.433594 46.320312 101.515625 46.222656 101.636719 47.304688 C 104.144531 46.648438 104.308594 46.375 105.300781 44.339844 C 105.332031 43.996094 105.09375 42.820312 105.332031 42.429688 L 105.628906 44.019531 L 106.574219 43.023438 C 106.824219 43.511719 105.03125 45.195312 105.332031 45.515625 C 106.503906 45.105469 107.171875 44.191406 107.867188 43.222656 C 107.859375 43.863281 107.460938 44.417969 107.121094 44.917969 C 107.710938 44.878906 108.199219 44.519531 108.683594 44.238281 C 109.171875 43.960938 108.933594 44.019531 109.015625 44.171875 C 108.097656 45.613281 106.117188 45.234375 105.132812 46.609375 L 107.273438 46.609375 C 107.359375 46.609375 108.117188 46.332031 108.207031 46.25 C 108.554688 45.960938 108.875 45.085938 109.363281 44.816406 L 108.964844 46.011719 L 111.105469 44.816406 C 111.203125 45.15625 110.167969 45.851562 110.207031 45.914062 L 112.101562 46.160156 C 111.484375 46.671875 110.207031 46.335938 109.613281 46.261719 C 109.363281 46.320312 109.054688 46.710938 108.714844 46.71875 C 109.078125 47.261719 111.742188 46.933594 112.300781 47.019531 C 111.742188 47.429688 110.867188 47.355469 110.207031 47.515625 L 111.203125 48.3125 C 110.515625 48.582031 109.941406 47.625 109.640625 47.535156 C 107.265625 47.117188 102.414062 47.402344 100.851562 49.605469 C 103.367188 49.800781 102.914062 49.679688 105.308594 48.742188 C 106.066406 48.519531 106.851562 48.542969 107.519531 48.363281 C 108.1875 48.183594 108.117188 47.835938 108.515625 47.8125 L 108.117188 48.511719 L 109.710938 48.808594 C 109.210938 49.179688 106.957031 48.476562 107.023438 49.007812 C 107.53125 49.027344 108.328125 49.707031 108.765625 49.707031 L 110.257812 49.707031 C 110.277344 49.707031 110.4375 49.496094 110.507812 49.65625 C 110.121094 50.066406 109.441406 50.113281 108.914062 50.105469 C 109.191406 50.542969 109.808594 50.800781 110.308594 50.902344 C 109.855469 51.417969 108.515625 50.546875 108.21875 50.152344 C 107.828125 49.90625 106.425781 49.40625 105.976562 49.398438 C 105.191406 49.378906 104.375 50.273438 103.648438 50.503906 C 104.070312 50.992188 105.082031 51.15625 105.6875 51.210938 C 106.046875 51.199219 106.714844 50.421875 107.332031 50.503906 L 106.632812 51.199219 L 108.128906 51.5 L 105.9375 51.699219 C 106.496094 52.273438 107.402344 52.34375 108.128906 52.59375 C 108.164062 52.820312 107.039062 52.644531 106.832031 52.691406 L 107.132812 53.789062 C 106.625 53.679688 106.496094 52.671875 106.335938 52.542969 C 106.175781 52.414062 105.109375 51.867188 105.042969 51.847656 C 103.5 51.757812 102.628906 50.796875 101.007812 50.902344 C 99.664062 51 99.546875 51.320312 99.066406 52.394531 C 99.753906 52.164062 100.351562 52.792969 100.910156 52.792969 C 101.46875 52.792969 101.933594 52.382812 102.453125 52.394531 L 101.65625 53.042969 C 101.65625 53.269531 102.5625 53.179688 102.75 53.191406 C 102.582031 53.5 102.042969 53.519531 101.707031 53.488281 C 100.519531 53.398438 99.625 52.953125 98.421875 53.488281 C 97.683594 53.816406 97.324219 54.59375 96.578125 54.933594 C 95.132812 55.601562 93.929688 54.714844 92.296875 56.027344 C 92.136719 56.15625 90.84375 57.433594 91.003906 57.570312 C 94.46875 56.667969 94.574219 56.9375 97.8125 57.78125 C 98.929688 57.777344 102.128906 57.136719 101.597656 55.582031 C 101.398438 55.261719 100.460938 54.902344 100.652344 54.1875 L 101.398438 54.984375 L 101.644531 55.082031 C 101.726562 55.023438 101.746094 54.148438 102.042969 54.085938 L 102.144531 55.480469 C 102.242188 55.582031 103.019531 55.25 103.167969 55.164062 C 104.15625 54.613281 103.539062 54.015625 103.835938 53.089844 C 104.144531 53.179688 103.910156 54.117188 104.183594 54.386719 L 105.132812 52.992188 C 105.578125 53.289062 104.644531 54.394531 104.535156 54.785156 L 105.925781 54.535156 C 105.460938 55.242188 104.554688 55.0625 103.945312 55.339844 C 102.964844 55.921875 102.453125 56.113281 102.253906 56.972656 C 104.136719 56.875 105.441406 55.558594 107.132812 54.933594 C 107.492188 54.105469 107.847656 53.738281 108.675781 53.390625 L 108.925781 52.09375 C 109.289062 51.824219 109.0625 53.011719 109.125 53.191406 C 109.589844 53.132812 109.921875 52.761719 110.21875 52.445312 C 110.515625 52.125 110.4375 51.90625 110.496094 52.324219 C 110.1875 53.796875 108.417969 53.519531 108.128906 54.785156 C 108.773438 54.914062 110.957031 54.425781 111.304688 53.925781 C 111.574219 53.53125 111.671875 52.734375 112.160156 52.394531 C 112.417969 52.375 112.269531 52.433594 112.230469 52.5625 C 112.109375 52.972656 111.902344 53.359375 111.8125 53.777344 L 113.804688 52.882812 C 112.691406 54.386719 110.386719 54.511719 113.953125 54.476562 C 114.042969 54.476562 114.3125 54.285156 114.5 54.375 C 113.019531 55.660156 111.261719 54.234375 110.515625 55.261719 C 112.347656 55.917969 113 55.574219 114.796875 55.273438 L 113.605469 55.917969 L 114.996094 56.664062 C 114.300781 56.90625 113.40625 56.148438 112.9375 56.089844 C 112.46875 56.027344 111.792969 56.21875 111.265625 56.167969 C 109.839844 55.78125 108.046875 55.410156 106.734375 56.417969 C 107.917969 56.746094 109.234375 57.910156 110.515625 57.523438 C 111.800781 57.132812 111.304688 56.554688 111.800781 56.714844 L 111.203125 57.460938 L 112.996094 56.964844 C 112.707031 57.472656 112.082031 57.570312 111.601562 57.8125 L 113.195312 58.257812 C 112.359375 58.667969 111.421875 58.070312 110.757812 58.058594 C 110.089844 58.050781 109.851562 58.289062 109.363281 58.257812 C 107.621094 57.964844 106.128906 56.757812 104.335938 57.960938 C 104.273438 58.199219 104.375 58.121094 104.464844 58.179688 C 104.921875 58.496094 106.085938 59.074219 106.625 58.914062 C 107.160156 58.757812 107.421875 58.238281 107.820312 58.40625 L 107.222656 58.957031 L 108.617188 58.855469 C 108.40625 59.195312 107.867188 59.222656 107.519531 59.355469 C 107.382812 59.554688 108.308594 60.160156 108.417969 60.347656 C 107.492188 60.308594 107.203125 59.195312 106.226562 59.453125 C 106.175781 60.109375 106.742188 60.429688 107.121094 60.847656 C 106.316406 61.035156 105.835938 59.632812 105.628906 59.503906 C 102.035156 57.632812 101.125 59.59375 97.863281 60.050781 C 97.574219 60.289062 99.128906 60.726562 99.257812 60.746094 C 98.628906 61.363281 97.472656 61.304688 96.738281 60.925781 C 96.320312 60.71875 95.921875 60.109375 95.484375 59.992188 C 94.007812 59.601562 91.769531 61.046875 90.894531 62.191406 C 91.65625 72.328125 93.230469 87.796875 92.707031 96.710938 C 93.542969 97.578125 94.804688 98.285156 96.019531 98.375 C 97.234375 98.464844 98.03125 98.09375 99.085938 98.394531 C 100.09375 98.683594 100.71875 99.617188 101.65625 100.007812 C 103.1875 100.644531 105.359375 100.144531 106.734375 101.351562 C 105.269531 101.289062 103.757812 101.429688 102.304688 101.351562 C 99.546875 101.199219 96.847656 100.066406 94.089844 100.652344 C 94.140625 101.316406 97.488281 101.578125 98.371094 102.394531 C 99.675781 103.292969 98.71875 102.644531 98.628906 102.734375 C 96.6875 102.386719 94.796875 102.296875 92.882812 101.808594 C 91.609375 101.480469 89.289062 100.464844 88.074219 100.84375 C 86.859375 101.222656 87.894531 100.78125 87.9375 101.042969 C 89.050781 101.730469 90.503906 101.847656 91.421875 102.832031 C 90.316406 102.644531 89.199219 102.503906 88.117188 102.207031 C 87.03125 101.90625 85.507812 101.113281 84.898438 101.132812 C 84.292969 101.152344 84.3125 101.3125 84.261719 101.609375 C 84.164062 102.246094 85.976562 103.054688 85.734375 103.332031 L 83.1875 102.4375 L 80.058594 103.332031 C 80.398438 102.625 82.101562 102.175781 82.3125 101.550781 C 82.886719 99.929688 74.851562 103.042969 73.75 102.746094 C 71.1875 102.914062 73.28125 102.8125 73.300781 102.644531 C 74.585938 101.808594 76.046875 101.449219 77.480469 100.953125 C 77.460938 100.8125 77.34375 100.78125 77.234375 100.761719 C 73.660156 100.3125 69.917969 101.824219 66.441406 102.257812 C 66.339844 102.1875 67.773438 101.46875 67.902344 101.378906 C 68.03125 101.289062 68.09375 101.398438 68.03125 101.160156 L 60.464844 101.460938 C 60.84375 101.082031 61.523438 100.882812 62.039062 100.691406 C 62.558594 100.503906 63.890625 99.988281 64.527344 99.898438 C 65.972656 99.699219 67.148438 100.265625 68.5625 99.648438 C 71.816406 97.21875 72.773438 99.511719 75.492188 97.964844 C 74.839844 86.160156 76.175781 74.210938 76.707031 62.390625 C 76.617188 61.671875 74.335938 60.378906 73.648438 60.269531 C 72.644531 60.109375 71.835938 60.46875 70.710938 60.21875 C 69.585938 59.972656 68.660156 59.113281 68.183594 59.085938 C 67.425781 59.035156 66.339844 60.21875 65.453125 59.703125 C 64.566406 59.183594 66.011719 59.34375 66.191406 59.234375 C 66.441406 59.085938 66.628906 58.796875 66.859375 58.605469 C 65.921875 58.257812 64.855469 58.417969 63.871094 58.296875 C 63.640625 58.359375 62.976562 58.945312 62.824219 59.15625 C 62.488281 59.601562 62.417969 60.25 61.78125 60.449219 L 62.179688 59.453125 C 61.699219 59.710938 61.113281 59.703125 60.585938 59.601562 C 61.390625 59.222656 62.449219 59.144531 62.777344 58.160156 C 62.347656 58.167969 62 57.988281 61.550781 58.078125 C 60.890625 58.214844 59.558594 59.640625 58.992188 58.957031 C 59.699219 58.765625 60.246094 58.269531 60.785156 57.8125 L 59.929688 57.460938 C 59.382812 57.421875 58.394531 58.070312 58.097656 58.507812 C 57.796875 58.945312 57.789062 59.554688 57.199219 59.652344 L 57.597656 58.757812 C 57.101562 59.003906 56.574219 59.214844 56.003906 59.15625 L 57.390625 58.398438 L 58.097656 57.710938 C 57.6875 57.632812 57.210938 57.613281 57 57.164062 C 57.945312 57.699219 60.359375 56.816406 58.414062 56.398438 C 56.910156 55.847656 56.902344 57.144531 55.9375 57.742188 C 54.96875 58.339844 55.121094 58.058594 54.710938 58.058594 C 55.277344 57.683594 56.378906 57.171875 56.402344 56.476562 C 55.585938 56.644531 54.769531 56.785156 53.933594 56.605469 C 53.097656 56.425781 53.417969 56.527344 53.417969 56.386719 C 53.734375 56.417969 55.289062 56.289062 55.410156 56.039062 C 54.910156 55.800781 54.363281 55.480469 54.214844 54.894531 C 56.390625 56.105469 55.539062 55.769531 57.796875 55.589844 C 57.265625 55.046875 55.917969 54.394531 55.957031 53.609375 L 57.300781 54.503906 L 57.597656 53.410156 L 57.6875 54.753906 C 57.945312 54.9375 61.28125 57.457031 61.0625 56.464844 C 60.875 55.3125 59.859375 55.363281 59.292969 54.554688 L 60.882812 55.101562 L 60.683594 54.007812 C 61.144531 53.949219 61.222656 55.195312 61.363281 55.472656 C 61.511719 55.871094 61.96875 56.597656 62.179688 56.746094 C 62.386719 56.894531 63.292969 56.972656 63.621094 56.996094 C 63.949219 57.015625 64.28125 57.074219 64.171875 56.84375 C 63.800781 56.019531 62.597656 56.328125 62.476562 55.402344 L 63.472656 55.898438 C 63.53125 55.828125 63.085938 55.011719 63.324219 54.804688 C 63.632812 55.164062 63.722656 55.789062 64.269531 55.898438 L 64.617188 54.703125 C 64.957031 55.222656 64.6875 55.800781 64.578125 56.328125 C 65.066406 57.105469 65.863281 56.824219 66.597656 56.894531 C 67.335938 56.964844 67.765625 57.035156 68.339844 57.09375 C 68.429688 55.660156 66.699219 56.296875 66.449219 55.101562 C 66.820312 55.332031 67.1875 55.628906 67.644531 55.601562 L 67.445312 54.503906 L 68.183594 55.390625 L 68.738281 54.40625 C 68.871094 54.863281 68.738281 55.363281 68.460938 55.75 C 69.277344 56.398438 68.988281 57.09375 69.996094 57.570312 C 71.476562 58.277344 72.921875 57.570312 74.464844 57.679688 C 76.007812 57.789062 75.621094 57.941406 76.207031 57.980469 C 76.011719 57.433594 73.804688 55.429688 73.449219 55.113281 C 72.902344 54.792969 71.777344 54.734375 71.121094 54.554688 C 70.113281 54.277344 67.894531 53.359375 66.988281 53.410156 C 66.082031 53.460938 65.734375 53.90625 65.066406 53.988281 C 64.398438 54.066406 63.722656 54.105469 63.355469 53.617188 C 64.121094 53.679688 64.925781 53.558594 65.542969 53.070312 C 62.457031 51.582031 61.929688 53.769531 59.371094 53.519531 L 60.664062 53.023438 C 60.664062 52.863281 59.53125 52.5625 59.769531 52.324219 C 60.625 52.671875 61.410156 52.78125 62.226562 52.246094 C 63.042969 51.707031 62.40625 52.253906 62.359375 52.027344 C 61.78125 51.976562 60.972656 51.519531 60.40625 51.539062 C 59.371094 51.875 58.34375 52.675781 56.972656 52.214844 L 58.59375 51.796875 L 59.359375 51.320312 C 58.953125 51.390625 58.34375 51.03125 58.015625 51.03125 C 57.332031 51.171875 56.507812 51.492188 55.777344 51.21875 C 55.804688 50.972656 57.171875 50.945312 57.46875 50.820312 L 56.574219 50.074219 L 56.273438 49.625 C 57.085938 50.066406 58.179688 50.753906 59.0625 50.710938 C 58.476562 50.222656 57.96875 49.695312 57.667969 48.96875 C 57.828125 48.761719 57.835938 48.980469 57.898438 49.050781 C 58.902344 50.144531 58.832031 50.023438 58.914062 48.519531 C 59.832031 49.851562 57.671875 50.417969 61.550781 51.011719 C 61.78125 50.925781 59.304688 48.917969 59.808594 48.917969 C 59.808594 48.917969 61.054688 49.714844 61.054688 49.714844 C 61.101562 49.316406 60.902344 48.941406 60.863281 48.5625 C 60.824219 48.183594 60.882812 48.421875 61.054688 48.421875 C 61.5625 49.511719 61.203125 50.292969 62.398438 50.910156 C 63.621094 51.796875 66.828125 51.964844 68.441406 52.234375 C 69.726562 52.453125 70.988281 52.863281 72.304688 52.902344 C 72.34375 52.863281 72.175781 51.90625 72.09375 51.765625 C 71.828125 51.289062 69.964844 50.660156 69.425781 50.660156 C 68.890625 50.660156 68.183594 51.390625 67.625 50.859375 L 68.71875 50.613281 C 68.78125 50.382812 68.679688 50.453125 68.589844 50.382812 C 68.371094 50.214844 68.042969 50.113281 67.921875 49.816406 C 68.589844 49.964844 69.207031 50.324219 69.914062 50.214844 L 69.21875 49.019531 C 69.316406 48.898438 70.414062 50.105469 70.570312 50.203125 C 71.03125 50.472656 71.636719 50.421875 72.09375 50.710938 C 72.585938 48.460938 69.5625 48.023438 67.984375 48.453125 C 66.660156 48.871094 67.117188 49.089844 66.410156 49.964844 C 65.703125 50.839844 65.78125 50.671875 65.515625 50.5625 C 65.992188 50.175781 66.179688 49.566406 66.410156 49.019531 C 66.339844 48.96875 65.335938 49.089844 65.183594 49.136719 C 64.558594 49.667969 63.742188 50.335938 62.824219 50.214844 L 63.949219 49.597656 L 64.519531 49.019531 C 64.03125 48.925781 62.984375 48.867188 62.726562 48.519531 C 64.21875 48.421875 66.089844 48.730469 67.304688 47.726562 C 66.90625 47.714844 66.378906 47.296875 66.042969 47.246094 C 65.128906 47.3125 63.535156 47.929688 62.726562 47.027344 C 63.582031 47.15625 64.378906 47.027344 65.214844 46.828125 C 64.9375 46.621094 64.21875 46.042969 63.921875 45.972656 C 63.621094 45.902344 62.1875 46.710938 61.53125 46.230469 L 63.125 45.683594 C 62.515625 45.515625 61.871094 45.253906 61.433594 44.789062 L 63.222656 45.234375 C 62.90625 44.777344 62.449219 44.339844 62.425781 43.742188 C 63.105469 44.449219 63.722656 45.265625 64.667969 45.632812 C 64.601562 45.28125 63.867188 43.820312 64.320312 43.742188 C 64.828125 45.054688 65.414062 46.210938 66.859375 46.628906 L 66.5 45.59375 L 65.8125 44.488281 C 65.792969 44.410156 65.914062 44.429688 65.960938 44.4375 C 66.6875 44.667969 67.238281 46.320312 68.101562 46.777344 C 68.96875 47.238281 71.070312 47.007812 72.292969 47.617188 C 71.902344 46.582031 69.507812 46.058594 69.007812 45.476562 C 68.472656 45.296875 67.703125 45.605469 67.214844 45.078125 L 68.410156 45.027344 C 68.171875 44.847656 67.855469 44.179688 67.683594 44.0625 C 67.515625 43.941406 67.148438 43.910156 66.90625 43.78125 C 66.667969 43.652344 65.824219 42.925781 66.421875 43.175781 C 67.015625 43.421875 67.367188 43.683594 67.40625 43.632812 L 67.007812 42.289062 L 67.207031 42.238281 C 67.523438 43.195312 68.09375 44.070312 68.949219 44.628906 L 68.300781 42.738281 C 68.5625 42.675781 68.480469 42.816406 68.5625 42.925781 C 68.769531 43.183594 68.890625 43.511719 69.148438 43.730469 L 69.894531 42.9375 C 69.972656 43.324219 69.347656 43.851562 69.335938 44.082031 C 69.5 45.296875 71.121094 45.785156 72.136719 46.121094 C 72.535156 46.242188 72.15625 45.296875 72.085938 45.207031 C 72.015625 45.117188 70.433594 44.191406 70.691406 43.941406 L 72.085938 44.636719 L 71.785156 43.59375 L 71.984375 43.542969 L 72.734375 44.9375 L 73.378906 44.039062 C 73.507812 44.609375 72.863281 45.234375 72.882812 45.664062 C 72.933594 46.5 73.351562 46.976562 73.597656 47.65625 C 73.847656 48.332031 73.796875 48.839844 74.175781 49.417969 C 76.371094 48.457031 73.808594 46.5625 74.175781 45.046875 L 74.722656 46.242188 L 75.320312 44.746094 L 75.171875 45.941406 L 76.167969 45.34375 C 76.347656 45.5625 75.359375 46.371094 75.183594 46.5 L 75.667969 47.734375 C 75.867188 47.894531 76.476562 45.695312 76.765625 45.644531 L 76.566406 47.136719 C 76.695312 47.277344 77.390625 46.777344 77.511719 46.640625 C 77.691406 47.285156 76.535156 47.464844 76.316406 47.734375 C 76.097656 48.003906 75.96875 49.007812 75.667969 49.417969 C 76.027344 49.457031 76.40625 49.617188 76.765625 49.46875 C 77.125 49.316406 77.472656 48.519531 77.710938 48.421875 C 77.949219 48.320312 77.898438 48.441406 77.859375 48.570312 L 77.363281 49.515625 L 78.855469 49.167969 C 78.386719 49.714844 77.652344 49.886719 76.964844 50.015625 L 78.058594 50.710938 C 77.390625 50.960938 76.863281 50.304688 76.417969 50.222656 C 75.738281 50.09375 74.742188 50.144531 74.632812 51 C 74.863281 53.578125 78.535156 53.40625 80.257812 54.65625 C 80.617188 54.226562 80.925781 53.71875 81.304688 53.300781 C 81.683594 52.882812 82.46875 52.285156 82.660156 51.964844 C 83.007812 50.273438 79.515625 49.699219 78.726562 48.222656 C 77.851562 46.996094 78.359375 45.722656 77.382812 44.6875 C 76.167969 43.414062 75.113281 43.761719 73.558594 43.53125 C 72.003906 43.304688 70.820312 42.648438 69.386719 42.328125 C 68.878906 42.207031 68.023438 42 67.824219 41.460938 C 68.363281 41.78125 68.988281 41.949219 69.617188 41.960938 C 69.316406 41.582031 68.828125 41.105469 68.96875 40.566406 C 69.425781 41.34375 70.074219 41.910156 70.910156 42.257812 C 70.917969 42.011719 70.042969 40.847656 70.503906 40.863281 C 71.347656 42.667969 73.0625 42.9375 74.882812 42.855469 C 73.734375 41.523438 70.886719 41.707031 70.453125 39.671875 C 70.582031 39.847656 71.746094 40.925781 71.894531 40.765625 C 72.042969 40.496094 71.453125 39.246094 71.796875 39.382812 L 72.414062 41.054688 L 73.488281 41.371094 C 73.140625 40.707031 72.722656 39.96875 72.84375 39.183594 C 73.757812 41.730469 76.347656 42.515625 78.367188 43.960938 C 78.515625 43.035156 78.648438 42.558594 77.871094 41.921875 C 76.957031 40.914062 75.214844 41.539062 74.683594 40.488281 C 75.191406 40.726562 75.710938 40.84375 76.277344 40.785156 L 76.027344 39.988281 C 76.726562 40.925781 77.808594 41.144531 78.714844 41.78125 C 79.105469 41.898438 78.597656 40.597656 79.066406 40.683594 L 79.363281 42.476562 C 80.148438 42.238281 80.019531 41.472656 80.457031 40.984375 L 80.359375 42.078125 L 81.105469 41.480469 C 80.984375 43.378906 78.132812 41.566406 79.800781 46.660156 C 80.335938 47.601562 81.199219 48.242188 81.246094 46.609375 C 81.195312 45.894531 80.230469 44.816406 80.847656 44.171875 C 80.835938 44.550781 80.953125 45.132812 81.246094 45.363281 C 81.265625 44.835938 81.394531 44.089844 81.84375 43.773438 L 81.644531 44.769531 C 81.929688 44.933594 82.476562 44.011719 82.441406 44.417969 L 81.652344 45.335938 L 81.832031 46.558594 C 82.140625 46.828125 82.839844 45.425781 83.078125 45.265625 L 82.730469 46.460938 L 83.722656 46.160156 C 83.464844 46.808594 82.640625 46.710938 82.269531 47.046875 C 81.902344 47.386719 81.742188 47.945312 81.871094 48.152344 C 82.003906 48.363281 83.535156 48.800781 83.855469 48.960938 C 84.171875 49.117188 85.097656 49.875 85.335938 49.824219 C 87.449219 48.734375 85.507812 47.308594 84.460938 46.25 C 80.773438 42.226562 83.820312 40.554688 78.039062 40.128906 C 77.253906 39.957031 77.300781 39.820312 76.984375 39.78125 C 76.058594 39.679688 75.429688 40.007812 74.386719 39.492188 C 74.195312 39.390625 73.636719 39.082031 73.808594 38.875 C 74.515625 39.359375 75.410156 39.402344 76.246094 39.371094 C 75.859375 38.855469 75.132812 38.414062 75.203125 37.679688 C 75.769531 38.542969 76.675781 39.074219 77.640625 39.371094 L 76.84375 37.53125 L 77.042969 37.480469 C 78 39.324219 78.585938 39.757812 80.628906 39.769531 C 79.480469 37.964844 78.144531 38.285156 77.839844 36.980469 C 78.03125 37.121094 78.933594 37.925781 79.132812 37.777344 C 78.996094 37.398438 78.734375 36.554688 79.035156 36.285156 C 79.152344 37.019531 79.988281 38.65625 80.628906 38.664062 L 80.429688 36.375 C 80.71875 36.324219 80.589844 36.445312 80.636719 36.601562 C 80.6875 36.761719 80.90625 37.96875 81.074219 37.957031 L 82.023438 36.5625 C 81.714844 38.875 79.992188 38.089844 82.371094 40.445312 C 83.007812 39.980469 82.390625 39.28125 82.320312 38.605469 C 82.25 37.925781 82.242188 37.410156 82.621094 37.160156 L 82.621094 38.257812 C 83.027344 38.257812 83.085938 37.707031 83.414062 37.558594 C 83.4375 37.769531 83.335938 37.957031 83.238281 38.125 C 82.847656 38.785156 82.667969 38.535156 83.117188 39.449219 C 83.207031 39.519531 84.003906 38.914062 84.113281 38.804688 C 85.109375 37.859375 84.351562 38.039062 83.835938 37.289062 C 83.316406 36.542969 83.535156 36.824219 83.515625 36.5625 L 84.5625 37.558594 L 84.808594 37.410156 L 84.808594 35.976562 Z M 84.878906 35.976562 " fill-opacity="1" fill-rule="nonzero"/></g></svg>