<svg xmlns="http://www.w3.org/2000/svg" width="800" height="200" version="1.0" viewBox="-0.2 -3.8 384.5 157.7"><defs><clipPath id="a"><path d="M11 9.16h129V150H11Zm0 0"/></clipPath><clipPath id="b"><path d="M45.613 43.672h57.75v63h-57.75Zm0 0"/></clipPath></defs><path fill="#faf8f4" d="M188.399 95.22q-5.22 0-9.39-2.391-4.16-2.404-6.579-6.906-2.407-4.512-2.406-10.875-.001-6.375 2.406-10.89 2.419-4.531 6.578-6.923c2.782-1.601 5.91-2.406 9.39-2.406 3.477 0 6.602.805 9.376 2.406q4.155 2.392 6.562 6.922 2.422 4.517 2.422 10.89 0 6.363-2.422 10.891-2.408 4.517-6.562 6.907-4.161 2.377-9.375 2.375m0-7.141q3.058 0 5.344-1.5 2.295-1.5 3.578-4.406c.851-1.946 1.281-4.32 1.281-7.125 0-2.813-.43-5.192-1.281-7.14q-1.283-2.921-3.578-4.423-2.286-1.514-5.344-1.515-3.036 0-5.344 1.53-2.298 1.518-3.578 4.423-1.282 2.905-1.281 7.125 0 4.204 1.281 7.11 1.28 2.894 3.578 4.405 2.309 1.517 5.344 1.516m23.895 6.594v-29.11h7.344l.328 7.094h-.562q.686-2.637 2.015-4.312 1.343-1.67 3.125-2.454a9.2 9.2 0 0 1 3.782-.796q3.152.002 5.203 1.984 2.046 1.968 2.89 5.953h-.906q.61-2.7 2.063-4.453 1.466-1.747 3.484-2.61a10.8 10.8 0 0 1 4.297-.874q2.684 0 4.812 1.171c1.414.782 2.532 1.918 3.344 3.407q1.22 2.22 1.219 5.437v19.563h-7.875V76.61q-.001-2.498-1.344-3.719-1.348-1.232-3.328-1.234-1.502.001-2.594.64a4.3 4.3 0 0 0-1.687 1.813c-.399.774-.594 1.684-.594 2.735v17.828h-7.625V76.376c0-1.445-.43-2.594-1.281-3.438-.844-.851-1.946-1.28-3.297-1.28q-1.406 0-2.531.64-1.114.628-1.782 1.86-.656 1.218-.656 3v17.515Zm57.177.547q-2.784-.001-5-.97-2.219-.966-3.484-2.905-1.266-1.953-1.266-4.813 0-2.451.89-4.094a7.3 7.3 0 0 1 2.454-2.64q1.56-.998 3.547-1.516a27 27 0 0 1 4.187-.719q2.561-.262 4.11-.484c1.039-.156 1.797-.39 2.265-.703.477-.32.719-.797.719-1.422v-.14q-.001-1.202-.547-2.063-.532-.855-1.562-1.313-1.033-.468-2.516-.468-1.5 0-2.625.468-1.111.456-1.812 1.235a4.5 4.5 0 0 0-.985 1.75l-7.25-.922q.608-2.637 2.313-4.5 1.715-1.875 4.375-2.86 2.668-.998 6.078-1c1.644 0 3.207.196 4.687.579q2.234.578 3.969 1.796a8.54 8.54 0 0 1 2.734 3.063c.664 1.242 1 2.727 1 4.453v19.64h-7.515V90.61h-.235a8.5 8.5 0 0 1-1.89 2.422q-1.172 1.034-2.813 1.61c-1.086.382-2.36.578-3.828.578m2.219-5.5q1.873.001 3.266-.735 1.404-.749 2.187-1.984.797-1.231.797-2.797v-3.078q-.363.205-1.031.422a13 13 0 0 1-1.5.36q-.846.156-1.703.296l-1.563.234q-1.424.205-2.531.672-1.112.47-1.719 1.25-.61.768-.61 1.922 0 1.113.563 1.875.576.768 1.563 1.172.997.392 2.28.39m28.79 5.501q-2.784-.001-5-.97-2.219-.966-3.484-2.905-1.266-1.953-1.266-4.813 0-2.451.89-4.094a7.3 7.3 0 0 1 2.454-2.64q1.559-.998 3.547-1.516a27 27 0 0 1 4.187-.719q2.561-.262 4.11-.484 1.56-.234 2.265-.703c.477-.32.719-.797.719-1.422v-.14q-.001-1.202-.547-2.063-.533-.855-1.563-1.313-1.032-.468-2.515-.468-1.5 0-2.625.468-1.111.456-1.813 1.235a4.5 4.5 0 0 0-.984 1.75l-7.25-.922q.608-2.637 2.312-4.5 1.716-1.875 4.375-2.86c1.782-.664 3.805-1 6.079-1 1.644 0 3.207.196 4.687.579q2.233.578 3.969 1.796a8.54 8.54 0 0 1 2.734 3.063c.664 1.242 1 2.727 1 4.453v19.64h-7.515V90.61h-.235a8.5 8.5 0 0 1-1.89 2.422q-1.173 1.034-2.813 1.61c-1.086.382-2.36.578-3.828.578m2.219-5.5q1.873.002 3.265-.735c.938-.5 1.664-1.16 2.188-1.984q.797-1.231.797-2.797v-3.078q-.363.205-1.032.422a13 13 0 0 1-1.5.36q-.845.156-1.703.296l-1.562.234q-1.425.205-2.531.672c-.743.313-1.313.73-1.72 1.25q-.608.768-.609 1.922 0 1.113.563 1.875.576.768 1.562 1.172.998.392 2.282.39m31.304 5.454c-2.304 0-4.359-.586-6.171-1.766q-2.72-1.764-4.297-5.11-1.564-3.356-1.563-8.156-.001-4.875 1.61-8.203 1.607-3.34 4.328-5.062 2.716-1.734 6.03-1.735 2.357.002 3.985.766c1.094.512 1.992 1.156 2.703 1.938a9.7 9.7 0 0 1 1.672 2.437h.219v-14.89h7.86v39.28h-7.75v-4.609h-.297q-.612 1.266-1.704 2.438-1.095 1.172-2.718 1.922-1.61.75-3.907.75m2.313-6.328q2.028 0 3.453-1.094 1.419-1.09 2.188-3.047c.507-1.3.765-2.832.765-4.594q0-2.624-.75-4.562-.75-1.935-2.187-3-1.442-1.078-3.47-1.078-2.003 0-3.421 1.078c-.937.718-1.648 1.73-2.125 3.031-.48 1.305-.719 2.812-.719 4.531q0 2.625.719 4.594c.477 1.305 1.188 2.32 2.125 3.047q1.418 1.094 3.422 1.094m0 0"/><path fill="#c77b3c" d="M136.188 29.895 75.5 11.047 14.844 29.895S.082 124.527 75.5 148.137c75.45-23.61 60.688-118.242 60.688-118.242m0 0"/><path fill="#c77b3c" d="m75.5 148.418-.082-.027c-17.27-5.41-31.215-14.989-41.441-28.54-8.2-10.82-14.032-24.144-17.383-39.64-5.692-26.34-2.086-50.148-2.059-50.371l.027-.172L75.5 10.738l.086.028 60.852 18.902.03.172c.028.223 3.634 24-2.058 50.37-3.351 15.497-9.183 28.821-17.383 39.642-10.226 13.523-24.172 23.128-41.441 28.539ZM15.098 30.121c-.309 2.195-3.325 24.934 2.086 50.004 3.324 15.414 9.128 28.684 17.27 39.414 10.144 13.41 23.976 22.934 41.077 28.285 17.098-5.379 30.934-14.902 41.074-28.312 8.141-10.762 13.946-24.032 17.27-39.442 5.41-25.074 2.395-47.808 2.086-50.007L75.5 11.328Zm0 0"/><g clip-path="url(#a)"><path fill="#c77b3c" d="M139.117 45.023c-.199-9.27-1.101-15.156-1.156-15.382l-.168-1.098L75.727 9.215l-.196-.055-62.293 19.356-.168 1.097c-.027.254-.93 6.168-1.156 15.383-.195 8.535.227 21.61 3.215 35.524 3.379 15.722 9.324 29.246 17.633 40.234 10.426 13.773 24.625 23.55 42.203 29.074l.535.168.535-.168c17.582-5.496 31.781-15.27 42.203-29.074 8.313-10.988 14.258-24.54 17.637-40.234 3.016-13.887 3.41-26.989 3.242-35.497M75.5 12.906l59.05 18.34c.622 4.988 2.735 25.75-2.167 48.516-3.27 15.183-8.988 28.258-16.988 38.82-9.86 13.043-23.27 22.34-39.864 27.637-16.594-5.297-29.976-14.594-39.84-27.61-8-10.562-13.718-23.605-17.015-38.793-2.957-13.55-3.352-26.312-3.184-34.652.14-6.734.676-11.691.961-13.89Zm0 0"/></g><g clip-path="url(#b)"><path fill="#1a2740" d="M75.21 43.719c.43.468.411 1.367.282 1.965.149.16 1.074-1.02 1.215-1.121-.02.675-.676 1.132-.934 1.683.247.09.997-.312 1.028 0-.645.39-1.215.102-1.824.559-.868.664-1.907 1.758-.934 2.804.203-.449.793-.57 1.074-.886.281-.32.383-.938.703-1.262l-.14 1.027 1.215-.562c-.168.476-.676.664-1.028.984l.653.418-1.188-.027c-.98.636-1.02 1.402-.094 2.074.047 0 .719-.398.766-.457.14-.14.226-.45.375-.652.148-.207.683-.692.598-.43l-.465.98 1.68-.656-1.028.985.844.324c-.403.261-1.04-.215-1.328-.168-.29.047-.723.402-.778.636-.054.235 1.188.973 1.41 1.102.817-1.074 2.668-1.11 1.91-2.812-.542-1.207-1.46-.645-2.234-1.504.465.035.926.27 1.403.093-.086-1.066-1.524-1.16-1.45-2.293.344.309.653.817 1.168.844-.039-.508.235-.851-.007-1.347-.247-.497-1.2-1.122-1.207-2.02.25-.055.156.066.234.188.195.328.344.738.7.933.038-.355-.02-.98.28-1.215.047.59-.18 1.328.329 1.778l.558-1.965c.059.46.262.953.047 1.402.2.16.644-.691.844-.746-.047.383-.274.738-.508 1.027-.23.29-.324.168-.402.348-.075.176-.168.98-.11 1.055 1.574-1.215 1.508-.594 1.403-2.617l.418 1.027.89-1.121c-.043.789-.555 1.277-.937 1.965.59-.047 1.171-.403 1.59-.797.421-.39.32-.625.562-.465l-.656 1.168 1.496-.469c-.926 1.262-2.805.598-3.973 1.496-.926.711-.597 1.328.094 2.059.91-1.227.789-.172 1.074-2.051.422-.121-.016 1.086.328.938.348-.153 1.457-1.301 1.543-1.215.067.297-.84 1-.84 1.074.23.289.645.047.934.187-.356.43-.965.11-1.402.278-.973.55-1.391 1.363-.618 2.18.532-.43 2.254-.786 2.524-1.391.273-.61-.168-1.797.234-2.434l.254 1.477.215.254c.11-.282.531-.637.617-.887.149-.45-.262-1.45.317-1.879v1.309l.71-1.02.504-.476-.558 1.308 1.168-.469c.14.227-.461.551-.664.645-.207.094-.676.152-.758.226-.086.075-.262.665-.402.813.804-.121 1.382-.516 1.918-1.121l-.329.84 1.028-.235c-.711.75-1.852.543-2.746 1.086-.899.543-.711.992-1.18 1.348 1.121.7 1.61-.273 2.523-.703l-.746 1.027 1.262-.37c.066.39-.805.706-1.168.792-1.496.363-2.601-.45-3.976.703-.41.344-.598.766-.934 1.121-.531.57-1.758 1.403-1.523 2.262l.597 1.187c.848-.421 4.867-.156 3.59-1.824-.195-.12-1.035-.25-1.195-.281-.414.066-1.192-.008-1.414-.523l1.03.187c.048-.027-.57-.727-.327-.934.496.665.945.973 1.824.84-.18-.222-.02-.652-.113-.82-.094-.168-.973-.59-.825-1.14l.797.745c.168-.007.262-1.207.512-.933-.129.203-.215 1.39.14 1.308.321-.32.43-.617.59-1.011.16-.39-.054-.25.208-.203.066.738-.29 1.28-.723 1.82l.582.797c.121 0 .98-1.488 1.168-1.73.45-.551 2-1.731 1.965-2.423-.04-.69-.496-.925-.281-1.457l.558 1.028.469-1.59c.3.055-.11 1.11 0 1.402.187.207.777-.746 1.027-.605-.082.578-1 .933-1.187 1.195-.184.262-.149.852-.403 1.094 2.332-.61 1.25-1.14 2.246-2.43l-.187 1.403c.2.289 1.71-1.766 1.684-1.262l-.657 1.074 1.403-.14c-.664.71-1.758.206-2.243.98.645-.063 1.348.18 1.961-.047.618-.223.63-.812 1.02-.98l-.371.84 1.12-.231-1.401.793 1.214.281c-.683.344-1.355-.094-1.918-.14-.894-.079-2.023.035-2.757.234-.168.168 1.554.71 1.777.375v.183c-.832.536-1.84-.136-2.563-.082-.718.055-1.925 1.243-1.914 1.961.364-.129.746-.054 1.121-.129.598-.12 1.094-.55 1.684-.703l-.844.938c.368.101.766.176 1.121 0 .2.25-.726.43-.894.43-.89.02-1.059-.227-2.059.207-1 .43-.898 1.035-1.476 1.699-2.285 2.21-6.305 1.094-7.246 5.414 3.449-1.445 3.62-2.453 7.715-2.067.492-.074 1.851-1.086 1.82-1.617-.028-.535-.356-1.281-.39-1.336-.114-.18-.954-.449-.813-1.058l.652.562c.035-.187.074-1.09.281-1.027-.008.437.02.96.328 1.308.383-.44.72-.87.746-1.496.708.985-.964 1.852-.093 2.43.383-.41.691-.945 1.074-1.355.387-.41 1.187-.954 1.266-1.075.164-1.082.62-2.257 1.492-2.992.16.196-.492 1.16-.418 1.215.699-.039 1.187-.562 1.637-1.027.093.261-.31.793-.516.98-.563.524-1.422.43-1.309 1.45 2.356-.622 2.508-.876 3.442-2.786.027-.324-.196-1.426.027-1.797l.281 1.496.887-.933c.234.457-1.45 2.039-1.168 2.336 1.102-.383 1.73-1.242 2.383-2.149-.008.598-.383 1.121-.7 1.59.551-.039 1.008-.375 1.466-.637.46-.261.234-.207.308-.066-.86 1.356-2.719 1-3.644 2.29h2.011c.082 0 .793-.263.88-.337.323-.27.624-1.094 1.081-1.344l-.375 1.122 2.012-1.122c.094.317-.879.973-.84 1.028l1.774.234c-.575.477-1.774.164-2.336.094-.235.055-.524.418-.84.43.34.507 2.84.199 3.363.28-.52.384-1.344.313-1.96.466l.933.75c-.645.25-1.188-.645-1.47-.73-2.23-.395-6.784-.126-8.253 1.945 2.363.183 1.938.066 4.188-.813.71-.207 1.449-.187 2.074-.355.629-.168.562-.497.937-.516l-.375.656 1.496.278c-.468.347-2.586-.313-2.523.187.476.02 1.223.656 1.637.656h1.402c.016 0 .168-.199.23-.047-.363.383-1 .43-1.496.418.262.414.844.657 1.313.75-.426.485-1.688-.332-1.965-.703-.363-.23-1.684-.699-2.105-.707-.739-.02-1.504.82-2.188 1.035.398.461 1.348.618 1.918.664.336-.007.965-.738 1.543-.664l-.656.657 1.402.28-2.055.184c.524.543 1.375.61 2.055.844.035.211-1.023.047-1.215.094l.281 1.027c-.476-.101-.597-1.047-.746-1.168-.152-.12-1.152-.636-1.218-.656-1.446-.082-2.266-.984-3.786-.887-1.261.094-1.375.391-1.824 1.403.649-.215 1.207.375 1.73.375.524 0 .966-.383 1.45-.375l-.746.605c0 .219.851.133 1.027.14-.16.294-.664.31-.98.282-1.114-.082-1.957-.504-3.086 0-.692.309-1.028 1.04-1.73 1.356-1.356.628-2.485-.204-4.02 1.027-.149.125-1.364 1.32-1.215 1.45 3.254-.849 3.355-.595 6.394.198 1.047-.004 4.051-.605 3.551-2.066-.187-.3-1.062-.637-.886-1.309l.699.746.234.094c.074-.055.094-.879.375-.933l.094 1.308c.094.094.824-.215.96-.3.927-.512.348-1.075.63-1.946.289.086.066.965.328 1.219l.887-1.309c.421.278-.457 1.313-.563 1.68l1.309-.234c-.438.664-1.29.496-1.86.757-.922.547-1.402.727-1.59 1.535 1.77-.093 2.993-1.328 4.582-1.917.336-.774.672-1.122 1.45-1.45l.234-1.215c.344-.253.129.864.188 1.028.437-.055.746-.403 1.027-.7.281-.3.207-.503.262-.113-.29 1.383-1.954 1.121-2.227 2.309.61.121 2.656-.336 2.984-.805.25-.37.344-1.12.805-1.437.242-.02.102.035.063.16-.11.383-.309.746-.391 1.14l1.871-.843c-1.043 1.414-3.21 1.531.137 1.496.086 0 .34-.176.515-.094-1.39 1.207-3.039-.133-3.738.832 1.719.617 2.328.293 4.02.012l-1.121.605 1.308.703c-.656.223-1.496-.488-1.937-.543-.438-.058-1.075.122-1.57.075-1.337-.364-3.02-.711-4.255.234 1.114.309 2.348 1.402 3.555 1.035 1.207-.363.738-.906 1.207-.754l-.562.7 1.683-.47c-.273.477-.86.571-1.308.798l1.496.422c-.785.382-1.664-.18-2.293-.188-.625-.012-.852.215-1.309.188-1.633-.282-3.035-1.41-4.719-.282-.058.223.036.149.122.203.43.301 1.523.844 2.027.696.504-.153.746-.637 1.121-.48l-.559.515 1.309-.094c-.2.32-.703.348-1.031.469-.13.187.738.758.844.933-.872-.035-1.141-1.082-2.06-.84-.046.618.49.915.845 1.31-.758.175-1.207-1.141-1.403-1.263-3.375-1.753-4.23.086-7.293.512-.273.227 1.188.637 1.309.656-.59.579-1.672.524-2.367.168-.39-.195-.766-.765-1.176-.878-1.383-.364-3.488.992-4.309 2.066.715 9.52 2.192 24.043 1.7 32.414.785.813 1.972 1.477 3.113 1.559 1.14.086 1.89-.262 2.879.02.945.269 1.535 1.148 2.414 1.515 1.437.597 3.476.129 4.765 1.261-1.375-.058-2.793.075-4.16 0-2.59-.14-5.12-1.207-7.71-.656.046.621 3.187.871 4.019 1.637 1.223.844.328.234.242.316-1.824-.324-3.598-.41-5.394-.867-1.196-.308-3.375-1.262-4.516-.906-1.14.355-.168-.059-.129.187 1.047.645 2.41.754 3.27 1.68-1.036-.176-2.082-.308-3.102-.586-1.02-.281-2.45-1.031-3.02-1.012-.57.02-.55.168-.597.45-.094.597 1.605 1.355 1.383 1.617l-2.395-.84-2.933.84c.316-.664 1.914-1.086 2.113-1.672.539-1.523-7.008 1.402-8.043 1.121-2.403.16-.438.066-.418-.094 1.203-.785 2.578-1.12 3.926-1.59-.02-.128-.133-.16-.235-.175-3.355-.422-6.867.992-10.133 1.402-.093-.066 1.25-.738 1.372-.824.12-.086.18.02.12-.207l-7.1.281c.355-.355.987-.543 1.476-.719.484-.18 1.738-.664 2.336-.75 1.355-.183 2.457.348 3.785-.23 3.054-2.281 3.957-.13 6.508-1.582-.614-11.082.644-22.305 1.14-33.403-.082-.675-2.226-1.89-2.87-1.992-.942-.148-1.7.188-2.759-.047-1.054-.234-1.926-1.039-2.375-1.066-.707-.047-1.726 1.066-2.558.582-.832-.488.523-.34.691-.441.234-.141.41-.41.625-.59-.879-.324-1.879-.176-2.805-.29-.214.06-.84.61-.98.805-.32.422-.383 1.028-.984 1.215l.375-.933c-.45.242-1 .234-1.497.14.758-.355 1.75-.43 2.059-1.355-.402.008-.73-.16-1.152-.078-.621.129-1.867 1.468-2.403.824.664-.176 1.18-.645 1.684-1.074l-.805-.328c-.511-.036-1.437.57-1.718.98-.282.414-.29.984-.84 1.078l.37-.844c-.464.235-.96.43-1.495.375l1.3-.71.664-.645c-.382-.074-.832-.094-1.027-.516.887.504 3.149-.324 1.328-.718-1.414-.516-1.422.703-2.328 1.261-.91.563-.77.301-1.152.301.531-.355 1.566-.832 1.59-1.488-.766.16-1.532.289-2.317.12-.785-.167-.488-.073-.488-.202.3.027 1.758-.094 1.871-.328-.469-.227-.984-.524-1.121-1.075 2.043 1.137 1.242.82 3.363.653-.5-.512-1.765-1.125-1.73-1.86l1.265.84.278-1.027.086 1.262c.242.175 3.37 2.539 3.168 1.609-.176-1.086-1.13-1.04-1.664-1.797l1.496.516-.188-1.028c.434-.054.504 1.114.637 1.371.14.375.57 1.059.766 1.2.195.14 1.046.215 1.355.234.309.016.617.074.516-.14-.348-.778-1.477-.489-1.59-1.356l.933.465c.059-.063-.363-.832-.14-1.028.293.336.375.926.89 1.028l.328-1.121c.317.488.063 1.027-.039 1.523.457.73 1.207.469 1.899.535.691.063 1.094.13 1.637.188.082-1.348-1.543-.75-1.778-1.871.348.215.692.496 1.121.468l-.187-1.03.691.831.524-.926c.125.43 0 .899-.262 1.262.77.61.496 1.266 1.441 1.711 1.395.664 2.75 0 4.2.106 1.449.101 1.082.242 1.632.28-.183-.515-2.257-2.398-2.59-2.695-.511-.296-1.57-.355-2.187-.523-.941-.262-3.027-1.121-3.879-1.074s-1.176.469-1.805.543c-.625.074-1.261.113-1.605-.348.719.059 1.477-.055 2.055-.512-2.899-1.398-3.39.653-5.797.418l1.215-.464c0-.153-1.063-.43-.84-.657.804.328 1.543.43 2.308-.074.766-.504.168.008.121-.207-.542-.047-1.296-.477-1.832-.457-.972.316-1.933 1.07-3.222.637l1.523-.395.719-.449c-.383.066-.953-.27-1.262-.27-.644.133-1.418.434-2.105.176.027-.23 1.308-.254 1.59-.37l-.84-.704-.281-.418c.761.41 1.789 1.055 2.617 1.016-.551-.457-1.028-.953-1.309-1.633.149-.2.16.008.215.074.945 1.027.879.914.953-.496.867 1.25-1.164 1.781 2.477 2.336.218-.078-2.11-1.965-1.633-1.961l1.168.746c.047-.375-.14-.73-.18-1.086-.035-.351.02-.129.18-.129.476 1.024.14 1.758 1.262 2.336 1.148.832 4.16.992 5.675 1.246 1.203.203 2.391.586 3.625.625.04-.039-.12-.933-.195-1.066-.254-.45-2-1.04-2.504-1.04-.508 0-1.172.684-1.695.188l1.031-.23c.055-.219-.039-.153-.121-.219-.207-.156-.516-.25-.629-.531.629.14 1.207.476 1.871.375l-.656-1.121c.094-.114 1.125 1.015 1.273 1.11.43.253 1 .206 1.43.476.461-2.11-2.375-2.524-3.86-2.121-1.245.394-.816.597-1.48 1.421s-.586.665-.84.563c.45-.367.625-.938.84-1.45-.062-.046-1.008.063-1.148.11-.586.5-1.356 1.125-2.215 1.012l1.055-.582.535-.54c-.461-.09-1.442-.144-1.684-.468 1.403-.094 3.16.195 4.3-.75-.374-.008-.87-.398-1.187-.445-.855.058-2.355.64-3.113-.207.805.12 1.55 0 2.336-.188-.262-.195-.934-.738-1.215-.805-.281-.066-1.625.692-2.242.243l1.496-.512c-.57-.16-1.18-.402-1.59-.844l1.684.422c-.3-.43-.73-.84-.75-1.402.637.664 1.215 1.43 2.105 1.777-.062-.332-.754-1.703-.328-1.777.477 1.234 1.028 2.32 2.383 2.71l-.336-.972-.644-1.035c-.02-.078.093-.059.14-.047.68.215 1.196 1.766 2.008 2.195.813.43 2.785.215 3.938.785-.372-.972-2.618-1.46-3.086-2.007-.504-.172-1.223.12-1.684-.375l1.121-.047c-.223-.168-.523-.797-.68-.907-.16-.113-.507-.14-.73-.261s-1.02-.805-.457-.57c.559.234.887.476.926.43l-.375-1.263.187-.046c.297.894.832 1.718 1.637 2.242l-.61-1.778c.243-.054.169.079.243.18.199.242.308.55.554.758l.7-.75c.074.367-.516.86-.524 1.074.153 1.145 1.676 1.602 2.63 1.918.37.113.015-.777-.048-.86-.066-.085-1.554-.952-1.308-1.187l1.308.656-.281-.984.187-.047.7 1.309.61-.84c.12.531-.49 1.121-.47 1.523.047.786.442 1.235.672 1.871.235.633.188 1.11.543 1.653 2.059-.899-.344-2.68 0-4.102l.516 1.121.558-1.402-.136 1.121.933-.562c.168.207-.758.964-.926 1.086l.457 1.16c.188.148.758-1.918 1.028-1.965l-.184 1.402c.121.133.774-.336.887-.465.168.606-.918.774-1.121 1.028-.207.25-.328 1.195-.61 1.578.336.039.692.187 1.028.047.34-.14.664-.887.89-.98.223-.094.176.019.141.14l-.469.887 1.403-.329c-.438.516-1.133.676-1.778.797l1.032.653c-.63.234-1.125-.383-1.543-.457-.637-.121-1.57-.075-1.676.73.219 2.418 3.664 2.258 5.281 3.43.34-.403.629-.88.984-1.27.356-.394 1.094-.953 1.27-1.254.328-1.59-2.953-2.129-3.691-3.515-.825-1.149-.348-2.348-1.262-3.32-1.14-1.196-2.133-.868-3.59-1.083-1.46-.214-2.57-.832-3.918-1.132-.477-.11-1.281-.309-1.469-.813.504.3 1.094.457 1.684.469-.281-.356-.738-.805-.61-1.309a3.77 3.77 0 0 0 1.825 1.59c.008-.234-.817-1.324-.383-1.312.793 1.695 2.402 1.945 4.113 1.87-1.078-1.25-3.75-1.081-4.16-2.992.121.168 1.215 1.18 1.356 1.032.14-.258-.418-1.43-.094-1.301l.582 1.57 1.008.301c-.329-.629-.72-1.32-.61-2.059.864 2.395 3.293 3.133 5.192 4.489.14-.871.261-1.32-.47-1.918-.855-.946-2.491-.36-2.991-1.344.476.223.965.336 1.496.277l-.235-.746c.657.88 1.676 1.082 2.528 1.684.363.11-.114-1.113.324-1.031l.281 1.683c.739-.222.617-.945 1.028-1.402l-.094 1.027.703-.558c-.113 1.78-2.793.078-1.227 4.859.504.887 1.317 1.488 1.356-.047-.047-.672-.953-1.68-.371-2.289-.012.356.097.906.37 1.121.02-.496.141-1.195.563-1.496l-.187.938c.27.152.785-.711.75-.329l-.738.86.168 1.148c.289.254.941-1.062 1.168-1.215l-.329 1.121.934-.277c-.242.606-1.02.512-1.363.832-.348.317-.496.84-.375 1.035.12.2 1.562.61 1.86.758.3.153 1.171.86 1.394.813 1.98-1.024.16-2.364-.825-3.356-3.46-3.781-.601-5.347-6.027-5.75-.738-.156-.691-.289-.992-.324-.867-.094-1.457.215-2.442-.273-.175-.094-.699-.383-.539-.579.664.457 1.504.496 2.29.465-.364-.484-1.047-.894-.981-1.586.531.813 1.383 1.309 2.29 1.586l-.747-1.726.184-.047c.898 1.73 1.449 2.14 3.367 2.148-1.078-1.695-2.332-1.39-2.617-2.617.175.133 1.027.887 1.214.75-.129-.355-.375-1.152-.093-1.402.113.687.894 2.222 1.496 2.234l-.188-2.152c.274-.047.149.066.196.215.046.148.253 1.28.414 1.273l.886-1.309c-.289 2.168-1.906 1.43.328 3.645.598-.441.02-1.094-.046-1.73-.067-.637-.075-1.122.28-1.356v1.027c.384 0 .438-.511.747-.652.02.195-.074.375-.168.531-.363.617-.531.383-.113 1.246.086.063.832-.507.937-.609.934-.887.223-.719-.262-1.422-.488-.7-.28-.437-.3-.68l.98.934.235-.14v-1.348Zm0 0"/></g></svg>