<?xml version="1.0" encoding="UTF-8"?>
<svg version="1.1" xmlns="http://www.w3.org/2000/svg" width="642" height="389">
<path d="M0 0 C1.65 0.33 3.3 0.66 5 1 C5 1.66 5 2.32 5 3 C5.66 3 6.32 3 7 3 C8.20166016 4.35424805 8.20166016 4.35424805 9.5390625 6.26171875 C10.28023315 7.3127478 10.28023315 7.3127478 11.03637695 8.38500977 C11.56062256 9.14483154 12.08486816 9.90465332 12.625 10.6875 C13.16406982 11.45827881 13.70313965 12.22905762 14.25854492 13.02319336 C17.44221805 17.61507529 20.44225109 22.26935349 23.3125 27.0625 C28.88453088 36.26149964 36.24865032 45.18880034 46.11328125 50.0390625 C48.20130901 51.10253005 49.35611019 52.33999362 51 54 C54.92138637 56.7837002 58.96957183 59.37732904 63 62 C63.97453125 62.639375 64.9490625 63.27875 65.953125 63.9375 C70.48543029 66.87463639 74.99328269 69.54295296 79.83691406 71.92480469 C83.59620226 73.79341701 87.294088 75.7782236 91 77.75 C91.77472656 78.16121094 92.54945313 78.57242188 93.34765625 78.99609375 C95.23222374 79.99654316 97.11617732 80.99814885 99 82 C98.43425241 86.91068907 96.89701506 90.9398081 94.6875 95.3125 C94.17159302 96.33887573 94.17159302 96.33887573 93.64526367 97.38598633 C88.22945424 107.78033309 81.45068779 117.85112249 73 126 C72.12756377 127.06867527 71.26894517 128.14913183 70.4375 129.25 C67.93347423 132.07505472 67.42078492 132.29225139 64 133 C63.7215625 133.60070312 63.443125 134.20140625 63.15625 134.8203125 C60.85490241 139.1586637 56.02420067 141.38453536 52 144 C51.01386719 144.65484375 50.02773438 145.3096875 49.01171875 145.984375 C40.70217451 151.32400741 32.14675555 155.33014024 23 159 C22.01644531 159.41378906 21.03289062 159.82757813 20.01953125 160.25390625 C-1.9168846 168.63862937 -35.46539396 168.18761438 -57 159 C-58.39244708 158.57215313 -59.7883423 158.15536345 -61.1875 157.75 C-72.27366724 154.08119645 -82.77228201 148.07617752 -92 141 C-93.28970703 140.04867187 -93.28970703 140.04867187 -94.60546875 139.078125 C-99.30528993 135.55143748 -99.30528993 135.55143748 -101 134 C-101 133.34 -101 132.68 -101 132 C-101.639375 131.731875 -102.27875 131.46375 -102.9375 131.1875 C-105 130 -105 130 -106 127 C-106.66 126.67 -107.32 126.34 -108 126 C-110 125 -110 125 -111 122 C-111.66 122 -112.32 122 -113 122 C-121.48940755 111.47972125 -136 92.94099423 -136 79 C-130.53319693 79.47939658 -127.0719301 81.47133263 -122.625 84.4375 C-121.98433594 84.84548828 -121.34367188 85.25347656 -120.68359375 85.67382812 C-119.08069104 86.7213541 -117.53438966 87.85446252 -116 89 C-116 89.66 -116 90.32 -116 91 C-115.17242187 91.13728516 -115.17242187 91.13728516 -114.328125 91.27734375 C-111.34940124 92.2019476 -109.27221922 93.73720977 -106.75 95.5625 C-105.85796875 96.20316406 -104.9659375 96.84382813 -104.046875 97.50390625 C-103.37140625 97.99761719 -102.6959375 98.49132812 -102 99 C-101.92860504 91.77522698 -102.14356385 84.59042365 -102.5 77.375 C-102.54769531 76.37082031 -102.59539062 75.36664063 -102.64453125 74.33203125 C-102.76091789 71.88791174 -102.87943943 69.44391657 -103 67 C-97.57803075 67.46967377 -93.72404187 68.89647277 -89.0625 71.75 C-88.45494873 72.10980957 -87.84739746 72.46961914 -87.22143555 72.84033203 C-85.47316758 73.88057362 -83.73626169 74.93984021 -82 76 C-81.14921875 76.51820313 -80.2984375 77.03640625 -79.421875 77.5703125 C-76.57897994 79.32869574 -73.78129333 81.14580445 -71 83 C-72.97472712 76.76401963 -75.30785062 70.85261235 -78.01171875 64.89453125 C-79.13324567 61.60974293 -79.42327422 59.44857099 -79 56 C-77.4609375 52.95703125 -77.4609375 52.95703125 -75.375 49.8125 C-74.63570528 48.67207066 -73.89875779 47.53011657 -73.1640625 46.38671875 C-72.79700195 45.82001465 -72.42994141 45.25331055 -72.05175781 44.66943359 C-69.96358749 41.35492369 -68.15702664 37.8870689 -66.3125 34.43359375 C-65.17174852 32.31845037 -63.97879115 30.25204984 -62.75 28.1875 C-61.08984399 25.16364441 -59.96683186 22.30334218 -59 19 C-56.47497934 19.36238106 -55.31839782 19.59155946 -53.71972656 21.64233398 C-53.36362305 22.33657471 -53.00751953 23.03081543 -52.640625 23.74609375 C-52.24746094 24.50083984 -51.85429687 25.25558594 -51.44921875 26.03320312 C-51.05347656 26.82662109 -50.65773438 27.62003906 -50.25 28.4375 C-49.83878906 29.22705078 -49.42757812 30.01660156 -49.00390625 30.83007812 C-46 36.68320442 -46 36.68320442 -46 39 C-45.34 39 -44.68 39 -44 39 C-42.98133771 40.65532623 -41.98189187 42.32260138 -41 44 C-40.34 44.33 -39.68 44.66 -39 45 C-39 45.66 -39 46.32 -39 47 C-38.43925781 47.24105469 -37.87851562 47.48210937 -37.30078125 47.73046875 C-34.52556993 49.2617823 -32.49968649 51.14596305 -30.1875 53.3125 C-27.1911529 56.07357837 -24.24441 58.64547772 -20.875 60.9375 C-19.92625 61.618125 -18.9775 62.29875 -18 63 C-18 63.66 -18 64.32 -18 65 C-16.35 65.66 -14.7 66.32 -13 67 C-13 67.66 -13 68.32 -13 69 C-12.28714844 69.2475 -11.57429688 69.495 -10.83984375 69.75 C-7.66697536 71.14658581 -5.29958283 72.87411042 -2.5625 75 C-1.51707031 75.79792969 -0.47164062 76.59585938 0.60546875 77.41796875 C1.15638184 77.83868652 1.70729492 78.2594043 2.27490234 78.69287109 C13.55114491 87.30493081 13.55114491 87.30493081 26 94 C27.72760291 94.80074295 29.45514184 95.60162799 31.18139648 96.40527344 C33.78294932 97.6136736 36.39134857 98.80701917 39 100 C36.32690475 95.50919999 33.51012781 92.51631837 29.390625 89.296875 C28.93171875 88.86890625 28.4728125 88.4409375 28 88 C28 87.34 28 86.68 28 86 C27.41734375 85.731875 26.8346875 85.46375 26.234375 85.1875 C23.97213399 83.98519009 22.19423682 82.66174087 20.25 81 C19.63640625 80.484375 19.0228125 79.96875 18.390625 79.4375 C17 78 17 78 17 76 C16.46375 75.773125 15.9275 75.54625 15.375 75.3125 C10.72099907 72.74055212 6.48069159 69.0161826 3 65 C3 64.01 3 63.02 3 62 C8.08271172 62.56546793 12.31083224 63.73769127 17.125 65.5625 C24.15918578 68.09629578 30.51069469 68.5683284 38 68 C33.95369169 60.47997419 26.95405185 57.21998624 19.3203125 53.98828125 C12.76217731 51.19500145 6.76115409 48.09952827 1.15234375 43.68359375 C-2.37677845 40.92306441 -6.04174139 38.34883209 -9.6796875 35.734375 C-12 34 -12 34 -14 32 C-13.8830081 27.78829175 -12.02776093 25.65782715 -9.328125 22.5703125 C-3.79140674 16.02395738 -2.11533639 8.1125401 0 0 Z " fill="#C2A662" transform="translate(342,170)"/>
<path d="M0 0 C3.087913 2.97240503 5.82171531 6.22103083 8.56640625 9.5078125 C9.27925781 10.3328125 9.99210938 11.1578125 10.7265625 12.0078125 C29.80757974 34.52537658 38.89674738 60.29390681 38.62890625 89.6328125 C38.62439453 90.58929688 38.61988281 91.54578125 38.61523438 92.53125 C38.60360642 94.85684008 38.58726727 97.1822901 38.56640625 99.5078125 C33.70535073 99.06589836 30.81678352 96.65698503 27.25390625 93.5703125 C26.70412109 93.11462891 26.15433594 92.65894531 25.58789062 92.18945312 C24.20207311 91.01366013 22.87842421 89.76542461 21.56640625 88.5078125 C21.56640625 87.8478125 21.56640625 87.1878125 21.56640625 86.5078125 C21.00953125 86.2603125 20.45265625 86.0128125 19.87890625 85.7578125 C14.45685471 82.82697383 10.14216216 78.49666783 6.56640625 73.5078125 C6.56640625 72.8478125 6.56640625 72.1878125 6.56640625 71.5078125 C5.92703125 71.2396875 5.28765625 70.9715625 4.62890625 70.6953125 C2.56640625 69.5078125 2.56640625 69.5078125 1.56640625 66.5078125 C0.24906881 65.81007021 -1.0868781 65.14701449 -2.43359375 64.5078125 C-4.21484375 62.921875 -4.21484375 62.921875 -5.93359375 61.1328125 C-6.50078125 60.54757813 -7.06796875 59.96234375 -7.65234375 59.359375 C-8.24015625 58.74835938 -8.82796875 58.13734375 -9.43359375 57.5078125 C-10.76458174 56.17213794 -12.09733324 54.83821222 -13.43359375 53.5078125 C-14.44679688 54.013125 -15.46 54.5184375 -16.50390625 55.0390625 C-17.85517024 55.69592694 -19.20674964 56.35214279 -20.55859375 57.0078125 C-21.22375 57.34167969 -21.88890625 57.67554688 -22.57421875 58.01953125 C-26.67246641 59.98829728 -29.78492062 61.07190588 -34.43359375 60.5078125 C-38.23045478 58.06697327 -40.67917628 55.03690988 -43.43359375 51.5078125 C-45.08729083 49.8282764 -46.75623985 48.16372296 -48.43359375 46.5078125 C-49.41350299 45.52938897 -50.39264963 44.55020118 -51.37109375 43.5703125 C-51.87382812 43.06757813 -52.3765625 42.56484375 -52.89453125 42.046875 C-57.07421875 37.8671875 -61.25390625 33.6875 -65.43359375 29.5078125 C-68.50827395 30.85298509 -70.30931277 32.23687704 -72.43359375 34.8203125 C-79.898736 43.6168177 -87.82485668 51.99182978 -95.93359375 60.1953125 C-96.52084229 60.79553223 -97.10809082 61.39575195 -97.71313477 62.01416016 C-98.27057373 62.57280762 -98.8280127 63.13145508 -99.40234375 63.70703125 C-99.89154297 64.20033936 -100.38074219 64.69364746 -100.88476562 65.2019043 C-103.57116866 67.46696889 -105.90238019 68.42869559 -109.37109375 68.9453125 C-113.55344048 68.3478344 -114.73093674 66.69556179 -117.43359375 63.5078125 C-118.27921875 62.5178125 -119.12484375 61.5278125 -119.99609375 60.5078125 C-120.80046875 59.5178125 -121.60484375 58.5278125 -122.43359375 57.5078125 C-123.19671875 56.6003125 -123.95984375 55.6928125 -124.74609375 54.7578125 C-126.43359375 52.5078125 -126.43359375 52.5078125 -126.43359375 50.5078125 C-131.51897409 54.62098778 -136.03458961 59.12227457 -140.43359375 63.9453125 C-140.94833252 64.50935791 -141.46307129 65.07340332 -141.9934082 65.65454102 C-142.500896 66.21069092 -143.00838379 66.76684082 -143.53125 67.33984375 C-145.93881359 69.97677392 -148.3744264 72.57950997 -150.87109375 75.1328125 C-151.73541016 76.01839844 -151.73541016 76.01839844 -152.6171875 76.921875 C-157.78968509 81.4380772 -163.86524223 83.13656279 -170.28320312 85.16992188 C-174.66382986 86.63270384 -177.3053719 87.96657359 -180.43359375 91.5078125 C-181.09359375 91.5078125 -181.75359375 91.5078125 -182.43359375 91.5078125 C-182.645 92.02730469 -182.85640625 92.54679687 -183.07421875 93.08203125 C-185.01327499 96.54224367 -187.57541144 99.34634852 -190.18359375 102.3203125 C-190.69664062 102.91134766 -191.2096875 103.50238281 -191.73828125 104.11132812 C-192.7754946 105.30620833 -193.81652634 106.49778456 -194.86132812 107.68603516 C-195.93701581 108.9324298 -196.98959034 110.19904688 -198.02148438 111.48193359 C-198.53388672 112.11309082 -199.04628906 112.74424805 -199.57421875 113.39453125 C-200.02829102 113.96776123 -200.48236328 114.54099121 -200.95019531 115.1315918 C-202.71772575 116.77141554 -204.08365298 117.11374066 -206.43359375 117.5078125 C-209.99958001 109.08257562 -210.02936096 100.8739028 -209.99609375 91.8828125 C-209.99594269 91.10835785 -209.99579163 90.3339032 -209.99563599 89.53598022 C-209.9049476 65.84982287 -203.25895077 44.44608303 -190.43359375 24.5078125 C-189.923125 23.59386719 -189.41265625 22.67992187 -188.88671875 21.73828125 C-188.4071875 21.00222656 -187.92765625 20.26617187 -187.43359375 19.5078125 C-186.77359375 19.5078125 -186.11359375 19.5078125 -185.43359375 19.5078125 C-185.09908203 18.45207031 -185.09908203 18.45207031 -184.7578125 17.375 C-183.14388741 13.88054272 -180.87322269 11.38191843 -178.24609375 8.6328125 C-177.50190186 7.84064331 -177.50190186 7.84064331 -176.74267578 7.0324707 C-175.31359611 5.51712541 -173.87457281 4.01183111 -172.43359375 2.5078125 C-171.78519531 1.81816406 -171.13679688 1.12851563 -170.46875 0.41796875 C-164.80586637 -5.45810579 -158.47112359 -10.3718788 -151.43359375 -14.4921875 C-150.52222656 -15.04777344 -149.61085938 -15.60335937 -148.671875 -16.17578125 C-139.27249324 -21.81039061 -129.97456282 -25.41551456 -119.55859375 -28.6796875 C-118.3375293 -29.07329468 -118.3375293 -29.07329468 -117.09179688 -29.47485352 C-75.87575903 -41.98919966 -31.22663769 -27.53963709 0 0 Z M-66.43359375 -20.4921875 C-66.72492188 -19.82912598 -67.01625 -19.16606445 -67.31640625 -18.48291016 C-73.32660018 -4.80641147 -79.35180139 8.86298895 -85.43359375 22.5078125 C-90.33963802 22.5078125 -92.07671007 20.70672518 -95.43359375 17.5078125 C-96.1915625 16.734375 -96.94953125 15.9609375 -97.73046875 15.1640625 C-100.61380335 12.33072792 -103.62340692 9.7564469 -106.74609375 7.1953125 C-107.57077148 6.5137207 -107.57077148 6.5137207 -108.41210938 5.81835938 C-109.75071591 4.71255398 -111.09188606 3.60985311 -112.43359375 2.5078125 C-113.99102899 5.62268298 -112.70945573 7.83410796 -111.79296875 11.13671875 C-111.6097406 11.80135635 -111.42651245 12.46599396 -111.23773193 13.15077209 C-109.16231247 20.61435862 -106.9316194 28.03228863 -104.68359375 35.4453125 C-104.2680095 36.82219934 -103.8526441 38.19915226 -103.4375 39.57617188 C-102.43870278 42.88747921 -101.43700623 46.19790035 -100.43359375 49.5078125 C-97.33618834 49.83862332 -97.33618834 49.83862332 -95.30859375 47.6328125 C-92.03009611 44.156815 -88.88260487 40.55505011 -85.69921875 36.9921875 C-83.25687162 34.31402755 -80.71689324 31.77003775 -78.125 29.23828125 C-75.63429568 26.69005489 -73.37315974 23.95707047 -71.109375 21.20703125 C-69.30459761 19.37701222 -67.83690829 18.40485805 -65.43359375 17.5078125 C-62.80859375 18.1328125 -62.80859375 18.1328125 -60.43359375 19.5078125 C-59.43359375 21.2578125 -59.43359375 21.2578125 -58.43359375 23.5078125 C-55.73770889 27.0758954 -52.96257129 29.98679285 -49.55859375 32.8828125 C-46.0314752 35.88518084 -43.0354266 39.1197598 -40.03515625 42.640625 C-37.94142469 45.0816096 -35.80786374 47.33705136 -33.43359375 49.5078125 C-32.77359375 49.5078125 -32.11359375 49.5078125 -31.43359375 49.5078125 C-31.07007813 48.28449219 -30.7065625 47.06117188 -30.33203125 45.80078125 C-29.82442756 44.09889604 -29.31659751 42.39707833 -28.80859375 40.6953125 C-28.54224121 39.80054199 -28.27588867 38.90577148 -28.00146484 37.98388672 C-26.61707797 33.35872071 -25.20066912 28.74877243 -23.69921875 24.16015625 C-23.42416504 23.31493408 -23.14911133 22.46971191 -22.86572266 21.59887695 C-22.33897955 19.98949036 -21.80511483 18.38241219 -21.26318359 16.77807617 C-19.88146133 12.54348201 -19.13242475 9.02534753 -19.43359375 4.5078125 C-23.15973528 5.62635836 -23.15973528 5.62635836 -25.43359375 8.5078125 C-26.01109375 8.7759375 -26.58859375 9.0440625 -27.18359375 9.3203125 C-29.52494156 10.55602384 -31.05269444 12.0413939 -32.875 13.9375 C-34.87335989 15.95088515 -36.95468244 17.85508557 -39.05859375 19.7578125 C-39.81398438 20.44359375 -40.569375 21.129375 -41.34765625 21.8359375 C-43.43359375 23.5078125 -43.43359375 23.5078125 -46.43359375 24.5078125 C-46.83892334 23.24203369 -46.83892334 23.24203369 -47.25244141 21.95068359 C-48.47981538 18.37308379 -49.87279617 14.91118941 -51.33203125 11.421875 C-51.60826324 10.76126068 -51.88449524 10.10064636 -52.1690979 9.42001343 C-52.75128384 8.02954933 -53.33458465 6.63955155 -53.91894531 5.25 C-54.80248723 3.14734481 -55.68075503 1.04254151 -56.55859375 -1.0625 C-59.31549584 -7.64755421 -62.11484685 -14.16531532 -65.43359375 -20.4921875 C-65.76359375 -20.4921875 -66.09359375 -20.4921875 -66.43359375 -20.4921875 Z " fill="#C2A662" transform="translate(409.43359375,118.4921875)"/>
<path d="M0 0 C14.81184847 1.4242162 27.66454321 5.79844347 38 17 C38 17.66 38 18.32 38 19 C38.57492187 19.268125 39.14984375 19.53625 39.7421875 19.8125 C42.06207538 21.03264864 44.04014008 22.4145552 46.125 24 C47.14980469 24.7734375 47.14980469 24.7734375 48.1953125 25.5625 C51.9401655 28.54541321 51.9401655 28.54541321 52.30078125 31.28515625 C52.32808564 37.75629641 51.48243612 43.01555579 49 49 C36.6740444 44.75415238 26.36672387 30.46090618 17.359375 21.3203125 C15.16103131 19.15836523 12.90041052 17.13368605 10.5625 15.125 C2.31815684 7.81814068 2.31815684 7.81814068 0 4 C0 2.68 0 1.36 0 0 Z " fill="#BAA165" transform="translate(395,196)"/>
<path d="M0 0 C5.40593692 1.69900875 8.42669245 4.93842458 11.8125 9.375 C14.31417504 12.37701005 17.09363069 14.77467795 20.05078125 17.31640625 C25.13636867 21.70896773 29.08492057 26.57808588 33 32 C30.6875 31.875 30.6875 31.875 28 31 C27.525625 30.030625 27.05125 29.06125 26.5625 28.0625 C25.26320228 24.71159609 25.26320228 24.71159609 21.8125 23.625 C20.884375 23.41875 19.95625 23.2125 19 23 C19 24.98 19 26.96 19 29 C14.37140594 25.22155587 10.4434381 21.3742579 6.67578125 16.734375 C4.90640727 14.9031348 3.32716666 13.99373565 1 13 C-0.1282554 14.1282554 -1.25614956 15.25687314 -2.3828125 16.38671875 C-3.53917449 17.5402876 -4.70129744 18.68809309 -5.8671875 19.83203125 C-9.18429638 23.10396549 -12.4016431 26.40153674 -15.4375 29.9375 C-19.38435854 34.53303205 -23.67483483 38.76310351 -28 43 C-28.609375 41.140625 -28.609375 41.140625 -29 39 C-27.25 36.75 -27.25 36.75 -25 35 C-24.01 35 -23.02 35 -22 35 C-22.33 33.35 -22.66 31.7 -23 30 C-24.94074861 30.27617533 -24.94074861 30.27617533 -27 31 C-27.99 32.485 -27.99 32.485 -29 34 C-29.66 33.67 -30.32 33.34 -31 33 C-30.360625 32.38125 -29.72125 31.7625 -29.0625 31.125 C-26.47871683 28.54853633 -24.05328029 25.84799465 -21.625 23.125 C-18.41861115 19.53639262 -15.12858323 16.09595843 -11.6953125 12.7265625 C-9.20188106 10.18716919 -6.89173987 7.49969611 -4.578125 4.796875 C-3.11118731 3.12659942 -1.59043707 1.55211328 0 0 Z " fill="#A49163" transform="translate(342,135)"/>
<path d="M0 0 C5.40593692 1.69900875 8.42669245 4.93842458 11.8125 9.375 C14.31417504 12.37701005 17.09363069 14.77467795 20.05078125 17.31640625 C25.13636867 21.70896773 29.08492057 26.57808588 33 32 C30.6875 31.875 30.6875 31.875 28 31 C27.525625 30.030625 27.05125 29.06125 26.5625 28.0625 C25.26320228 24.71159609 25.26320228 24.71159609 21.8125 23.625 C20.884375 23.41875 19.95625 23.2125 19 23 C19 24.98 19 26.96 19 29 C14.41549848 25.25754978 10.46796638 21.40842871 6.64453125 16.89453125 C5.18297542 15.21079116 3.67356734 13.66345585 2.0625 12.125 C0 10 0 10 0 8 C0.66 8 1.32 8 2 8 C2 7.01 2 6.02 2 5 C1.01 5.495 1.01 5.495 0 6 C-0.99 5.67 -1.98 5.34 -3 5 C-3.33 5.99 -3.66 6.98 -4 8 C-4.66 7.67 -5.32 7.34 -6 7 C-4.02 4.69 -2.04 2.38 0 0 Z " fill="#A99463" transform="translate(342,135)"/>
<path d="M0 0 C3 1 3 1 4.5234375 3.453125 C6.33816234 7.8123053 7.51079609 12.16938392 8.625 16.75 C8.8415625 17.59304687 9.058125 18.43609375 9.28125 19.3046875 C11.66186926 28.91533563 12.15261405 38.25404578 12.0625 48.125 C12.05798828 49.08148438 12.05347656 50.03796875 12.04882812 51.0234375 C12.03720017 53.34902758 12.02086102 55.6744776 12 58 C7.44310722 57.39496718 7.44310722 57.39496718 5.41796875 55.58984375 C4.27864583 54.05989583 3.13932292 52.52994792 2 51 C2.598125 50.855625 3.19625 50.71125 3.8125 50.5625 C5.56150404 50.1127561 7.28677023 49.57107659 9 49 C9.19554091 41.26527059 9.19138329 34.42635448 7 27 C6.72018298 25.20971439 6.45005829 23.41789801 6.1875 21.625 C5.32604667 16.57534268 3.47414818 12.70851439 1.04296875 8.23828125 C-0.27984996 5.39942311 -0.40633047 3.08811161 0 0 Z " fill="#C2AB74" transform="translate(436,160)"/>
<path d="M0 0 C2.64 0 5.28 0 8 0 C8.25 5.625 8.25 5.625 6 9 C5.71657752 10.98395735 5.43446777 12.96961687 5.24609375 14.96484375 C4.37985187 22.12852659 1.73924046 28.86650202 -2.015625 34.9609375 C-4.13540409 39.35190848 -4.97196654 44.25702747 -6 49 C-6.66 49 -7.32 49 -8 49 C-8.33 49.66 -8.66 50.32 -9 51 C-9.495 49.515 -9.495 49.515 -10 48 C-9.34 48 -8.68 48 -8 48 C-7.90203125 47.33355469 -7.8040625 46.66710937 -7.703125 45.98046875 C-6.74394136 40.06825923 -5.29124849 34.75055527 -3.1484375 29.16796875 C-1.71574642 25.21588552 -0.50125201 21.21861903 0.6875 17.1875 C0.90188721 16.46997559 1.11627441 15.75245117 1.3371582 15.01318359 C2.50128902 11.02811353 3.41143658 7.11994392 4 3 C2.35 3.66 0.7 4.32 -1 5 C-0.67 3.35 -0.34 1.7 0 0 Z " fill="#A79467" transform="translate(386,120)"/>
<path d="M0 0 C5.51631498 0.46676511 8.92721846 2.53076582 13.375 5.5625 C14.01566406 5.98724609 14.65632812 6.41199219 15.31640625 6.84960938 C16.8837215 7.89058742 18.44273501 8.94404634 20 10 C19.67 10.66 19.34 11.32 19 12 C16.4375 12.625 16.4375 12.625 14 13 C14 12.34 14 11.68 14 11 C11.93597032 11.48705712 11.93597032 11.48705712 10 13 C9.18129815 16.56206661 9.18129815 16.56206661 9 20 C5.95911984 16.4782969 3.99840887 13.1812663 2.25 8.875 C1.82203125 7.84117187 1.3940625 6.80734375 0.953125 5.7421875 C0 3 0 3 0 0 Z " fill="#B59C64" transform="translate(206,249)"/>
<path d="M0 0 C8.61697032 0.82855484 17.73230069 2.03086007 25 7 C25 7.33 25 7.66 25 8 C21.4780279 8.08004482 18.38018531 8.04005702 15 7 C14.54625 7.66 14.0925 8.32 13.625 9 C13.08875 9.66 12.5525 10.32 12 11 C11.34 11 10.68 11 10 11 C10 11.66 10 12.32 10 13 C6.91245575 11.64416535 4.95292371 10.17282591 2.75 7.625 C2.22921875 7.03976563 1.7084375 6.45453125 1.171875 5.8515625 C0 4 0 4 0 0 Z " fill="#B0985D" transform="translate(395,196)"/>
<path d="M0 0 C1.65 0 3.3 0 5 0 C4.33742188 0.65226563 3.67484375 1.30453125 2.9921875 1.9765625 C-1.43370868 6.40245868 -5.66804028 11.01367826 -9.94140625 15.5859375 C-25.32097522 31.99081107 -25.32097522 31.99081107 -34 33 C-33.67 32.01 -33.34 31.02 -33 30 C-31.35 30 -29.7 30 -28 30 C-28 29.34 -28 28.68 -28 28 C-26.35 27.67 -24.7 27.34 -23 27 C-23 26.01 -23 25.02 -23 24 C-22.34 24 -21.68 24 -21 24 C-21 23.34 -21 22.68 -21 22 C-20.01 22 -19.02 22 -18 22 C-18 21.01 -18 20.02 -18 19 C-17.34 19 -16.68 19 -16 19 C-15.7525 18.360625 -15.505 17.72125 -15.25 17.0625 C-14 15 -14 15 -11.875 14.25 C-10.946875 14.12625 -10.946875 14.12625 -10 14 C-10 12.35 -10 10.7 -10 9 C-8.68 8.67 -7.36 8.34 -6 8 C-6 7.34 -6 6.68 -6 6 C-5.34 6 -4.68 6 -4 6 C-4 5.34 -4 4.68 -4 4 C-2.68 3.67 -1.36 3.34 0 3 C0 2.01 0 1.02 0 0 Z " fill="#9B8964" transform="translate(278,168)"/>
<path d="M0 0 C2.875 -0.125 2.875 -0.125 6 0 C8 2 8 2 8.5 4.0625 C8.665 4.701875 8.83 5.34125 9 6 C9.66 6.33 10.32 6.66 11 7 C11 6.34 11 5.68 11 5 C11.66 5 12.32 5 13 5 C13.33 4.01 13.66 3.02 14 2 C14.66 2 15.32 2 16 2 C16 3.32 16 4.64 16 6 C16.66 6 17.32 6 18 6 C18 5.34 18 4.68 18 4 C19.4540625 3.5359375 19.4540625 3.5359375 20.9375 3.0625 C23.84065792 2.30476658 23.84065792 2.30476658 25 1 C26.99958364 0.95919217 29.00045254 0.95745644 31 1 C31 1.99 31 2.98 31 4 C30.34 3.67 29.68 3.34 29 3 C26.06318216 4.38181045 23.24104032 5.88633881 20.40625 7.46289062 C16.41925333 9.5799177 13.50936123 10.54580165 9 10 C5.24120359 7.58363088 2.62409914 4.59598771 0 1 C0 0.67 0 0.34 0 0 Z " fill="#A99467" transform="translate(366,169)"/>
<path d="M0 0 C1.18207031 -0.00080566 2.36414063 -0.00161133 3.58203125 -0.00244141 C8.47549193 0.02919735 13.0257516 0.0902746 17.8125 1.1875 C17.8125 1.8475 17.8125 2.5075 17.8125 3.1875 C16.46671875 3.17964478 16.46671875 3.17964478 15.09375 3.17163086 C11.7316014 3.15448147 8.3695 3.14199784 5.00732422 3.13256836 C3.55842348 3.12757215 2.10952769 3.12077291 0.66064453 3.11206055 C-6.7033831 3.06892186 -13.88507173 3.11558392 -21.1875 4.1875 C-23.35337688 4.24959509 -25.52087306 4.27462076 -27.6875 4.25 C-28.7290625 4.24097656 -29.770625 4.23195313 -30.84375 4.22265625 C-32.00390625 4.20525391 -32.00390625 4.20525391 -33.1875 4.1875 C-24.52794954 -1.58553364 -9.98989733 0.0066706 0 0 Z " fill="#B1A06F" transform="translate(326.1875,85.8125)"/>
<path d="M0 0 C0.99 0.33 1.98 0.66 3 1 C1.625 3 1.625 3 0 5 C-0.66 5 -1.32 5 -2 5 C-1.67 6.65 -1.34 8.3 -1 10 C-0.67 9.34 -0.34 8.68 0 8 C0.99 8 1.98 8 3 8 C3 7.01 3 6.02 3 5 C3.99 5 4.98 5 6 5 C5.41889329 8.42754467 4.31446376 10.04538661 1.83984375 12.453125 C1.21142578 13.071875 0.58300781 13.690625 -0.06445312 14.328125 C-0.72380859 14.96234375 -1.38316406 15.5965625 -2.0625 16.25 C-2.72572266 16.8996875 -3.38894531 17.549375 -4.07226562 18.21875 C-5.70829317 19.8194676 -7.35090912 21.41276193 -9 23 C-9.609375 21.140625 -9.609375 21.140625 -10 19 C-8.25 16.75 -8.25 16.75 -6 15 C-5.01 15 -4.02 15 -3 15 C-3.33 13.35 -3.66 11.7 -4 10 C-5.94074861 10.27617533 -5.94074861 10.27617533 -8 11 C-8.99 12.485 -8.99 12.485 -10 14 C-10.66 13.67 -11.32 13.34 -12 13 C-11.319375 12.34 -10.63875 11.68 -9.9375 11 C-6.43274653 7.50531766 -3.22778212 3.74869221 0 0 Z " fill="#A48E67" transform="translate(323,155)"/>
<path d="M0 0 C5.94 0.99 5.94 0.99 12 2 C10.87687034 5.36938898 9.46825907 6.53174093 7 9 C6.67 9.99 6.34 10.98 6 12 C5.34 10.68 4.68 9.36 4 8 C3.34 8 2.68 8 2 8 C1.67 8.66 1.34 9.32 1 10 C-0.32 9.67 -1.64 9.34 -3 9 C-3.33 7.68 -3.66 6.36 -4 5 C-3.34 5 -2.68 5 -2 5 C-1.34 3.35 -0.68 1.7 0 0 Z " fill="#C3A96A" transform="translate(409,202)"/>
<path d="M0 0 C3 1 3 1 4.515625 3.4296875 C6.37989753 7.91375354 7.59174031 12.41657156 8.75 17.125 C8.98332031 18.01832031 9.21664063 18.91164062 9.45703125 19.83203125 C9.67230469 20.69441406 9.88757813 21.55679688 10.109375 22.4453125 C10.30499023 23.22406738 10.50060547 24.00282227 10.70214844 24.80517578 C11.02337824 27.17227083 10.73076789 28.74412338 10 31 C8.0872368 27.60919251 6.82749466 24.55292781 6.125 20.75 C5.4007687 17.04767963 4.15459601 14.13674535 2.375 10.8125 C0.36051691 7.02574439 -0.5758249 4.37626921 0 0 Z " fill="#A79169" transform="translate(436,160)"/>
<path d="M0 0 C2.475 0.495 2.475 0.495 5 1 C5.33 3.31 5.66 5.62 6 8 C6.9590625 8.1546875 6.9590625 8.1546875 7.9375 8.3125 C8.9584375 8.6528125 8.9584375 8.6528125 10 9 C10.33 9.99 10.66 10.98 11 12 C11.66 12 12.32 12 13 12 C14.32 14.97 15.64 17.94 17 21 C17.99 20.67 18.98 20.34 20 20 C19.67 21.65 19.34 23.3 19 25 C17 23.625 17 23.625 15 22 C15 21.34 15 20.68 15 20 C14.34 20 13.68 20 13 20 C11.44938703 18.00934821 10.02590924 16.0298928 8.625 13.9375 C8.221604 13.34493408 7.81820801 12.75236816 7.40258789 12.1418457 C4.73740783 8.19409167 2.24778053 4.20237229 0 0 Z " fill="#A19268" transform="translate(216,272)"/>
<path d="M0 0 C-0.99 1.485 -0.99 1.485 -2 3 C-2.66 3 -3.32 3 -4 3 C-3.67 4.65 -3.34 6.3 -3 8 C-4.65 9.32 -6.3 10.64 -8 12 C-8 11.34 -8 10.68 -8 10 C-8.66 10 -9.32 10 -10 10 C-10.33 10.99 -10.66 11.98 -11 13 C-12.15793426 8.9472301 -11.96681638 6.73695111 -10 3 C-8.2466075 0.66214334 -7.27138682 0.07943029 -4.4375 -0.75 C-2 -1 -2 -1 0 0 Z " fill="#BCA465" transform="translate(346,140)"/>
<path d="M0 0 C0.99 0 1.98 0 3 0 C1.28421479 4.07373563 -1.49720326 7.27505859 -4.3125 10.625 C-4.78623047 11.21023437 -5.25996094 11.79546875 -5.74804688 12.3984375 C-8.5458979 15.73595609 -10.66731546 17.78463858 -15 19 C-15.33 17.68 -15.66 16.36 -16 15 C-15.34 14.67 -14.68 14.34 -14 14 C-13.67 14.66 -13.34 15.32 -13 16 C-12.34 15.01 -11.68 14.02 -11 13 C-10.01 13 -9.02 13 -8 13 C-8 12.01 -8 11.02 -8 10 C-7.34 10 -6.68 10 -6 10 C-5.87625 9.401875 -5.7525 8.80375 -5.625 8.1875 C-5 6 -5 6 -3 3 C-2.01 3 -1.02 3 0 3 C0 2.01 0 1.02 0 0 Z " fill="#887B61" transform="translate(218,217)"/>
<path d="M0 0 C5.24972347 4.10037573 9.20962911 8.52964787 13 14 C10.6875 13.875 10.6875 13.875 8 13 C7.525625 12.030625 7.05125 11.06125 6.5625 10.0625 C5.26320228 6.71159609 5.26320228 6.71159609 1.8125 5.625 C0.884375 5.41875 -0.04375 5.2125 -1 5 C-1 6.98 -1 8.96 -1 11 C-2.98 9.35 -4.96 7.7 -7 6 C-6.401875 5.7525 -5.80375 5.505 -5.1875 5.25 C-2.71352479 3.83629988 -1.56629745 2.34944617 0 0 Z " fill="#9A8960" transform="translate(362,153)"/>
<path d="M0 0 C0.66 0 1.32 0 2 0 C-0.1802629 6.87947032 -2.80254035 13.45055898 -5.6875 20.0625 C-6.10322266 21.02349609 -6.51894531 21.98449219 -6.94726562 22.97460938 C-7.96151487 25.31787486 -8.97914002 27.65960887 -10 30 C-10.33 30 -10.66 30 -11 30 C-11.3457886 24.35211947 -10.56064053 20.92430871 -8 16 C-7.34 15.67 -6.68 15.34 -6 15 C-5.855625 14.071875 -5.71125 13.14375 -5.5625 12.1875 C-4.96251314 8.78757447 -4.11481142 7.62236616 -2 5 C-1.28837557 3.35202764 -0.60968047 1.68834592 0 0 Z " fill="#897652" transform="translate(342,96)"/>
<path d="M0 0 C5.66082034 0.80868862 8.29672643 1.36157824 13 4 C12.01 4.66 11.02 5.32 10 6 C10 5.34 10 4.68 10 4 C7.69 4.66 5.38 5.32 3 6 C2.67 11.28 2.34 16.56 2 22 C1.67 22 1.34 22 1 22 C0.67 14.74 0.34 7.48 0 0 Z " fill="#86755C" transform="translate(239,237)"/>
<path d="M0 0 C2.76401962 3.34464518 5.16768488 6.74184259 7.4375 10.4375 C10.04243591 14.59192365 12.73917659 18.34392527 16 22 C13 22 13 22 10 20 C10 19.34 10 18.68 10 18 C9.34 18 8.68 18 8 18 C7.938125 17.443125 7.87625 16.88625 7.8125 16.3125 C6.67045135 13.06205385 4.44372943 11.38412628 2 9 C-0.01679759 5.92678462 -0.20257027 3.64626491 0 0 Z " fill="#A39164" transform="translate(360,190)"/>
<path d="M0 0 C0.99 0.33 1.98 0.66 3 1 C3 2.65 3 4.3 3 6 C1.68 6.33 0.36 6.66 -1 7 C-0.67 7.66 -0.34 8.32 0 9 C-0.99 9 -1.98 9 -3 9 C-3 9.99 -3 10.98 -3 12 C-3.99 12 -4.98 12 -6 12 C-6.66 13.32 -7.32 14.64 -8 16 C-8.49246231 9.59798995 -8.49246231 9.59798995 -6.25 6.875 C-5.5075 6.25625 -4.765 5.6375 -4 5 C-2.64843325 3.34808509 -1.31037934 1.68477344 0 0 Z " fill="#C1A765" transform="translate(329,151)"/>
<path d="M0 0 C1.85546875 0.25390625 1.85546875 0.25390625 4 1 C5.30078125 2.77734375 5.30078125 2.77734375 6.3125 4.9375 C6.65925781 5.64777344 7.00601562 6.35804688 7.36328125 7.08984375 C7.57339844 7.72019531 7.78351563 8.35054687 8 9 C7.67 9.66 7.34 10.32 7 11 C1.25 9.125 1.25 9.125 -1 8 C-1.125 2.25 -1.125 2.25 0 0 Z " fill="#B19C6D" transform="translate(283,189)"/>
<path d="M0 0 C0 0.66 0 1.32 0 2 C0.86625 2.268125 1.7325 2.53625 2.625 2.8125 C11.2826087 5.85869565 11.2826087 5.85869565 13.375 9.1875 C13.58125 9.785625 13.7875 10.38375 14 11 C10.03840981 9.46648122 6.16950894 7.75326028 2.29296875 6.01953125 C-0.79154984 4.64805024 -3.89388587 3.32175069 -7 2 C-7 1.67 -7 1.34 -7 1 C-2.25 0 -2.25 0 0 0 Z " fill="#B39D70" transform="translate(359,218)"/>
<path d="M0 0 C2.2477975 2.05233685 3.0022242 3.00667261 4 6 C4.99 6 5.98 6 7 6 C7.33 8.31 7.66 10.62 8 13 C10.97 13.495 10.97 13.495 14 14 C12.1875 16 12.1875 16 10 18 C9.01 18 8.02 18 7 18 C6.66226562 17.25234375 6.32453125 16.5046875 5.9765625 15.734375 C5.53054688 14.74953125 5.08453125 13.7646875 4.625 12.75 C3.96371094 11.28820312 3.96371094 11.28820312 3.2890625 9.796875 C2.515908 8.11936402 1.70850684 6.45614027 0.8359375 4.828125 C0 3 0 3 0 0 Z " fill="#9D8961" transform="translate(356,125)"/>
<path d="M0 0 C6.6772895 0.60702632 12.70127996 2.77631394 19 5 C19 5.33 19 5.66 19 6 C16.69 6 14.38 6 12 6 C12 5.34 12 4.68 12 4 C10.35 4.33 8.7 4.66 7 5 C6.67 6.32 6.34 7.64 6 9 C0.42857143 3.85714286 0.42857143 3.85714286 0 0 Z " fill="#918464" transform="translate(345,232)"/>
<path d="M0 0 C4.14540898 1.42498434 7.52253817 3.54630001 11.1328125 5.9765625 C13.08357687 7.24032531 13.08357687 7.24032531 16 7 C16 8.65 16 10.3 16 12 C10.55341128 12 8.73334698 9.70001352 5 6 C3.24468426 4.05159953 1.62184262 2.06416333 0 0 Z " fill="#A48E65" transform="translate(308,130)"/>
<path d="M0 0 C3.99486932 1.33162311 6.05840921 3.05840921 9 6 C9.99 6 10.98 6 12 6 C12.28875 7.134375 12.5775 8.26875 12.875 9.4375 C13.24625 10.613125 13.6175 11.78875 14 13 C14.66 13.33 15.32 13.66 16 14 C13 14 13 14 10.87890625 12.171875 C10.11449219 11.37265625 9.35007812 10.5734375 8.5625 9.75 C7.80066406 8.96109375 7.03882813 8.1721875 6.25390625 7.359375 C5.51011719 6.58078125 4.76632812 5.8021875 4 5 C3.24589844 4.26265625 2.49179687 3.5253125 1.71484375 2.765625 C0 1 0 1 0 0 Z " fill="#A09169" transform="translate(411,215)"/>
<path d="M0 0 C0.66 0 1.32 0 2 0 C1.3048746 4.92104649 -1.89532417 7.11868494 -5.5 10.2265625 C-8.98579184 12.69929609 -11.80181852 13.38935542 -16 14 C-15.67 13.01 -15.34 12.02 -15 11 C-13.35 11 -11.7 11 -10 11 C-10 10.34 -10 9.68 -10 9 C-8.35 8.67 -6.7 8.34 -5 8 C-5 7.01 -5 6.02 -5 5 C-4.34 5 -3.68 5 -3 5 C-3 4.34 -3 3.68 -3 3 C-2.01 3 -1.02 3 0 3 C0 2.01 0 1.02 0 0 Z " fill="#968160" transform="translate(260,187)"/>
<path d="M0 0 C0.33 0 0.66 0 1 0 C1 2.97 1 5.94 1 9 C0.34 9 -0.32 9 -1 9 C-0.938125 10.093125 -0.87625 11.18625 -0.8125 12.3125 C-1 16 -1 16 -2.25 18 C-4 19 -4 19 -6.109375 18.5625 C-6.73328125 18.376875 -7.3571875 18.19125 -8 18 C-7.38511719 17.05640625 -7.38511719 17.05640625 -6.7578125 16.09375 C-3.38889215 10.74216361 -1.15259184 6.22399592 0 0 Z " fill="#988664" transform="translate(340,176)"/>
<path d="M0 0 C1.9375 0.375 1.9375 0.375 4 1 C4.33 1.66 4.66 2.32 5 3 C7.32156597 3.40729228 9.6568787 3.74438677 12 4 C12 5.98 12 7.96 12 10 C8.15114044 9.44520943 6.40739482 7.75581685 3.75 5 C3.04359375 4.278125 2.3371875 3.55625 1.609375 2.8125 C0 1 0 1 0 0 Z " fill="#A6916A" transform="translate(426,230)"/>
<path d="M0 0 C-3.1781341 2.11875607 -6.32692839 3.45458552 -9.84375 4.90234375 C-12.0354978 6.01807044 -13.29684756 7.26219039 -15 9 C-15.66 9 -16.32 9 -17 9 C-16.76346394 5.80676321 -15.72817004 4.69332005 -13.5625 2.25 C-9.47086992 -1.02130327 -4.9843182 -0.44326941 0 0 Z " fill="#9E8C64" transform="translate(244,201)"/>
<path d="M0 0 C0.99 0.33 1.98 0.66 3 1 C4.1875 3.5625 4.1875 3.5625 5 6 C5.66 6 6.32 6 7 6 C7.33 7.32 7.66 8.64 8 10 C7.01 10 6.02 10 5 10 C4.67 9.01 4.34 8.02 4 7 C2.35 7 0.7 7 -1 7 C-1.625 4.625 -1.625 4.625 -2 2 C-1.34 1.34 -0.68 0.68 0 0 Z " fill="#C1A766" transform="translate(346,141)"/>
<path d="M0 0 C6.36989498 0.60093349 6.36989498 0.60093349 8.875 2.1875 C10.43432705 4.69974914 10.67683438 7.09150946 11 10 C8.96166576 8.7260411 6.96147874 7.38938077 5 6 C5 5.34 5 4.68 5 4 C4.360625 3.71125 3.72125 3.4225 3.0625 3.125 C1 2 1 2 0 0 Z " fill="#A49265" transform="translate(236,298)"/>
<path d="M0 0 C-1.84974093 4.22797927 -1.84974093 4.22797927 -4 6 C-7.71325796 6.54496736 -11.27249265 6.34704379 -15 6 C-12.61827612 3.26455475 -10.29334709 2.07454642 -6.9375 0.75 C-6.05964844 0.39421875 -5.18179687 0.0384375 -4.27734375 -0.328125 C-2 -1 -2 -1 0 0 Z " fill="#9C895E" transform="translate(282,94)"/>
<path d="M0 0 C0.99 0.33 1.98 0.66 3 1 C1.625 3 1.625 3 0 5 C-0.66 5 -1.32 5 -2 5 C-2.061875 5.61875 -2.12375 6.2375 -2.1875 6.875 C-2.455625 7.57625 -2.72375 8.2775 -3 9 C-4.64551962 9.71727778 -6.31422289 10.38325228 -8 11 C-8.99 12.485 -8.99 12.485 -10 14 C-10.66 13.67 -11.32 13.34 -12 13 C-11.319375 12.34 -10.63875 11.68 -9.9375 11 C-6.43274653 7.50531766 -3.22778212 3.74869221 0 0 Z " fill="#998A64" transform="translate(323,155)"/>
<path d="M0 0 C2.62587906 2.62587906 2.85778351 4.77281623 3.6875 8.375 C3.95949219 9.51710937 4.23148437 10.65921875 4.51171875 11.8359375 C4.95830381 14.72980868 4.99155833 16.29816991 4 19 C0.45128068 12.36543779 -0.12513724 7.3830972 0 0 Z " fill="#938561" transform="translate(442,172)"/>
<path d="M0 0 C3.15140423 0.34069235 4.60781561 0.58076841 6.8125 2.9375 C8 5 8 5 8 7 C7.34 7.66 6.68 8.32 6 9 C3.375 8.625 3.375 8.625 1 8 C1.33 5.69 1.66 3.38 2 1 C1.34 0.67 0.68 0.34 0 0 Z " fill="#C4AD6E" transform="translate(362,158)"/>
<path d="M0 0 C2.0625 0.4375 2.0625 0.4375 4 1 C4.33 2.65 4.66 4.3 5 6 C4.01 6 3.02 6 2 6 C2.33 7.98 2.66 9.96 3 12 C1 11 1 11 -1 9 C-1.43221915 6.20460862 -1.23050372 3.85824617 -1 1 C-0.67 0.67 -0.34 0.34 0 0 Z " fill="#8F7F5B" transform="translate(295,117)"/>
<path d="M0 0 C10.41533822 3.19948298 10.41533822 3.19948298 14 6 C14.8125 8.1875 14.8125 8.1875 15 10 C11.13518578 8.61423779 8.03192572 6.81080359 4.6875 4.4375 C3.80449219 3.81746094 2.92148438 3.19742187 2.01171875 2.55859375 C1.34785156 2.04425781 0.68398437 1.52992188 0 1 C0 0.67 0 0.34 0 0 Z " fill="#90815D" transform="translate(247,308)"/>
<path d="M0 0 C1.2065625 0.0309375 1.2065625 0.0309375 2.4375 0.0625 C2.4375 0.7225 2.4375 1.3825 2.4375 2.0625 C4.7475 2.0625 7.0575 2.0625 9.4375 2.0625 C9.4375 2.3925 9.4375 2.7225 9.4375 3.0625 C7.1275 3.0625 4.8175 3.0625 2.4375 3.0625 C2.4375 4.0525 2.4375 5.0425 2.4375 6.0625 C0.7875 5.7325 -0.8625 5.4025 -2.5625 5.0625 C-3.125 3.125 -3.125 3.125 -3.5625 1.0625 C-2.5625 0.0625 -2.5625 0.0625 0 0 Z " fill="#C1A974" transform="translate(354.5625,235.9375)"/>
<path d="M0 0 C0.33 0 0.66 0 1 0 C1 2.97 1 5.94 1 9 C0.01 9.495 0.01 9.495 -1 10 C-2.13350534 12.01669827 -2.13350534 12.01669827 -3 14 C-3 13.01 -3 12.02 -3 11 C-3.66 11 -4.32 11 -5 11 C-3.77782954 6.95743617 -2.37245704 3.50711041 0 0 Z " fill="#9F8E5E" transform="translate(215,150)"/>
<path d="M0 0 C0.7528125 -0.01417969 1.505625 -0.02835937 2.28125 -0.04296875 C4.74864173 0.21332722 6.36356256 0.95904847 8.5 2.1875 C1.80324864 3.21776944 -4.7314676 3.28902799 -11.5 3.1875 C-7.59655825 0.5852055 -4.63742296 0.03970396 0 0 Z " fill="#9C8762" transform="translate(304.5,86.8125)"/>
<path d="M0 0 C2.97 0.495 2.97 0.495 6 1 C5.835 1.5775 5.67 2.155 5.5 2.75 C4.85537969 5.26664369 4.85537969 5.26664369 5 9 C4.7018576 10.34164079 4.37756808 11.67851173 4 13 C3.32694982 11.39850114 2.66177773 9.79368971 2 8.1875 C1.62875 7.29417969 1.2575 6.40085938 0.875 5.48046875 C0 3 0 3 0 0 Z " fill="#8B7D65" transform="translate(206,249)"/>
<path d="M0 0 C1.25348607 2.95106435 1.01044806 3.97406463 -0.21484375 7.015625 C-1.06755859 8.61664063 -1.06755859 8.61664063 -1.9375 10.25 C-2.50339844 11.32765625 -3.06929688 12.4053125 -3.65234375 13.515625 C-4.09707031 14.33546875 -4.54179687 15.1553125 -5 16 C-5.33 16 -5.66 16 -6 16 C-5.45144652 11.428721 -4.58255197 7.32564205 -3 3 C-2.01 3 -1.02 3 0 3 C0 2.01 0 1.02 0 0 Z " fill="#918460" transform="translate(440,252)"/>
<path d="M0 0 C3.12934485 1.04311495 3.78557788 1.74247477 6 4 C7.54080126 5.09372939 9.10481211 6.15531225 10.6875 7.1875 C11.49574219 7.71730469 12.30398438 8.24710938 13.13671875 8.79296875 C13.75160156 9.19128906 14.36648438 9.58960938 15 10 C14.01 10.66 13.02 11.32 12 12 C11.67 11.01 11.34 10.02 11 9 C7.48809191 7.77030122 7.48809191 7.77030122 4 7 C4 6.34 4 5.68 4 5 C2.68 4.34 1.36 3.68 0 3 C0 2.01 0 1.02 0 0 Z " fill="#928460" transform="translate(387,220)"/>
<path d="M0 0 C0.33 0 0.66 0 1 0 C1 5.28 1 10.56 1 16 C-0.65 16 -2.3 16 -4 16 C-4.66 14.35 -5.32 12.7 -6 11 C-2.125 11.875 -2.125 11.875 -1 13 C-0.67 8.71 -0.34 4.42 0 0 Z " fill="#A8946C" transform="translate(241,256)"/>
<path d="M0 0 C1.50156874 3.00313748 1.09281204 5.79067522 1.0625 9.125 C1.05347656 10.40632812 1.04445313 11.68765625 1.03515625 13.0078125 C1.02355469 13.99523437 1.01195312 14.98265625 1 16 C-2.25832548 11.75001024 -3.4384824 9.48102995 -3 4 C-1.5 1.625 -1.5 1.625 0 0 Z " fill="#908064" transform="translate(266,222)"/>
<path d="M0 0 C0.33 0.99 0.66 1.98 1 3 C0.67 3.66 0.34 4.32 0 5 C-0.66 5 -1.32 5 -2 5 C-2.08636719 5.62648437 -2.17273438 6.25296875 -2.26171875 6.8984375 C-2.40222656 7.71570313 -2.54273438 8.53296875 -2.6875 9.375 C-2.81511719 10.18710938 -2.94273437 10.99921875 -3.07421875 11.8359375 C-4 14 -4 14 -6.58203125 15.2890625 C-7.37996094 15.52367187 -8.17789062 15.75828125 -9 16 C-8.06758496 14.08085447 -7.12885525 12.16477614 -6.1875 10.25 C-5.66542969 9.18265625 -5.14335937 8.1153125 -4.60546875 7.015625 C-3.2383308 4.44766758 -1.82284537 2.25529217 0 0 Z " fill="#968961" transform="translate(276,205)"/>
<path d="M0 0 C2.32472205 2.85306797 3.7508258 5.54074837 5 9 C5.66 9 6.32 9 7 9 C7.33 10.32 7.66 11.64 8 13 C4.29570832 12.07392708 2.57629659 10.81120807 0.625 7.625 C-1 4 -1 4 -0.75 1.5625 C-0.5025 1.046875 -0.255 0.53125 0 0 Z " fill="#998B61" transform="translate(291,200)"/>
<path d="M0 0 C0.33 0 0.66 0 1 0 C1 6.93 1 13.86 1 21 C-0.65 20.67 -2.3 20.34 -4 20 C-4.66 19.01 -5.32 18.02 -6 17 C-4.35 17.33 -2.7 17.66 -1 18 C-0.505 9.09 -0.505 9.09 0 0 Z " fill="#9C8E6A" transform="translate(447,197)"/>
<path d="M0 0 C8.57142857 0.85714286 8.57142857 0.85714286 12 3 C9.69 3 7.38 3 5 3 C5 4.65 5 6.3 5 8 C2.5 6.25 2.5 6.25 0 4 C0 2.68 0 1.36 0 0 Z " fill="#918265" transform="translate(395,196)"/>
<path d="M0 0 C1.32 0.66 2.64 1.32 4 2 C1.69 4.97 -0.62 7.94 -3 11 C-3.33 9.68 -3.66 8.36 -4 7 C-3.34 6.01 -2.68 5.02 -2 4 C-1.31822584 2.67432801 -0.64808564 1.34246312 0 0 Z " fill="#9A8960" transform="translate(422,281)"/>
<path d="M0 0 C5.00099548 2.65848126 9.7045025 5.25876024 14 9 C11.69 8.67 9.38 8.34 7 8 C6.67 7.01 6.34 6.02 6 5 C4.35 4.67 2.7 4.34 1 4 C0.67 2.68 0.34 1.36 0 0 Z " fill="#918463" transform="translate(252,242)"/>
<path d="M0 0 C0.99 0 1.98 0 3 0 C1.63629701 2.99220268 0.05091917 5.29026529 -2.125 7.75 C-2.93324219 8.67039063 -2.93324219 8.67039063 -3.7578125 9.609375 C-4.16773438 10.06828125 -4.57765625 10.5271875 -5 11 C-5.578125 9.140625 -5.578125 9.140625 -6 7 C-4.75 4.75 -4.75 4.75 -3 3 C-2.01 3 -1.02 3 0 3 C0 2.01 0 1.02 0 0 Z " fill="#9D8D68" transform="translate(218,217)"/>
<path d="M0 0 C5.14388862 0.43592276 8.75485217 0.81613913 13 4 C13 4.33 13 4.66 13 5 C8.13761177 5.34731345 5.17281491 4.52309739 1 2 C0.67 1.34 0.34 0.68 0 0 Z " fill="#9B8B64" transform="translate(407,199)"/>
<path d="M0 0 C1.65 0.33 3.3 0.66 5 1 C5 1.66 5 2.32 5 3 C5.66 3.33 6.32 3.66 7 4 C6.21625 4.28875 5.4325 4.5775 4.625 4.875 C1.90328368 5.84912254 1.90328368 5.84912254 0 8 C-1.125 2.25 -1.125 2.25 0 0 Z " fill="#908364" transform="translate(342,170)"/>
<path d="M0 0 C4.47238653 1.41807378 8.71146306 3.11304374 13 5 C12.360625 5.12375 11.72125 5.2475 11.0625 5.375 C10.381875 5.58125 9.70125 5.7875 9 6 C8.67 6.66 8.34 7.32 8 8 C7.79375 7.360625 7.5875 6.72125 7.375 6.0625 C6.10461791 3.65074923 6.10461791 3.65074923 2.875 3.25 C1.92625 3.1675 0.9775 3.085 0 3 C0 2.01 0 1.02 0 0 Z " fill="#A8966F" transform="translate(366,264)"/>
<path d="M0 0 C1.98 0 3.96 0 6 0 C6 2.31 6 4.62 6 7 C5.34 7 4.68 7 4 7 C4 5.68 4 4.36 4 3 C2.35 3.66 0.7 4.32 -1 5 C-0.67 3.35 -0.34 1.7 0 0 Z " fill="#8A7A5A" transform="translate(386,120)"/>
<path d="M0 0 C2.32472205 2.85306797 3.7508258 5.54074837 5 9 C5.99 8.67 6.98 8.34 8 8 C7.67 9.65 7.34 11.3 7 13 C5 11.625 5 11.625 3 10 C3 9.34 3 8.68 3 8 C2.34 8 1.68 8 1 8 C-0.35439668 5.29120665 -0.06501451 2.99066732 0 0 Z " fill="#98855D" transform="translate(228,284)"/>
<path d="M0 0 C3.45519603 2.99450322 5.04306291 5.50239569 6 10 C5.01 11.485 5.01 11.485 4 13 C3.32404685 11.58774074 2.65959941 10.16997095 2 8.75 C1.62875 7.96109375 1.2575 7.1721875 0.875 6.359375 C0 4 0 4 0 0 Z " fill="#9F8F63" transform="translate(267,238)"/>
<path d="M0 0 C3.53586014 3.17320782 5.58578031 5.16743695 6 10 C4.2925002 8.71937515 2.62626404 7.38232443 1 6 C1 5.34 1 4.68 1 4 C0.01 3.67 -0.98 3.34 -2 3 C-1 1 -1 1 0 0 Z " fill="#A39363" transform="translate(352,179)"/>
<path d="M0 0 C1.30048841 2.60097682 1.56471422 5.13955062 2 8 C-1.5786304 6.34832443 -4.74820188 4.21713508 -8 2 C-5.39902318 0.69951159 -2.86044938 0.43528578 0 0 Z " fill="#A29261" transform="translate(350,211)"/>
<path d="M0 0 C1.6254308 0.14095064 3.25034051 0.28792087 4.875 0.4375 C5.77992188 0.51871094 6.68484375 0.59992188 7.6171875 0.68359375 C10 1 10 1 12 2 C12 2.66 12 3.32 12 4 C12.99 4.33 13.98 4.66 15 5 C9.54520815 4.43179252 5.08940744 3.05362055 0 1 C0 0.67 0 0.34 0 0 Z " fill="#837453" transform="translate(285,328)"/>
<path d="M0 0 C0.99 0.33 1.98 0.66 3 1 C3 3.31 3 5.62 3 8 C4.32 8.66 5.64 9.32 7 10 C5.68 10.33 4.36 10.66 3 11 C0.39665076 8.28817788 0.00543309 7.10866187 -0.1875 3.25 C-0.125625 2.1775 -0.06375 1.105 0 0 Z " fill="#A99862" transform="translate(361,158)"/>
<path d="M0 0 C1 3 1 3 0.1875 4.8125 C-0.204375 5.534375 -0.59625 6.25625 -1 7 C-1.68960962 8.99220557 -2.36079057 10.99105606 -3 13 C-3.66 12.67 -4.32 12.34 -5 12 C-4.50769231 4.61538462 -4.50769231 4.61538462 -1.9375 1.5 C-1.298125 1.005 -0.65875 0.51 0 0 Z " fill="#C6AD6D" transform="translate(339,140)"/>
<path d="M0 0 C0.66 0 1.32 0 2 0 C1.36843005 5.05255964 -0.13459373 9.29593201 -2 14 C-2.33 14 -2.66 14 -3 14 C-3.34615998 8.34605369 -2.43425238 4.96993194 0 0 Z " fill="#998D61" transform="translate(334,112)"/>
<path d="M0 0 C3.99455527 0.61454696 6.74466336 2.70646737 10 5 C6.18510326 6.46726798 3.70988378 5.43336419 0 4 C0 2.68 0 1.36 0 0 Z " fill="#9F8C63" transform="translate(385,102)"/>
<path d="M0 0 C3.26008643 3.16952847 6.22237877 6.39937989 9 10 C6 10 6 10 3 8 C3 7.34 3 6.68 3 6 C2.34 6 1.68 6 1 6 C0.67 4.02 0.34 2.04 0 0 Z " fill="#978863" transform="translate(367,202)"/>
<path d="M0 0 C0.99 0 1.98 0 3 0 C4.1577506 3.47325181 4.06866652 6.36067448 4 10 C3.34 10 2.68 10 2 10 C1.34 6.7 0.68 3.4 0 0 Z " fill="#A8976A" transform="translate(299,141)"/>
<path d="M0 0 C1.98 0.66 3.96 1.32 6 2 C2.63576723 4.96052484 -0.69159287 5.92289822 -5 7 C-4.67 6.01 -4.34 5.02 -4 4 C-2.35 4 -0.7 4 1 4 C1 3.34 1 2.68 1 2 C0.34 1.67 -0.32 1.34 -1 1 C-0.67 0.67 -0.34 0.34 0 0 Z " fill="#98835D" transform="translate(373,320)"/>
<path d="M0 0 C0.99 0 1.98 0 3 0 C1.44499019 3.81684226 -1.03595495 6.19195732 -4 9 C-4 7.35 -4 5.7 -4 4 C-3.34 4 -2.68 4 -2 4 C-2 3.34 -2 2.68 -2 2 C-1.34 2 -0.68 2 0 2 C0 1.34 0 0.68 0 0 Z " fill="#9B855F" transform="translate(413,293)"/>
<path d="M0 0 C2.31 0.33 4.62 0.66 7 1 C7 1.66 7 2.32 7 3 C7.99 3.66 8.98 4.32 10 5 C8.35 5.33 6.7 5.66 5 6 C4.34 5.01 3.68 4.02 3 3 C2.01 3 1.02 3 0 3 C0 2.01 0 1.02 0 0 Z " fill="#C7AD74" transform="translate(260,250)"/>
<path d="M0 0 C4.51478398 0.53115106 7.34666857 2.36620292 11 5 C9.68 5.33 8.36 5.66 7 6 C7 5.34 7 4.68 7 4 C5.35 4 3.7 4 2 4 C1.34 2.68 0.68 1.36 0 0 Z " fill="#AB9B66" transform="translate(400,231)"/>
<path d="M0 0 C0.66 0 1.32 0 2 0 C1.69381595 3.67420866 1.24228216 4.78135513 -1.5625 7.3125 C-2.366875 7.869375 -3.17125 8.42625 -4 9 C-4 7.68 -4 6.36 -4 5 C-3.34 5 -2.68 5 -2 5 C-1.34 3.35 -0.68 1.7 0 0 Z " fill="#AE9C72" transform="translate(225,208)"/>
<path d="M0 0 C0 0.99 0 1.98 0 3 C0.33 3.66 0.66 4.32 1 5 C2 7 2 7 2 10 C0.0625 9.3125 0.0625 9.3125 -2 8 C-2.9375 5.5625 -2.9375 5.5625 -3 3 C-1.5625 1.1875 -1.5625 1.1875 0 0 Z " fill="#917E65" transform="translate(331,195)"/>
<path d="M0 0 C0.99 0.33 1.98 0.66 3 1 C3 2.65 3 4.3 3 6 C1.68 6.33 0.36 6.66 -1 7 C-1.625 5.1875 -1.625 5.1875 -2 3 C-1.34 2.01 -0.68 1.02 0 0 Z " fill="#C4A761" transform="translate(317,164)"/>
<path d="M0 0 C4.455 0.99 4.455 0.99 9 2 C7.1875 4 7.1875 4 5 6 C4.01 6 3.02 6 2 6 C1.34 4.02 0.68 2.04 0 0 Z " fill="#907E62" transform="translate(361,137)"/>
<path d="M0 0 C4.39158329 1.4638611 4.87947433 3.97831338 7 8 C5.68 8 4.36 8 3 8 C0.82542733 5.12645755 0 3.63563409 0 0 Z " fill="#AB966A" transform="translate(421,134)"/>
<path d="M0 0 C2.32758311 0.93103324 3.74357132 1.65382128 5.25 3.6875 C6.27095909 6.83545718 6.12632947 9.71543368 6 13 C4.34746694 10.52120041 3.41755872 8.68269067 2.4375 5.9375 C1.69948197 3.88405088 0.97649314 1.95298629 0 0 Z " fill="#BCA878" transform="translate(293,126)"/>
<path d="M0 0 C1.12894876 0.93274109 2.25300876 1.87140122 3.375 2.8125 C4.00148438 3.33457031 4.62796875 3.85664062 5.2734375 4.39453125 C7 6 7 6 9 9 C2.07692308 7 2.07692308 7 0 4 C0 2.68 0 1.36 0 0 Z " fill="#8F8362" transform="translate(407,117)"/>
<path d="M0 0 C0.66 1.32 1.32 2.64 2 4 C1.34 4 0.68 4 0 4 C0.33 6.64 0.66 9.28 1 12 C-1 11 -1 11 -1.73828125 9.2578125 C-2.30567759 7.15034039 -2.8034233 5.17544882 -3 3 C-1.625 1 -1.625 1 0 0 Z " fill="#BEA674" transform="translate(212,251)"/>
<path d="M0 0 C3.37503669 1.1858237 5.64722731 2.27573689 8 5 C7.67 5.99 7.34 6.98 7 8 C1.125 3.375 1.125 3.375 0 0 Z " fill="#8F815C" transform="translate(411,215)"/>
<path d="M0 0 C0 0.99 0 1.98 0 3 C-0.66 2.67 -1.32 2.34 -2 2 C-4.35981813 2.93578995 -6.69631264 3.93347808 -9 5 C-9.33 4.34 -9.66 3.68 -10 3 C-6.68152292 -0.06320961 -4.44849969 -0.3033068 0 0 Z " fill="#8A7B5A" transform="translate(397,170)"/>
<path d="M0 0 C2.3125 -0.3125 2.3125 -0.3125 5 0 C6.875 2.375 6.875 2.375 8 5 C7.67 5.66 7.34 6.32 7 7 C5.83040013 6.02433888 4.66438823 5.044375 3.5 4.0625 C2.8503125 3.51722656 2.200625 2.97195313 1.53125 2.41015625 C1.0259375 1.94480469 0.520625 1.47945313 0 1 C0 0.67 0 0.34 0 0 Z " fill="#957D5A" transform="translate(370,257)"/>
<path d="M0 0 C2.64 0.33 5.28 0.66 8 1 C8 1.66 8 2.32 8 3 C7.01 3.33 6.02 3.66 5 4 C5 4.99 5 5.98 5 7 C0 1.125 0 1.125 0 0 Z " fill="#A99462" transform="translate(434,207)"/>
<path d="M0 0 C6.15234375 0.5859375 6.15234375 0.5859375 8 1 C8.33 1.66 8.66 2.32 9 3 C6.69 3 4.38 3 2 3 C1.67 3.66 1.34 4.32 1 5 C0.67 3.35 0.34 1.7 0 0 Z " fill="#BFAA70" transform="translate(399,198)"/>
<path d="M0 0 C0.99 0.33 1.98 0.66 3 1 C3.8125 2.8125 3.8125 2.8125 4 5 C3.0625 7.25 3.0625 7.25 2 9 C-0.29013653 5.5647952 -0.17842973 4.014669 0 0 Z " fill="#B59E6D" transform="translate(436,160)"/>
<path d="M0 0 C0 0.99 0 1.98 0 3 C-0.99 3.33 -1.98 3.66 -3 4 C-4.00642948 5.32848691 -5.00692179 6.66150329 -6 8 C-6.66 8 -7.32 8 -8 8 C-8 7.01 -8 6.02 -8 5 C-7.34 5 -6.68 5 -6 5 C-5.67 4.01 -5.34 3.02 -5 2 C-2.4375 0.8125 -2.4375 0.8125 0 0 Z " fill="#8D7751" transform="translate(384,125)"/>
<path d="M0 0 C0.66 0 1.32 0 2 0 C1.54917531 1.46067199 1.08906463 2.91848032 0.625 4.375 C0.36976563 5.18710938 0.11453125 5.99921875 -0.1484375 6.8359375 C-1 9 -1 9 -3 11 C-3 9.02 -3 7.04 -3 5 C-2.34 5 -1.68 5 -1 5 C-0.67 3.35 -0.34 1.7 0 0 Z " fill="#978A64" transform="translate(329,126)"/>
<path d="M0 0 C1.37478516 0.01740234 1.37478516 0.01740234 2.77734375 0.03515625 C3.69644531 0.04417969 4.61554688 0.05320312 5.5625 0.0625 C6.27277344 0.07410156 6.98304688 0.08570313 7.71484375 0.09765625 C4.49856538 2.24184183 2.5239427 2.77347762 -1.28515625 3.09765625 C-1.94515625 2.43765625 -2.60515625 1.77765625 -3.28515625 1.09765625 C-2.28515625 0.09765625 -2.28515625 0.09765625 0 0 Z " fill="#968756" transform="translate(354.28515625,328.90234375)"/>
<path d="M0 0 C0.66 0 1.32 0 2 0 C2.66 2.97 3.32 5.94 4 9 C3.01 8.67 2.02 8.34 1 8 C0.67 5.36 0.34 2.72 0 0 Z " fill="#9B8961" transform="translate(304,155)"/>
<path d="M0 0 C0 3.30941204 -0.40339294 5.11090151 -2 8 C-4.625 8.8125 -4.625 8.8125 -7 9 C-2.85714286 2.57142857 -2.85714286 2.57142857 0 0 Z " fill="#8F8165" transform="translate(234,124)"/>
<path d="M0 0 C0.721875 0.845625 1.44375 1.69125 2.1875 2.5625 C-2.03162747 2.0830537 -4.60913178 1.39624881 -7.8125 -1.4375 C-3.93054643 -2.87936847 -3.23937503 -2.80745836 0 0 Z " fill="#80734E" transform="translate(281.8125,325.4375)"/>
<path d="M0 0 C3 2 3 2 3.6875 5.125 C3.790625 6.07375 3.89375 7.0225 4 8 C2.02 6.68 0.04 5.36 -2 4 C-1.34 3.34 -0.68 2.68 0 2 C0 1.34 0 0.68 0 0 Z " fill="#998255" transform="translate(243,300)"/>
<path d="M0 0 C2.475 0.495 2.475 0.495 5 1 C5.33 3.64 5.66 6.28 6 9 C3.59927045 6.11912454 1.52708963 3.43595166 0 0 Z " fill="#9A8C63" transform="translate(216,272)"/>
<path d="M0 0 C3.3 1.65 6.6 3.3 10 5 C8 6 8 6 6.0546875 5.44140625 C5.33539063 5.15136719 4.61609375 4.86132812 3.875 4.5625 C3.15054687 4.27503906 2.42609375 3.98757812 1.6796875 3.69140625 C0.84824219 3.34916016 0.84824219 3.34916016 0 3 C0 2.01 0 1.02 0 0 Z " fill="#867A5D" transform="translate(412,237)"/>
<path d="M0 0 C1.75 1.4375 1.75 1.4375 3 3 C2.34 4.32 1.68 5.64 1 7 C-0.65 5.02 -2.3 3.04 -4 1 C-2.1875 0.3125 -2.1875 0.3125 0 0 Z " fill="#95835B" transform="translate(349,147)"/>
<path d="M0 0 C2.64 1.65 5.28 3.3 8 5 C7.01 6.485 7.01 6.485 6 8 C6 7.34 6 6.68 6 6 C5.195625 5.7525 4.39125 5.505 3.5625 5.25 C2.716875 4.8375 1.87125 4.425 1 4 C0.67 2.68 0.34 1.36 0 0 Z " fill="#9B8569" transform="translate(213,251)"/>
<path d="M0 0 C6.4 -0.49230769 6.4 -0.49230769 9.4375 2 C10.2109375 2.99 10.2109375 2.99 11 4 C8.04725901 4 6.50941597 3.56108169 3.8125 2.5 C3.09707031 2.2215625 2.38164062 1.943125 1.64453125 1.65625 C1.10183594 1.4396875 0.55914062 1.223125 0 1 C0 0.67 0 0.34 0 0 Z " fill="#847554" transform="translate(362,224)"/>
<path d="M0 0 C2 1 2 1 2.8515625 3.06640625 C3.10679687 3.89011719 3.36203125 4.71382812 3.625 5.5625 C3.88539063 6.38878906 4.14578125 7.21507812 4.4140625 8.06640625 C4.60742188 8.70449219 4.80078125 9.34257812 5 10 C4.01 10 3.02 10 2 10 C1.34 6.7 0.68 3.4 0 0 Z " fill="#807255" transform="translate(286,190)"/>
<path d="M0 0 C1.485 0.99 1.485 0.99 3 2 C3.99 2 4.98 2 6 2 C6 3.32 6 4.64 6 6 C5.34 6 4.68 6 4 6 C4 5.34 4 4.68 4 4 C2.35 3.67 0.7 3.34 -1 3 C-0.67 2.01 -0.34 1.02 0 0 Z " fill="#B8A367" transform="translate(354,186)"/>
<path d="M0 0 C0.99 0 1.98 0 3 0 C2.60196439 2.88575819 2.20990931 3.82189513 -0.0625 5.75 C-0.701875 6.1625 -1.34125 6.575 -2 7 C-1.125 2.25 -1.125 2.25 0 0 Z " fill="#A8946E" transform="translate(315,171)"/>
<path d="M0 0 C2.93200474 2.85276137 5.64315404 5.65079784 8 9 C5.6875 8.875 5.6875 8.875 3 8 C0 3.13793103 0 3.13793103 0 0 Z " fill="#847753" transform="translate(367,158)"/>
<path d="M0 0 C0.66 0.33 1.32 0.66 2 1 C0.515 4.465 0.515 4.465 -1 8 C-1.66 7.67 -2.32 7.34 -3 7 C-2.38722388 4.03824877 -1.74627478 2.61941217 0 0 Z " fill="#AE9F6D" transform="translate(334,143)"/>
<path d="M0 0 C4.75 0.875 4.75 0.875 7 2 C6.67 2.99 6.34 3.98 6 5 C4.35 4.67 2.7 4.34 1 4 C0.67 2.68 0.34 1.36 0 0 Z " fill="#C6AF74" transform="translate(409,124)"/>
<path d="M0 0 C-0.33 0.99 -0.66 1.98 -1 3 C-4.3 3 -7.6 3 -11 3 C-11 2.67 -11 2.34 -11 2 C-3.375 0 -3.375 0 0 0 Z " fill="#9B8A64" transform="translate(293,90)"/>
<path d="M0 0 C2.97 0.99 5.94 1.98 9 3 C8.01 3.66 7.02 4.32 6 5 C3.95703125 4.5390625 3.95703125 4.5390625 1.8125 3.625 C1.09707031 3.32851562 0.38164062 3.03203125 -0.35546875 2.7265625 C-0.89816406 2.48679687 -1.44085938 2.24703125 -2 2 C-1.34 1.34 -0.68 0.68 0 0 Z " fill="#C4B074" transform="translate(352,89)"/>
<path d="M0 0 C0.99 0.33 1.98 0.66 3 1 C2.34 1 1.68 1 1 1 C0.731875 1.639375 0.46375 2.27875 0.1875 2.9375 C-1 5 -1 5 -4 6 C-4 4.35 -4 2.7 -4 1 C-2.68 1.33 -1.36 1.66 0 2 C0 1.34 0 0.68 0 0 Z " fill="#9B825D" transform="translate(405,302)"/>
<path d="M0 0 C0 0.66 0 1.32 0 2 C0.66 2.33 1.32 2.66 2 3 C-0.78823655 4.0326802 -1.8677274 4.04509293 -4.75 3.0625 C-5.4925 2.711875 -6.235 2.36125 -7 2 C-7 1.67 -7 1.34 -7 1 C-2.25 0 -2.25 0 0 0 Z " fill="#A0925E" transform="translate(359,218)"/>
<path d="M0 0 C2 0 2 0 3.625 1.375 C5 3 5 3 5 5 C3.125 5.625 3.125 5.625 1 6 C0.34 5.34 -0.32 4.68 -1 4 C-0.625 1.875 -0.625 1.875 0 0 Z " fill="#C5AD6B" transform="translate(339,185)"/>
<path d="M0 0 C2.88437779 1.29299694 4.87219421 2.65941363 7 5 C1.25 4.25 1.25 4.25 -1 2 C-0.67 1.34 -0.34 0.68 0 0 Z " fill="#9D8767" transform="translate(227,261)"/>
<path d="M0 0 C1.85776765 3.13498292 2.20140476 5.37471432 2 9 C0.68 7.35 -0.64 5.7 -2 4 C-1.34 2.68 -0.68 1.36 0 0 Z " fill="#967C5B" transform="translate(213,260)"/>
<path d="M0 0 C2.97 0.495 2.97 0.495 6 1 C6.33 1.99 6.66 2.98 7 4 C5.02 4 3.04 4 1 4 C0.67 2.68 0.34 1.36 0 0 Z " fill="#C2AD7C" transform="translate(246,241)"/>
<path d="M0 0 C2 1.375 2 1.375 4 3 C4 3.66 4 4.32 4 5 C4.99 5.33 5.98 5.66 7 6 C6.01 6.33 5.02 6.66 4 7 C2 5.1875 2 5.1875 0 3 C0 2.01 0 1.02 0 0 Z " fill="#8E8566" transform="translate(429,210)"/>
<path d="M0 0 C1.65 0 3.3 0 5 0 C5 0.99 5 1.98 5 3 C5.66 3.33 6.32 3.66 7 4 C5.68 4 4.36 4 3 4 C1.25 2 1.25 2 0 0 Z " fill="#A59269" transform="translate(300,123)"/>
<path d="M0 0 C0.66 0.33 1.32 0.66 2 1 C1.375 2.9375 1.375 2.9375 0 5 C-3.125 5.75 -3.125 5.75 -6 6 C-4 4 -2 2 0 0 Z " fill="#817356" transform="translate(253,107)"/>
</svg>
