<?xml version="1.0" encoding="UTF-8"?>
<svg width="256" height="256" viewBox="0 0 256 256" fill="none" xmlns="http://www.w3.org/2000/svg" role="img" aria-label="Finova">
  <defs>
    <linearGradient id="g1" x1="0" y1="0" x2="1" y2="1">
      <stop offset="0%" stop-color="#4F46E5"/>
      <stop offset="100%" stop-color="#06B6D4"/>
    </linearGradient>
    <linearGradient id="g2" x1="0" y1="1" x2="1" y2="0">
      <stop offset="0%" stop-color="#22C55E"/>
      <stop offset="100%" stop-color="#16A34A"/>
    </linearGradient>
    <filter id="shadow" x="-20%" y="-20%" width="140%" height="140%">
      <feDropShadow dx="0" dy="6" stdDeviation="8" flood-color="#0f172a" flood-opacity="0.18"/>
    </filter>
  </defs>

  <g filter="url(#shadow)">
    <rect x="20" y="20" width="216" height="216" rx="32" fill="url(#g1)"/>
    <path d="M70 148c0-36.5 29.5-66 66-66h50a8 8 0 0 1 0 16h-50c-27.6 0-50 22.4-50 50s22.4 50 50 50h28c4.4 0 8-3.6 8-8s-3.6-8-8-8h-28c-18.8 0-34-15.2-34-34Z" fill="#ffffff" opacity="0.96"/>
    <path d="M116 92h70a8 8 0 0 1 0 16h-70a8 8 0 1 1 0-16Z" fill="#ffffff"/>
    <path d="M146 128h40a8 8 0 0 1 0 16h-40a8 8 0 1 1 0-16Z" fill="url(#g2)"/>
  </g>

  <title>Finova</title>
</svg>


